<?xml version="1.0" standalone="no"?><!DOCTYPE svg PUBLIC "-//W3C//DTD SVG 1.1//EN" "http://www.w3.org/Graphics/SVG/1.1/DTD/svg11.dtd"><svg t="1751352062339" class="icon" viewBox="0 0 1024 1024" version="1.1" xmlns="http://www.w3.org/2000/svg" p-id="13122" xmlns:xlink="http://www.w3.org/1999/xlink" width="200" height="200"><path d="M925.166191 301.701565h-207.328834a18.761461 18.761461 0 1 1 0-37.514017h19.260104a33.346783 33.346783 0 0 0 0-66.698018h-174.42727a33.346783 33.346783 0 0 0 0 66.698018h35.755409a18.761461 18.761461 0 0 1 0 37.514017h-139.820522c-27.964104 0-50.630122 22.67047-50.630121 50.634574 0 27.959652 22.666017 50.630122 50.630121 50.630122H925.161739c27.964104 0 50.634574-22.666017 50.634574-50.630122 0.004452-27.964104-22.666017-50.634574-50.630122-50.634574zM488.381217 772.746017H425.507617a19.286817 19.286817 0 1 1 0-38.573634h19.798818a34.286191 34.286191 0 0 0 34.295095-34.295096 34.286191 34.286191 0 0 0-34.295095-34.290644H198.856348a34.290643 34.290643 0 1 0 0 68.58574h103.869217a19.286817 19.286817 0 1 1 0 38.573634h-54.316522c-28.756591 0-52.068174 23.311583-52.068173 52.068174s23.311583 52.063722 52.068173 52.063722h239.972174c28.752139 0 52.072626-23.30713 52.072626-52.063722 0-28.73433-23.316035-52.068174-52.072626-52.068174z" fill="#FBF0E2" p-id="13123"></path><path d="M392.236522 741.376c-166.012661-98.798191-203.660243-348.93913-203.660244-348.93913l-3.949078-5.373774c-2.640139-3.664139-96.83033-1.019548-115.315757 20.969739 0 0-29.050435-45.545739 20.244035-78.113392 0 0-64.262678-7.038887-32.572104-58.977947 0 0 27.287374-58.9824 73.941704-14.091131 0 0 12.136626-84.626922 119.531965-53.813426 0 0-10.890017 99.256765-5.462817 148.150539 0 101.344835 183.068939 221.851826 425.859339 21.432765 39.3216-32.456348 86.799583-93.874087 181.061009-64.788034l76.470539 70.250852c7.519722 211.7632-104.176417 316.6208-163.897878 352.264904-77.583583 46.298157-164.850643 60.718748-241.810922 52.486678" fill="#D04E39" p-id="13124"></path><path d="M564.259617 796.182261c-14.255861 0-28.525078-0.752417-42.758678-2.279513a11.125983 11.125983 0 1 1 2.364104-22.131757c81.764174 8.721809 165.193461-9.367374 234.914505-50.977391 39.196939-23.400626 166.471235-117.234643 158.479582-342.314296a11.12153 11.12153 0 0 1 10.725287-11.517774 11.183861 11.183861 0 0 1 11.517774 10.72974c8.432417 237.287513-127.461287 337.238817-169.311721 362.215513-61.693774 36.828383-133.507339 56.275478-205.930853 56.275478zM392.223165 752.506435c-1.936696 0-3.895652-0.503096-5.680974-1.567165-168.603826-100.347548-207.404522-346.423652-208.976139-356.850644a11.130435 11.130435 0 1 1 22.011548-3.316869c0.36953 2.448696 38.885287 246.133983 198.3488 341.036521a11.130435 11.130435 0 0 1-5.703235 20.698157zM419.782122 492.009739c-44.597426 0-77.592487-11.32633-96.861496-20.404313C268.817809 446.107826 233.859339 398.839096 233.859339 351.187478a11.130435 11.130435 0 1 1 22.26087 0c0 39.07673 29.945322 78.4384 76.288 100.276313 43.15047 20.328626 161.823165 52.517843 331.357495-87.431791 5.315896-4.385391 10.858852-9.389635 16.73127-14.68327 36.9664-33.351235 87.574261-79.039443 174.689948-52.152765 5.872417 1.812035 9.167026 8.045078 7.350539 13.917496s-8.031722 9.17593-13.917496 7.350539c-75.005774-23.146852-116.562365 14.336-153.212661 47.406748-6.054957 5.46727-11.780452 10.627339-17.47033 15.328835-105.81927 87.356104-193.994574 110.810157-258.154852 110.810156z" fill="#A53A2A" p-id="13125"></path><path d="M754.763687 438.717217m-45.385461 0a45.385461 45.385461 0 1 0 90.770922 0 45.385461 45.385461 0 1 0-90.770922 0Z" fill="#FBEDD7" p-id="13126"></path><path d="M754.763687 495.233113c-31.160765 0-56.511443-25.350678-56.511444-56.515896s25.350678-56.515896 56.511444-56.515895c31.165217 0 56.520348 25.350678 56.520348 56.515895s-25.35513 56.515896-56.520348 56.515896z m0-90.770922c-18.886122 0-34.250574 15.368904-34.250574 34.255026s15.364452 34.255026 34.250574 34.255026c18.890574 0 34.259478-15.368904 34.259478-34.255026s-15.364452-34.255026-34.259478-34.255026z" fill="#A53A2A" p-id="13127"></path><path d="M754.763687 438.717217m-22.901983 0a22.901983 22.901983 0 1 0 45.803966 0 22.901983 22.901983 0 1 0-45.803966 0Z" fill="#FFFFFF" p-id="13128"></path><path d="M754.763687 464.940522c-14.456209 0-26.218852-11.762643-26.218852-26.223305s11.762643-26.223304 26.218852-26.223304c14.460661 0 26.227757 11.762643 26.227756 26.223304s-11.767096 26.223304-26.227756 26.223305z m0-30.185739a3.962435 3.962435 0 1 0 0.013356 7.924869 3.962435 3.962435 0 0 0-0.013356-7.924869zM69.311443 419.16327a11.130435 11.130435 0 0 1-9.385182-5.142261c-10.271165-16.103513-19.500522-50.247235 6.353252-78.874713-9.66567-4.064835-19.994713-10.827687-25.479791-21.980383-6.638191-13.498991-4.483339-29.4912 6.393321-47.540313 2.283965-4.630261 16.42407-31.249809 41.854887-36.022539 11.914017-2.234991 23.952696 0.543165 35.951305 8.276591 4.901843-12.003061 14.238052-27.745948 31.583722-38.97433 24.420174-15.805217 57.045704-18.013496 96.941634-6.562505a11.12153 11.12153 0 0 1 7.991652 11.909566c-0.106852 0.979478-10.68967 98.606748-5.462817 145.710747a11.130435 11.130435 0 0 1-22.127304 2.4576c-4.554574-41.071304 1.88327-114.701357 4.478887-141.031513-29.232974-6.914226-52.660313-4.835061-69.729948 6.206331-22.755061 14.727791-26.699687 40.581565-26.735304 40.839791a11.130435 11.130435 0 0 1-18.734748 6.437844c-10.983513-10.569461-21.107757-15.083965-30.052174-13.39214-15.880904 2.978504-25.973983 23.930435-26.071931 24.139687a10.863304 10.863304 0 0 1-0.601043 1.121948c-6.891965 11.295165-8.815304 20.230678-5.725496 26.566122 5.106643 10.462609 23.868104 14.843548 30.038818 15.555896a11.148243 11.148243 0 0 1 9.567721 8.472487 11.12153 11.12153 0 0 1-4.674782 11.873947c-26.552765 17.541565-25.613357 39.063374-21.797844 51.841113 33.573843-17.261078 101.64313-16.415165 102.444522-16.375095 7.871443 0.293843 13.7216 0.890435 17.318957 5.881322a11.130435 11.130435 0 0 1-13.637009 16.642226c-14.937043-2.430887-89.933913 3.41927-102.190748 17.995687a11.108174 11.108174 0 0 1-8.512557 3.966887z" fill="#A53A2A" p-id="13129"></path><path d="M486.929809 733.789496s-100.178365 15.827478-132.4032 4.104904c-28.315826-10.297878-2.341843 49.80647 58.577252 43.35527 0 0 27.541148 0 16.410713 24.02393 0 0 75.580104 6.433391 109.550191-42.76313" fill="#FBEDD7" p-id="13130"></path><path d="M438.561391 816.706783c-5.69433 0-9.327304-0.280487-9.990678-0.338366a11.12153 11.12153 0 0 1-9.15367-15.7696c1.705183-3.677496 1.705183-5.618643 1.571618-6.010434-0.627757-0.854817-4.189496-2.039096-7.466296-2.19047-38.586991 3.753183-67.361391-16.085704-77.819548-36.285217-5.111096-9.879374-4.995339-19.015235 0.325009-25.070192 2.911722-3.31687 9.68793-8.200904 22.300939-3.610713 24.224278 8.810852 99.791026-0.365078 126.864696-4.639165a11.130435 11.130435 0 0 1 3.472696 21.989287c-9.817043 1.549357-91.496626 14.006539-130.123687 5.756661 1.540452 1.963409 3.557287 4.131617 6.139547 6.330991 7.12793 6.086122 22.759513 15.880904 47.250922 13.307548a11.397565 11.397565 0 0 1 1.170922-0.06233c1.909983 0 18.88167 0.351722 26.668522 12.537321a22.528 22.528 0 0 1 3.499408 11.651339c21.512904-0.721252 64.67673-6.326539 86.6304-38.123965a11.139339 11.139339 0 0 1 18.325148 12.653079c-29.842922 43.226157-86.621496 47.874226-109.665948 47.874226z" fill="#A53A2A" p-id="13131"></path><path d="M265.603339 524.817809a11.117078 11.117078 0 0 1-9.723548-5.689879c-9.834852-17.577183-3.552835-39.882574 14.010992-49.717426a36.717078 36.717078 0 0 1 36.129391 0.271583 11.139339 11.139339 0 0 1-11.134887 19.282365 14.140104 14.140104 0 0 0-14.117844-0.124661 14.287026 14.287026 0 0 0-5.462817 19.420383 11.134887 11.134887 0 0 1-4.274087 15.150748 11.22393 11.22393 0 0 1-5.4272 1.406887z" fill="#A53A2A" p-id="13132"></path><path d="M300.463861 490.447026l-0.293844-0.004452a11.130435 11.130435 0 0 1-10.841043-11.410922 36.712626 36.712626 0 0 1 18.6368-30.960417 11.130435 11.130435 0 1 1 10.885565 19.41593 14.166817 14.166817 0 0 0-7.265948 12.114365 11.130435 11.130435 0 0 1-11.12153 10.845496z" fill="#A53A2A" p-id="13133"></path><path d="M296.3456 584.169739a11.117078 11.117078 0 0 1-9.385183-5.133356c-10.8544-16.967235-5.872417-39.602087 11.09927-50.46094a36.739339 36.739339 0 0 1 36.089322-1.812034 11.130435 11.130435 0 0 1-10.008487 19.883408 14.17127 14.17127 0 0 0-14.100035 0.690087 14.291478 14.291478 0 0 0-4.327513 19.705322 11.130435 11.130435 0 0 1-9.367374 17.127513z" fill="#A53A2A" p-id="13134"></path><path d="M329.140313 547.835548a11.125983 11.125983 0 0 1-11.117078-10.769809 36.672557 36.672557 0 0 1 16.824765-31.993322 36.276313 36.276313 0 0 1 27.50553-4.897391 36.303026 36.303026 0 0 1 22.924244 16.001113 11.130435 11.130435 0 1 1-18.757009 11.989704 14.157913 14.157913 0 0 0-8.953322-6.250852 14.122296 14.122296 0 0 0-10.729739 1.914435 14.144557 14.144557 0 0 0-6.566956 12.515061 11.130435 11.130435 0 0 1-10.760905 11.486609l-0.36953 0.004452z" fill="#A53A2A" p-id="13135"></path><path d="M354.98073 676.445496a11.081461 11.081461 0 0 1-7.105669-2.568905c-10.101983-8.387896-16.326122-20.203965-17.528209-33.275548s2.755896-25.827061 11.148244-35.920139c10.99687-13.231861 28.422678-19.7632 45.505669-17.078539a11.130435 11.130435 0 0 1-3.472695 21.989287c-9.500939-1.504835-18.814887 1.981217-24.914366 9.3184a26.713043 26.713043 0 0 0-6.099478 19.647444 26.668522 26.668522 0 0 0 9.581078 18.196034 11.130435 11.130435 0 0 1-7.114574 19.691966z" fill="#A53A2A" p-id="13136"></path><path d="M385.264417 609.720765a11.134887 11.134887 0 0 1-10.489321-7.417322c-5.77447-16.290504-2.524383-34.629009 8.476939-47.856417a48.791374 48.791374 0 0 1 33.28-17.523756c13.062678-1.179826 25.822609 2.7648 35.906782 11.166052a11.130435 11.130435 0 0 1-14.242504 17.105252 26.601739 26.601739 0 0 0-19.629635-6.099478 26.668522 26.668522 0 0 0-18.200487 9.581078c-6.10393 7.33273-7.826922 17.127513-4.612452 26.192139a11.130435 11.130435 0 0 1-10.489322 14.852452z" fill="#A53A2A" p-id="13137"></path><path d="M864.70567 295.757913c-13.338713 3.348035-4.331965 33.048487-17.225461 49.93113-10.28007 13.450017-25.417461 53.813426 27.278469 62.201322 0 0 57.58887 6.290922 58.764244-61.818435 0.182539-10.204383-2.555548-32.509774-23.503026-32.491965-12.149983 0.004452-7.012174 35.172174-21.481739 49.855444-0.008904 0 28.079861-80.704557-23.832487-67.677496zM666.557217 473.368487L566.583652 468.813913s-33.44473 48.70233 9.589983 89.778087c0 0 17.47033 14.06887 13.650365 31.410087 0 0-17.078539 66.818226 65.104139 64.4096 0 0 24.74073-4.514504 45.340939 16.976139 0 0 15.435687 40.603826 57.784765 7.742331 0 0-1.531548-45.452243 3.414818-75.758192l-58.773148-55.523061-36.138296-74.480417z" fill="#F5B158" p-id="13138"></path><path d="M878.520765 419.172174c-3.125426 0-4.973078-0.218157-4.973078-0.218157a10.453704 10.453704 0 0 1-0.538713-0.075687c-28.707617-4.56793-39.775722-18.142609-44.005287-28.725426-8.000557-20.021426 2.29287-41.618922 9.630052-51.226713 4.296348-5.623096 5.213496-14.598678 6.099478-23.275965 1.233252-12.056487 2.769252-27.055861 17.261079-30.693287 4.64807-1.16647 9.037913-1.758609 13.049321-1.758609 13.561322 0 21.103304 6.571409 25.043479 12.0832 1.7408 2.435339 3.103165 5.151165 4.153878 8.058435 1.705183-0.578783 3.619617-0.894887 5.774469-0.894887 9.220452 0 17.221009 3.196661 23.164661 9.247165 10.716383 10.912278 11.593461 27.81273 11.473253 34.575583-0.930504 53.755548-34.771478 72.904348-66.132592 72.904348z m-2.377461-22.332104c0.365078 0.026713 1.206539 0.071235 2.377461 0.071234 16.054539 0 43.105948-6.629287 43.871722-51.035269 0.106852-6.072765-1.162017-14.571965-5.097739-18.578922a7.956035 7.956035 0 0 0-3.989148-2.226087c-0.837009 2.787061-1.682922 7.176904-2.301774 10.373565-2.234991 11.646887-5.022052 26.143165-14.549704 35.804383a11.130435 11.130435 0 0 1-18.449809-11.442087c5.485078-16.03673 10.346852-42.642922 3.962435-51.578435-0.641113-0.899339-1.972313-2.7648-6.932035-2.7648-1.856557 0-3.989148 0.26713-6.357704 0.788035-0.854817 2.377461-1.415791 7.875896-1.803131 11.664696-1.090783 10.654052-2.448696 23.908174-10.560556 34.526608-5.022052 6.571409-10.400278 20.052591-6.642644 29.451131 3.74873 9.362922 16.379548 13.294191 26.472626 14.945948zM727.939339 703.11847a37.865739 37.865739 0 0 1-10.257809-1.402435c-16.041183-4.510052-24.037287-18.182678-26.775373-23.952696-15.70727-15.208626-33.792-12.434922-33.983444-12.403756a11.063652 11.063652 0 0 1-1.669565 0.178087c-30.394991 0.872626-52.504487-6.958748-65.620591-23.351653-18.458713-23.066713-10.921183-53.648696-10.591722-54.939826 2.145948-9.781426-9.732452-19.887861-9.852661-19.981356a11.646887 11.646887 0 0 1-0.703444-0.618852c-39.459617-37.665391-24.504765-84.5824-11.077008-104.131896 2.172661-3.169948 5.787826-4.924104 9.683478-4.821704l99.973565 4.554574a11.130435 11.130435 0 0 1-1.015095 22.238608l-93.22407-4.251826c-6.130643 12.04313-17.354574 42.959026 10.79207 70.063861 3.285704 2.80487 21.971478 19.887861 17.082991 42.0864-0.124661 0.525357-5.146713 21.690991 6.406678 35.991374 8.45913 10.467061 24.250991 15.533635 46.872487 14.919235 5.658713-0.734609 32.122435-2.778157 54.325426 20.386504 1.032904 1.072974 1.838748 2.346296 2.368557 3.744278 0.008904 0.022261 4.278539 10.471513 13.147269 12.884592 7.283757 1.98567 15.916522-2.016835 22.964313-6.7584-0.240417-13.547965-0.34727-47.210852 3.690852-71.973844a11.174957 11.174957 0 0 1 12.77774-9.193739 11.130435 11.130435 0 0 1 9.193739 12.777739c-4.714852 28.894609-3.290157 73.149217-3.272348 73.589983a11.152696 11.152696 0 0 1-4.305252 9.171478c-13.022609 10.106435-25.399652 15.190817-36.930783 15.19527z" fill="#A53A2A" p-id="13139"></path><path d="M866.188243 640.16473c-0.289391 0-0.583235-0.008904-0.877078-0.035617-73.394087-5.721043-129.215443-32.01113-165.914713-78.149009-61.404383-77.205148-46.627617-181.158957-45.968695-185.5488a11.130435 11.130435 0 0 1 22.020452 3.294609c-0.14247 0.979478-13.913043 99.029704 41.480904 168.528139 32.696765 41.02233 83.202226 64.463026 150.113948 69.680974a11.130435 11.130435 0 0 1-0.854818 22.229704zM180.753809 368.826991a11.085913 11.085913 0 0 1-5.667618-1.558261c-0.262678-0.155826-26.463722-15.631583-52.130504-25.079095a11.130435 11.130435 0 0 1 7.693356-20.8896c27.625739 10.173217 54.663791 26.156522 55.803548 26.8288a11.130435 11.130435 0 0 1-5.698782 20.698156zM209.198748 352.812522a11.117078 11.117078 0 0 1-9.772522-5.796731c-0.979478-1.794226-23.988313-44.428243-23.988313-86.318748a11.130435 11.130435 0 1 1 22.26087 0c0 36.124939 21.05433 75.268452 21.268034 75.660244a11.130435 11.130435 0 0 1-9.768069 16.455235z" fill="#A53A2A" p-id="13140"></path><path d="M363.257322 237.799513l9.554365 9.554365-9.558817 9.558818-9.554366-9.558818zM363.261774 283.594574l-9.558817-9.558817 9.554365-9.554366 9.558817 9.554366zM367.050574 260.701496l9.558817-9.554366 9.554366 9.558818-9.558818 9.558817zM340.3776 260.692591l9.558817-9.558817 9.554366 9.558817-9.558818 9.558818z" fill="#F5B158" p-id="13141"></path><path d="M709.391583 826.657391l7.301565 7.301566-7.301565 7.306017-7.301566-7.301565zM709.38713 861.682643l-7.301565-7.306017 7.301565-7.301565 7.301566 7.301565zM712.258783 844.163339l7.301565-7.301565 7.314922 7.306017-7.301566 7.306018zM691.867826 844.163339l7.306017-7.301565 7.31047 7.306017-7.301565 7.301566z" fill="#F5B158" p-id="13142"></path><path d="M205.142817 599.89927l7.86254 7.862539-7.86254 7.858087-7.858087-7.858087zM205.129461 637.560209l-7.858087-7.858087 7.858087-7.862539 7.862539 7.862539zM208.237078 618.736417l7.862539-7.853634 7.858087 7.862539-7.858087 7.853635zM186.301217 618.74087l7.858087-7.86254 7.862539 7.86254-7.862539 7.858087z" fill="#D04E39" p-id="13143"></path><path d="M812.610783 733.905252l7.786852 7.791305-7.795757 7.791304-7.791304-7.791304zM812.615235 771.250087l-7.795757-7.791304 7.7824-7.791305 7.795757 7.791305zM815.682783 752.57767l7.791304-7.791305 7.791304 7.800209-7.795756 7.791304zM793.938365 752.573217l7.800209-7.791304 7.791304 7.800209-7.800208 7.791304z" fill="#FBEDD7" p-id="13144"></path></svg>