<?xml version="1.0" standalone="no"?><!DOCTYPE svg PUBLIC "-//W3C//DTD SVG 1.1//EN" "http://www.w3.org/Graphics/SVG/1.1/DTD/svg11.dtd"><svg t="1751352012566" class="icon" viewBox="0 0 2129 1024" version="1.1" xmlns="http://www.w3.org/2000/svg" p-id="10753" xmlns:xlink="http://www.w3.org/1999/xlink" width="415.8203125" height="200"><path d="M43.083852 605.677037S249.400889 114.915556 763.676444 48.165926a1184.57837 1184.57837 0 0 1 986.074075 334.506667s-71.300741 483.934815-758.518519 557.131851C304.014222 1013.001481 43.083852 605.677037 43.083852 605.677037zM2091.083852 85.333333L1522.194963 345.505185v185.837037l568.888889 185.837037V85.333333z" fill="#616060" p-id="10754"></path><path d="M1283.26163 137.178074a1146.728296 1146.728296 0 0 1 286.72 144.763259L1484.269037 321.156741v237.681778l122.955852 40.201481c-2.844444 3.678815-5.688889 7.395556-8.685037 11.112296-97.128296 121.856-277.352296 256.379259-611.328 291.915852-335.03763 35.726222-563.730963-45.776593-707.925333-134.219852-72.362667-44.373333-123.941926-90.794667-157.202963-125.800296a551.480889 551.480889 0 0 1-35.19526-40.618667c0-0.113778 0.075852-0.18963 0.113778-0.265481 6.295704-12.856889 15.928889-31.478519 29.127111-54.158222a1076.717037 1076.717037 0 0 1 122.804148-169.908149C350.852741 250.462815 523.264 117.57037 768.530963 85.750519A1146.652444 1146.652444 0 0 1 1283.26163 137.178074z m365.985185 108.506074a1222.542222 1222.542222 0 0 0-890.424889-235.140741c-269.008593 34.891852-456.89363 180.792889-576.70163 316.302223a1152.493037 1152.493037 0 0 0-131.527111 182.044444c-14.184296 24.348444-24.689778 44.600889-31.706074 58.861037a618.533926 618.533926 0 0 0-9.974518 21.352296l-0.530963 1.289482-0.18963 0.379259v0.113778l-0.037926 0.037926 34.929778 14.753185-34.929778-14.753185-7.736889 18.432 10.733037 16.763259 31.93363-20.48c-31.93363 20.48-31.93363 20.48-31.895704 20.517926v0.075852l0.113778 0.113778 0.265481 0.379259 0.758519 1.21363 2.806518 4.058074c2.389333 3.413333 5.878519 8.229926 10.467556 14.184296 9.216 11.946667 22.945185 28.558222 41.490963 48.128 37.167407 39.063704 93.752889 89.884444 172.562963 138.202074 158.037333 96.938667 403.418074 182.499556 755.598222 144.990815 353.242074-37.622519 552.277333-181.665185 662.603852-320.094815 8.988444-11.264 17.408-22.528 25.220741-33.60237L2129.009778 769.441185V85.333333h-37.925926l-15.777185-34.512592L1649.246815 245.684148z m-10.391704 88.177778L1560.120889 369.891556v133.916444l90.794667 29.658074c18.811259-32.540444 32.123259-62.501926 41.453037-87.343407 7.964444-21.31437 12.970667-38.798222 15.966814-50.858667-22.376296-21.428148-45.511111-41.908148-69.480296-61.44z m144.346074 74.486518l30.72-15.36-37.432889-37.205333a1223.338667 1223.338667 0 0 0-61.25037-56.850963L2053.157926 144.384V664.841481L1724.416 557.511111a656.118519 656.118519 0 0 0 38.987852-84.764444 541.88563 541.88563 0 0 0 19.797333-64.398223z" fill="#2B2424" p-id="10755"></path><path d="M400.308148 306.972444l21.997037-30.871703 22.072889-30.871704 0.075852 0.037926 0.113778 0.075852 0.303407 0.265481 0.986074 0.720593 3.26163 2.465185c2.730667 2.123852 6.523259 5.157926 11.150222 9.064296 9.216 7.850667 21.845333 19.342222 35.915852 34.247111 28.065185 29.771852 62.577778 74.031407 87.457185 131.565038 24.993185 57.761185 40.163556 128.796444 29.240889 211.019851-10.884741 82.147556-47.521185 173.056-122.500741 271.246223l-60.264296-46.042074c68.380444-89.543111 98.721185-168.353185 107.595852-235.178667a318.501926 318.501926 0 0 0-23.703704-170.970074 385.099852 385.099852 0 0 0-73.045333-109.605926 372.470519 372.470519 0 0 0-29.771852-28.444445 243.181037 243.181037 0 0 0-10.543408-8.457481l-0.379259-0.303407z m0 0l-0.075852-0.037925h0.037926z" fill="#2B2424" p-id="10756"></path><path d="M365.454222 541.582222a56.888889 56.888889 0 1 0 0-113.777778 56.888889 56.888889 0 0 0 0 113.777778z" fill="#281F2C" p-id="10757"></path><path d="M365.454222 465.73037a18.962963 18.962963 0 1 0 0 37.925926 18.962963 18.962963 0 0 0 0-37.925926z m-94.814815 18.962963a94.814815 94.814815 0 1 1 189.62963 0 94.814815 94.814815 0 0 1-189.62963 0z" fill="#1B1B1B" p-id="10758"></path><path d="M649.898667 162.322963s113.777778 80.402963 75.851852 189.62963 75.851852 189.62963 75.851851 189.629629 74.714074 144.118519 0 227.555556-37.925926 113.777778-37.925926 113.777778" fill="#281F2C" opacity=".43" p-id="10759"></path><path d="M627.977481 193.270519L649.898667 162.322963c21.883259-30.985481 21.921185-30.947556 21.921185-30.947556l0.075852 0.075852 0.189629 0.113778 0.417186 0.303407a132.740741 132.740741 0 0 1 5.802666 4.437334 286.226963 286.226963 0 0 1 54.802963 58.102518c27.496296 39.177481 52.944593 99.479704 28.444445 169.984-13.425778 38.684444-0.948148 73.197037 18.962963 101.527704a210.261333 210.261333 0 0 0 42.514963 44.373333l0.530962 0.37926h0.037926l7.433482 5.271703 4.247704 8.192-33.678223 17.445926 33.678223-17.445926v0.037926l0.037926 0.075852 0.113777 0.151704 0.227556 0.493037 0.796444 1.592889 2.654815 5.537185a389.499259 389.499259 0 0 1 27.685926 84.574815c10.088296 50.176 12.591407 122.500741-36.939852 177.872592-34.474667 38.456889-37.281185 58.292148-37.319111 63.146667 0 1.251556 0.151704 1.782519 0.151704 1.782518s-0.075852-0.265481-0.379259-0.796444a11.719111 11.719111 0 0 0-1.40326-1.972148 21.807407 21.807407 0 0 0-2.123852-2.123852l-0.455111-0.417185-0.265481-0.227556-0.113778-0.113777-0.075852-0.037926s-0.075852-0.075852-24.196741 29.202963c-24.120889 29.240889-24.158815 29.202963-24.19674 29.202963l-0.075852-0.075852-0.113778-0.113778-0.303407-0.227556-0.644741-0.568889a43.804444 43.804444 0 0 1-4.778667-4.854518 64.549926 64.549926 0 0 1-7.698963-11.112296 77.217185 77.217185 0 0 1-9.178074-38.153482c0.265481-31.175111 16.421926-68.228741 56.661334-113.170963 25.182815-28.103111 27.685926-69.556148 19.114666-112.260741a313.723259 313.723259 0 0 0-21.238518-65.536 286.151111 286.151111 0 0 1-52.830815-56.509629c-27.496296-39.215407-52.944593-99.479704-28.444445-170.021926 13.425778-38.684444 0.948148-73.197037-18.962963-101.527704a210.185481 210.185481 0 0 0-42.477037-44.373333l-0.568888-0.379259 0.037925 0.037926z m0 0h-0.037925l-0.037926-0.037926h0.037926z" fill="#1B1B1B" opacity=".43" p-id="10760"></path><path d="M915.380148 124.397037s113.777778 80.402963 75.851852 189.62963 75.851852 189.62963 75.851852 189.629629 74.714074 144.118519 0 227.555556-37.925926 113.777778-37.925926 113.777778" fill="#281F2C" opacity=".4" p-id="10761"></path><path d="M893.458963 155.344593L915.380148 124.397037c21.883259-30.985481 21.921185-30.947556 21.921185-30.947556l0.075852 0.075852 0.18963 0.113778 0.417185 0.303408a132.740741 132.740741 0 0 1 5.802667 4.437333 286.226963 286.226963 0 0 1 54.802963 58.102518c27.496296 39.177481 52.944593 99.479704 28.444444 169.984-13.425778 38.684444-0.948148 73.197037 18.962963 101.527704a210.261333 210.261333 0 0 0 42.514963 44.373333l0.530963 0.37926h0.037926l7.433481 5.271703 4.247704 8.192-33.678222 17.445926 33.678222-17.445926v0.037926l0.037926 0.075852 0.113778 0.151704 0.227555 0.493037 0.796445 1.592889 2.654815 5.537185a389.499259 389.499259 0 0 1 27.685926 84.574815c10.088296 50.176 12.591407 122.500741-36.939852 177.872592-34.474667 38.456889-37.281185 58.292148-37.319111 63.146667 0 1.251556 0.151704 1.782519 0.151703 1.782519s-0.075852-0.265481-0.379259-0.796445a11.719111 11.719111 0 0 0-1.403259-1.972148 21.807407 21.807407 0 0 0-2.123852-2.123852l-0.455111-0.417185-0.265482-0.227556-0.113777-0.113777-0.075852-0.037926s-0.075852-0.075852-24.196741 29.202963c-24.120889 29.240889-24.158815 29.202963-24.196741 29.202963l-0.075852-0.075852-0.113777-0.113778-0.303408-0.227556-0.644741-0.568888a43.804444 43.804444 0 0 1-4.778666-4.854519 64.549926 64.549926 0 0 1-7.698963-11.112296 77.217185 77.217185 0 0 1-9.178074-38.153482c0.265481-31.175111 16.421926-68.228741 56.661333-113.170963 25.182815-28.103111 27.685926-69.556148 19.114667-112.26074a313.723259 313.723259 0 0 0-21.238519-65.536 286.151111 286.151111 0 0 1-52.830815-56.50963c-27.496296-39.215407-52.944593-99.479704-28.444444-170.021926 13.425778-38.684444 0.948148-73.197037-18.962963-101.527704a210.185481 210.185481 0 0 0-42.477037-44.373333l-0.568889-0.379259 0.037926 0.037926z m0 0h-0.037926l-0.037926-0.037926h0.037926z" fill="#1B1B1B" opacity=".4" p-id="10762"></path><path d="M1142.935704 124.397037s113.777778 80.402963 75.851852 189.62963 75.851852 189.62963 75.851851 189.629629 74.714074 144.118519 0 227.555556-37.925926 113.777778-37.925926 113.777778" fill="#281F2C" opacity=".4" p-id="10763"></path><path d="M1121.014519 155.344593L1142.935704 124.397037c21.883259-30.985481 21.921185-30.947556 21.921185-30.947556l0.075852 0.075852 0.189629 0.113778 0.417186 0.303408a132.740741 132.740741 0 0 1 5.802666 4.437333 286.226963 286.226963 0 0 1 54.802963 58.102518c27.496296 39.177481 52.944593 99.479704 28.444445 169.984-13.425778 38.684444-0.948148 73.197037 18.962963 101.527704a210.261333 210.261333 0 0 0 42.514963 44.373333l0.530963 0.37926h0.037925l7.433482 5.271703 4.247704 8.192-33.678223 17.445926 33.678223-17.445926v0.037926l0.037926 0.075852 0.113777 0.151704 0.227556 0.493037 0.796444 1.592889 2.654815 5.537185a389.499259 389.499259 0 0 1 27.685926 84.574815c10.088296 50.176 12.591407 122.500741-36.939852 177.872592-34.474667 38.456889-37.281185 58.292148-37.319111 63.146667 0 1.251556 0.151704 1.782519 0.151704 1.782519s-0.075852-0.265481-0.379259-0.796445a11.719111 11.719111 0 0 0-1.40326-1.972148 21.807407 21.807407 0 0 0-2.123852-2.123852l-0.455111-0.417185-0.265481-0.227556-0.113778-0.113777-0.075852-0.037926s-0.075852-0.075852-24.196741 29.202963c-24.120889 29.240889-24.158815 29.202963-24.19674 29.202963l-0.075852-0.075852-0.113778-0.113778-0.303407-0.227556-0.644741-0.568888a43.804444 43.804444 0 0 1-4.778667-4.854519 64.549926 64.549926 0 0 1-7.698963-11.112296 77.217185 77.217185 0 0 1-9.178074-38.153482c0.265481-31.175111 16.421926-68.228741 56.661334-113.170963 25.182815-28.103111 27.685926-69.556148 19.07674-112.26074a313.723259 313.723259 0 0 0-21.200592-65.536 286.151111 286.151111 0 0 1-52.830815-56.50963c-27.496296-39.215407-52.944593-99.479704-28.444445-170.021926 13.425778-38.684444 0.948148-73.197037-18.962962-101.527704a210.185481 210.185481 0 0 0-42.477038-44.373333l-0.568888-0.379259 0.037926 0.037926z m0 0h-0.037926l-0.037926-0.037926h0.037926z" fill="#1B1B1B" opacity=".4" p-id="10764"></path></svg>