<?xml version="1.0" standalone="no"?><!DOCTYPE svg PUBLIC "-//W3C//DTD SVG 1.1//EN" "http://www.w3.org/Graphics/SVG/1.1/DTD/svg11.dtd"><svg t="1751354769778" class="icon" viewBox="0 0 1215 1024" version="1.1" xmlns="http://www.w3.org/2000/svg" p-id="16681" xmlns:xlink="http://www.w3.org/1999/xlink" width="237.3046875" height="200"><path d="M547.033167 367.54191s-1.828931 240.540963 1.828931 248.167604 234.8347 238.565718 250.106271 244.308561 50.569933 16.222615 79.192698 7.626641c27.671721-8.303345 336.870742-154.599511 336.870743-154.599511l-3.822465-223.294147-374.071193 145.052493z" fill="#603934" p-id="16682"></path><path d="M547.014878 367.596778l290.104985 267.188483 374.089482-145.052492L928.731001 260.714069l-381.716123 106.882709z" fill="#A55E50" p-id="16683"></path><path d="M73.998535 501.05385s-13.46093 240.047152-9.949382 247.856686 223.129543 249.521013 238.053617 256.050296 49.728625 18.618514 78.735466 11.412527c28.037507-6.968226 343.838968-138.303738 343.838968-138.303738l6.913358-223.385594-380.600475 127.000947z" fill="#603934" p-id="16684"></path><path d="M73.998535 500.980693l276.991552 280.777438L731.572273 654.757184 460.396721 412.478737 73.998535 500.980693z" fill="#A55E50" p-id="16685"></path><path d="M267.846898 112.716998s-10.29688 267.353087-6.30981 275.967351S514.459912 661.99975 531.249495 668.839951s55.690939 19.770741 87.788673 11.193055c31.091822-8.285056 379.850614-160.452089 379.850614-160.452088l3.346943-248.441944-420.891818 148.582328z" fill="#603934" p-id="16686"></path><path d="M267.846898 112.716998l313.497009 307.004304S980.489739 337.053636 1002.254014 271.138974C1011.801032 242.333315 745.63675 16.167747 695.944703 6.85849c-85.374484-15.984854-428.097805 105.858508-428.097805 105.858508z" fill="#A55E50" p-id="16687"></path><path d="M695.944703 6.85849c-15.180125-2.853132-38.590437-1.280251-66.682812 3.145761C696.438515 35.371519 962.566218 262.890496 952.653414 292.811802c-3.657861 11.229634-17.612602 22.898212-38.407544 34.603369 47.131544-18.636804 81.917805-38.096626 87.934987-56.276197C1011.801032 242.333315 745.63675 16.167747 695.944703 6.85849z" fill="#BC7B71" p-id="16688"></path></svg>