<?xml version="1.0" standalone="no"?><!DOCTYPE svg PUBLIC "-//W3C//DTD SVG 1.1//EN" "http://www.w3.org/Graphics/SVG/1.1/DTD/svg11.dtd"><svg t="1751351780907" class="icon" viewBox="0 0 1108 1024" version="1.1" xmlns="http://www.w3.org/2000/svg" p-id="9200" data-spm-anchor-id="a313x.search_index.0.i6.56a03a81HjmruG" xmlns:xlink="http://www.w3.org/1999/xlink" width="216.40625" height="200"><path d="M20.004241 1022.452286a6.077412 6.077412 0 0 1-8.103217 0c-6.077412-5.788012 6.077412-28.940059 35.885673-71.771347a4.630409 4.630409 0 0 1 6.945614 0 4.91981 4.91981 0 0 1 0 6.656214 353.936922 353.936922 0 0 0-31.834065 51.513305 132.25607 132.25607 0 0 0 28.940059-20.836843c6.366813-6.945614 33.281068-28.940059 64.536332-53.828509s76.401756-61.642326 81.610967-68.29854 1.736404-9.83962 0-18.521638a37.332676 37.332676 0 0 1 0-28.940059 55.564913 55.564913 0 0 0 0-39.937281 72.060747 72.060747 0 0 0-28.940059-7.813816c-8.392617 0-25.756653 13.312427-34.728071 21.994445a4.630409 4.630409 0 0 1-6.945614 0 4.91981 4.91981 0 0 1 0-6.656214c2.894006-2.604605 26.624854-25.467252 41.963085-24.88845a74.086551 74.086551 0 0 1 33.281068 8.392617 61.063525 61.063525 0 0 1 0 51.802705 28.940059 28.940059 0 0 0 1.447003 22.573246 28.940059 28.940059 0 0 1 0 27.203656 1003.351847 1003.351847 0 0 1-83.34737 70.324343c-28.940059 23.730848-57.880118 46.304094-63.378729 52.670908a140.359286 140.359286 0 0 1-28.940059 22.283845l-8.392617 5.498611z" fill="#8a8a8a" p-id="9201"></path><path d="M969.527577 409.212435a339.177492 339.177492 0 0 1-56.433115 27.493056l-20.258041 7.813816c-129.362064 49.1981-324.707462 123.574052-380.272376 157.723321a1988.182056 1988.182056 0 0 0-226.890063 188.110384c-14.47003 13.891228-26.624854 26.046053-37.043275 36.464475a272.036555 272.036555 0 0 1-41.963086 38.200878 4.91981 4.91981 0 0 1-6.656213-1.736404 5.209211 5.209211 0 0 1 2.604605-6.656214 291.715795 291.715795 0 0 0 39.35848-36.464474l37.043276-36.753875a2054.744191 2054.744191 0 0 1 228.626466-189.267986c56.433115-34.728071 252.357315-109.104023 382.008779-158.591524l20.258042-7.813815a299.529611 299.529611 0 0 0 187.242182-204.895618 106.499417 106.499417 0 0 0-23.441448-82.479169c-2.315205 39.937281-28.940059 60.195323-62.510528 86.820177-8.392617 6.366813-17.074635 13.312427-26.335453 21.126244-51.223904 43.410089-190.714989 98.975002-276.666965 118.07544A1428.481314 1428.481314 0 0 0 363.522741 520.921063a864.439563 864.439563 0 0 0-204.316817 182.032971l-22.283845 25.177851a234.414478 234.414478 0 0 0-57.880118 99.843204l-1.736404 5.209211a1001.615443 1001.615443 0 0 1-50.355702 106.210016c-5.498611 10.707822-9.83962 19.38984-12.444226 24.888451a30.676463 30.676463 0 0 0-4.341009 19.67924 192.451393 192.451393 0 0 1 54.407311-42.541887 147.3049 147.3049 0 0 0 35.885674-26.335453 4.630409 4.630409 0 0 1 6.945614 0 4.91981 4.91981 0 0 1 0 6.945614 144.700295 144.700295 0 0 1-38.779679 28.940059 180.585968 180.585968 0 0 0-50.066302 37.332676 9.83962 9.83962 0 0 1-13.312428 4.051608c-5.788012-3.762208-8.103217-15.048831 0-32.412866 2.604605-5.498611 7.235015-14.47003 12.733626-25.177851a1032.291906 1032.291906 0 0 0 49.776902-104.473613l1.736403-5.498612a241.938894 241.938894 0 0 1 59.905923-103.31601c6.656214-7.235015 13.891228-15.917032 21.994445-25.177852a869.938175 869.938175 0 0 1 202.580413-182.901173l3.183406-2.315204a1427.902513 1427.902513 0 0 1 347.280709-153.382313c84.794373-18.811038 222.259653-73.797151 272.325955-115.760236l26.335454-21.415644c37.332676-28.940059 61.931726-48.9087 57.880118-93.18699a4.051608 4.051608 0 0 1 2.894006-4.63041 4.91981 4.91981 0 0 1 5.498611 0 124.442254 124.442254 0 0 1 34.728071 101.290207 298.95081 298.95081 0 0 1-137.465281 184.637577z" fill="#8a8a8a" p-id="9202"></path><path d="M228.372666 777.040585a2.315205 2.315205 0 0 1-2.315205-4.051608c4.051608-2.315205 17.364035-11.286623 18.521638-21.994445a32.123466 32.123466 0 0 0-7.524416-25.756653c-4.341009-6.077412-12.444225-20.836843-16.206433-28.940059a86.820177 86.820177 0 0 0-6.077412 68.877341 2.315205 2.315205 0 0 1 0 3.183406 2.315205 2.315205 0 0 1-2.894006 0 90.292984 90.292984 0 0 1 8.103216-77.559358 2.315205 2.315205 0 0 1 3.183407 0s12.733626 24.020249 18.232237 31.834065a36.464474 36.464474 0 0 1 8.103217 28.940059c0 12.733626-15.627632 22.573246-20.547442 25.467252z" fill="#8a8a8a" p-id="9203"></path><path d="M101.036406 774.72538h-2.025804a4.630409 4.630409 0 0 1-5.498612-3.762207c0-2.315205-8.392617-57.880118 59.905923-134.281874 7.813816-8.682018 15.338231-17.653436 23.152047-26.624855 62.221127-71.771346 132.54547-153.092912 247.726905-202.580413 103.605411-44.857092 216.471642-82.479168 270.878953-100.422005l30.387062-10.12902 92.029387-31.834065 43.69949-15.048831a707.005642 707.005642 0 0 0 193.608995-115.760236c0-44.27829-41.963086-75.244153-135.728877-97.8174-74.375952-17.653436-188.110384 48.619299-289.400591 112.287429a694.561417 694.561417 0 0 1-250.620911 109.972225C310.273033 270.589552 202.616013 347.280708 202.616013 347.280708a4.630409 4.630409 0 0 1-6.656214 0 4.91981 4.91981 0 0 1 0-6.656213A678.065583 678.065583 0 0 1 439.924497 217.050443a485.614191 485.614191 0 0 0 64.825732-23.441448 1157.602361 1157.602361 0 0 0 115.760236-69.456142c39.35848-25.756653 80.163964-52.381507 123.863453-76.691156A340.624495 340.624495 0 0 1 951.874141 2.315205c26.914255 3.472807 113.445031 37.043276 130.230266 81.610966a43.410089 43.410089 0 0 1-9.550219 46.014694C1020.751482 190.425588 892.54702 249.752709 864.764564 260.460531l-43.98889 15.048831-92.029388 31.834065-30.676462 10.997222c-54.11791 17.942837-166.69474 55.275513-270.010751 99.843204-113.155631 48.9087-182.611772 129.362064-243.964698 200.265209l-23.152047 26.624854c-64.825732 73.50775-57.880118 125.599856-57.880118 126.178657a4.630409 4.630409 0 0 1-2.025804 3.472807zM661.026548 118.364841c92.897589-57.880118 191.29379-107.65702 260.460531-91.161186 59.327121 14.180629 136.307678 39.647881 142.963892 97.238599a34.14927 34.14927 0 0 0 8.682018-37.622077C1057.794757 47.172296 975.315589 15.338231 950.716539 11.865424a332.231878 332.231878 0 0 0-202.580413 44.278291c-43.410089 24.020249-83.926171 50.645103-123.284652 76.401755a1261.207773 1261.207773 0 0 1-115.760236 70.034943 469.697158 469.697158 0 0 1-66.272735 23.730849c-20.258041 6.366813-43.410089 13.312427-68.877341 23.152047h3.472808a686.747601 686.747601 0 0 0 248.016305-108.235821l35.596273-22.283845z" fill="#8a8a8a" p-id="9204"></path><path d="M1025.960693 171.325149a4.630409 4.630409 0 0 1-6.656214-2.025804 4.91981 4.91981 0 0 1 0-6.077412 8.392617 8.392617 0 0 0 3.472807-8.971418c-1.736404-14.75943-23.441448-40.516083-79.874563-64.246931-77.848759-32.991667-158.880924 10.997222-252.936116 61.931726a1277.993007 1277.993007 0 0 1-252.067914 91.739987 4.91981 4.91981 0 0 1-5.788012-3.762208 4.91981 4.91981 0 0 1 3.472807-5.788011A1283.491618 1283.491618 0 0 0 686.4938 144.700295c96.080996-52.092106 179.138965-97.238598 260.460531-62.510527 60.195323 25.467252 83.926171 53.82851 86.820177 72.060747a18.811038 18.811038 0 0 1-7.235014 18.232237z m-918.557474 723.501476A24.020249 24.020249 0 1 1 115.795836 862.124359a24.020249 24.020249 0 0 1-8.392617 32.991667z m-22.573246-36.753875a19.100439 19.100439 0 0 0-6.077413 26.335454 19.100439 19.100439 0 0 0 32.412866-19.968641 19.100439 19.100439 0 0 0-26.335453-6.077412z m34.728071-114.023832a2.604605 2.604605 0 0 1-3.472808 0 383.745183 383.745183 0 0 1 0-44.857092 2.604605 2.604605 0 0 1 2.894006-2.025804 2.604605 2.604605 0 0 1 2.025805 2.604605 354.805124 354.805124 0 0 0 0 43.69949s-0.578801 0.578801-1.447003 0.868201zM138.947883 723.501476a2.604605 2.604605 0 0 1-3.183406-1.736404 173.640354 173.640354 0 0 1-4.63041-49.487501 2.315205 2.315205 0 0 1 2.894006-2.025804 2.315205 2.315205 0 0 1 2.025804 2.315205 158.591524 158.591524 0 0 0 4.63041 48.040498 2.604605 2.604605 0 0 1 0 2.604605z m18.521638-21.126243a2.604605 2.604605 0 0 1-3.183407-1.447003 93.18699 93.18699 0 0 1-2.604605-56.143715 2.604605 2.604605 0 0 1 3.183407-1.736403 2.604605 2.604605 0 0 1 1.736403 2.894006 91.739987 91.739987 0 0 0 2.025804 52.960308 2.604605 2.604605 0 0 1-1.157602 2.025804z m25.467252-28.940059a2.894006 2.894006 0 0 1-3.472807 0 80.742765 80.742765 0 0 1-8.971419-49.198101 3.183406 3.183406 0 0 1 3.183407-4.630409 2.604605 2.604605 0 0 1 2.315205 2.894006 72.350148 72.350148 0 0 0 8.392617 46.014694 2.894006 2.894006 0 0 1 0 3.472807z m24.309649-26.335454a2.315205 2.315205 0 0 1-3.183406 0H202.616013a102.447809 102.447809 0 0 1-10.418421-48.9087 2.604605 2.604605 0 0 1 2.894006-2.025804 2.025804 2.025804 0 0 1 2.025804 2.604605 98.685601 98.685601 0 0 0 9.83962 46.304095 2.315205 2.315205 0 0 1 0.2894 0.578801z m25.756653-26.335454a2.604605 2.604605 0 0 1-3.472807 0 76.401756 76.401756 0 0 1-7.235015-55.275512 2.315205 2.315205 0 0 1 3.183407-1.447003 2.315205 2.315205 0 0 1 0 2.894005 73.218349 73.218349 0 0 0 6.945614 51.513306 2.894006 2.894006 0 0 1 0.578801 0.868201z m28.940059-26.624854a2.604605 2.604605 0 0 1-3.183406 0 69.456142 69.456142 0 0 1-7.524416-57.880118 2.315205 2.315205 0 1 1 4.63041 0 68.298539 68.298539 0 0 0 6.656213 54.696711 2.315205 2.315205 0 0 1 0 3.183407z m30.965863-26.046053a2.604605 2.604605 0 0 1-3.183406 0 65.115133 65.115133 0 0 1-10.129021-59.905922 2.604605 2.604605 0 0 1 3.183407-1.736404 2.315205 2.315205 0 0 1 1.736403 2.894006 60.774124 60.774124 0 0 0 8.971418 55.564913 2.604605 2.604605 0 0 1 0 3.472807z m28.940059-22.573246a2.894006 2.894006 0 0 1-3.472807 0 81.032165 81.032165 0 0 1-6.945614-64.536332 2.315205 2.315205 0 1 1 4.630409 1.447003 79.295762 79.295762 0 0 0 6.366813 60.484723 2.025804 2.025804 0 0 1 0 3.183407z m34.43867-24.59905a2.604605 2.604605 0 0 1-3.183406 0 69.745542 69.745542 0 0 1 3.472807-74.086552 2.604605 2.604605 0 0 1 3.472807 0 2.025804 2.025804 0 0 1 0 3.183407 63.95753 63.95753 0 0 0-3.762208 68.58794v3.472807z m35.017472-20.547442a2.894006 2.894006 0 0 1-3.472807 0 65.404533 65.404533 0 0 1 8.682018-76.112356 2.604605 2.604605 0 0 1 3.472807 0 2.604605 2.604605 0 0 1 0 3.472808 59.905922 59.905922 0 0 0-8.392618 70.324343 2.025804 2.025804 0 0 1 0 3.183406z m34.728071-19.38984a2.315205 2.315205 0 0 1-3.183407 0s-19.67924-30.965863 11.286623-75.822955a2.315205 2.315205 0 0 1 3.472807 0 2.604605 2.604605 0 0 1 0 3.472808c-28.940059 41.094884-13.312427 67.719738-12.444225 68.87734a2.315205 2.315205 0 0 1 0 3.472807z m38.779679-20.258041a2.315205 2.315205 0 0 1-2.894006-1.736404 109.972224 109.972224 0 0 1 6.945614-67.140937 2.315205 2.315205 0 0 1 3.183407 0 2.315205 2.315205 0 0 1 1.447003 3.183407 107.65702 107.65702 0 0 0-6.656214 63.66813 2.025804 2.025804 0 0 1-2.025804 2.315204z m47.751097-23.152047a2.025804 2.025804 0 0 1-3.183406 0 59.327121 59.327121 0 0 1 9.550219-64.536332 2.315205 2.315205 0 1 1 3.762208 2.894006 54.407311 54.407311 0 0 0-8.971418 57.880118 2.315205 2.315205 0 0 1-1.157603 4.051608z m46.014694-20.547442a2.315205 2.315205 0 0 1-2.894006 0s-17.942837-20.836843 6.077413-60.195323a2.894006 2.894006 0 0 1 3.472807 0 2.315205 2.315205 0 0 1 0 3.472807c-22.283845 36.175074-7.524415 53.539109-6.945614 54.407311a2.604605 2.604605 0 0 1 0 3.472807z m36.464474-15.338232a2.315205 2.315205 0 0 1-2.894005-1.447003 74.375952 74.375952 0 0 1 6.077412-57.880118 2.025804 2.025804 0 0 1 3.183406 0 2.315205 2.315205 0 0 1 0 3.183407 70.903145 70.903145 0 0 0-5.788011 52.960308 2.894006 2.894006 0 0 1 0 2.894006z m39.358481-15.04883a2.315205 2.315205 0 0 1-3.183407 0 54.986112 54.986112 0 0 1 12.733626-57.880118 2.604605 2.604605 0 1 1 3.762208 3.183406 50.934504 50.934504 0 0 0-10.997222 52.092106 2.315205 2.315205 0 0 1-2.315205 2.894006z m45.146492-14.75943a2.315205 2.315205 0 0 1-3.183407 0 55.854314 55.854314 0 0 1 10.129021-57.880118 2.315205 2.315205 0 0 1 3.472807 0 2.315205 2.315205 0 0 1 0 3.472807 50.934504 50.934504 0 0 0-9.550219 52.670907 2.315205 2.315205 0 0 1-0.868202 2.025804z m45.725293-11.576024a2.894006 2.894006 0 0 1-3.472807 0 52.092106 52.092106 0 0 1 3.472807-57.880118 2.315205 2.315205 0 0 1 3.472807 0 2.315205 2.315205 0 0 1 0 3.183406 46.014694 46.014694 0 0 0-2.894006 53.82851 2.894006 2.894006 0 0 1 0 3.472807z m43.410089-12.444225a3.183406 3.183406 0 0 1-3.183407 0 47.461697 47.461697 0 0 1-2.894006-60.484724 2.315205 2.315205 0 0 1 3.183407 0 2.604605 2.604605 0 0 1 0 3.472807 41.963086 41.963086 0 0 0 2.315205 54.117911 2.315205 2.315205 0 0 1 0 3.472807z m32.123465-10.997223a2.604605 2.604605 0 0 1-3.183406-1.447003 83.34737 83.34737 0 0 1 5.20921-61.931726 2.315205 2.315205 0 0 1 3.183407 0 2.315205 2.315205 0 0 1 0 3.183406 80.742765 80.742765 0 0 0-4.91981 57.880118 2.315205 2.315205 0 0 1-0.289401 2.604606z m34.14927-12.733626a2.894006 2.894006 0 0 1-3.472807 0 63.66813 63.66813 0 0 1 4.341009-61.352925 2.604605 2.604605 0 0 1 4.341009 2.604605 59.905922 59.905922 0 0 0-4.341009 56.433115 2.315205 2.315205 0 0 1 0 3.183407z m43.120688-17.653436a2.315205 2.315205 0 0 1-3.183407 0 66.562136 66.562136 0 0 1 0-57.880118 2.025804 2.025804 0 0 1 3.183407 0 2.025804 2.025804 0 0 1 0 3.183407 63.089329 63.089329 0 0 0 0 52.960308 2.315205 2.315205 0 0 1 0 3.183406z m40.226682-19.100439a2.604605 2.604605 0 0 1-3.472807 0A63.378729 63.378729 0 0 1 908.753453 231.520472a2.315205 2.315205 0 1 1 4.341009 2.025804 57.880118 57.880118 0 0 0 6.077413 49.487501 2.894006 2.894006 0 0 1 0 3.472807z m30.387062-16.495833a2.604605 2.604605 0 0 1-3.183407 0 53.82851 53.82851 0 0 1-2.025804-55.854314 2.315205 2.315205 0 0 1 3.472807 0 2.025804 2.025804 0 0 1 0 3.183406 47.751097 47.751097 0 0 0 1.736404 50.645103 2.604605 2.604605 0 0 1 0 3.472808z m31.834065-21.705045a2.604605 2.604605 0 0 1-3.472807 0 57.880118 57.880118 0 0 1-4.051609-50.645103 2.315205 2.315205 0 0 1 4.341009 2.025804 54.11791 54.11791 0 0 0 4.051609 46.304095 2.315205 2.315205 0 0 1 0 3.183406z m28.940059-23.152047a2.894006 2.894006 0 0 1-3.472807 0 55.854314 55.854314 0 0 1-4.91981-44.857091 2.315205 2.315205 0 0 1 3.183406 0 2.604605 2.604605 0 0 1 1.447003 3.183406 50.934504 50.934504 0 0 0 4.63041 40.516083 2.894006 2.894006 0 0 1 0 3.472807z" fill="#8a8a8a" p-id="9205"></path><path d="M1032.906307 206.921422a2.315205 2.315205 0 0 1-2.894006-2.025804 113.734432 113.734432 0 0 1 2.604605-47.751097 2.604605 2.604605 0 0 1 3.183407-1.736404 2.315205 2.315205 0 0 1 1.736403 2.894006 114.023833 114.023833 0 0 0-2.894006 45.725293 2.604605 2.604605 0 0 1-1.736403 2.894006z m28.940059-32.123465a2.315205 2.315205 0 0 1-2.894006-1.736404 180.007167 180.007167 0 0 1-6.077413-30.676463 2.315205 2.315205 0 0 1 2.025805-2.604605 2.315205 2.315205 0 0 1 2.894005 2.025804 212.420033 212.420033 0 0 0 5.788012 28.940059 2.025804 2.025804 0 0 1 0 2.604606z m-6.366813-68.877341a2.604605 2.604605 0 0 1-3.472807 0v-3.183406s16.495834-9.83962 9.550219-36.464475a2.604605 2.604605 0 0 1 1.736404-2.894006 2.894006 2.894006 0 0 1 3.183406 1.736404 35.885673 35.885673 0 0 1-11.865424 41.963085z m-17.364036-21.994445a2.894006 2.894006 0 0 1-3.472807 0 2.604605 2.604605 0 0 1 0-3.183406A28.940059 28.940059 0 0 0 1041.877725 48.329899a2.604605 2.604605 0 0 1 0-3.183407 2.604605 2.604605 0 0 1 3.183406 1.447003 32.991667 32.991667 0 0 1-8.682017 37.043276z m-26.335453-18.521638a2.315205 2.315205 0 0 1-3.472808 0 2.315205 2.315205 0 0 1 0-2.894005s14.47003-13.891228 10.129021-28.94006a2.315205 2.315205 0 0 1 1.736404-2.894005 2.025804 2.025804 0 0 1 2.894006 1.447003 35.306872 35.306872 0 0 1-11.576024 32.991667z m-21.705045-10.12902a2.604605 2.604605 0 0 1-3.472807 0 2.315205 2.315205 0 0 1 0-2.894006 28.940059 28.940059 0 0 0 2.604606-31.834065 2.315205 2.315205 0 0 1 0-3.183407 2.604605 2.604605 0 0 1 3.472807 0 34.43867 34.43867 0 0 1-4.341009 36.464475s0.578801 1.157602 0.578801 1.447003z m-26.046053-9.55022a2.604605 2.604605 0 0 1-3.472807 0 2.315205 2.315205 0 0 1 0-2.894006 38.779679 38.779679 0 0 0 7.235015-28.940059 2.315205 2.315205 0 0 1 1.447003-3.183406 2.604605 2.604605 0 0 1 3.183406 1.736403 42.252486 42.252486 0 0 1-8.103216 34.438671l-1.447003-1.157603z m-30.676462-8.971418a2.025804 2.025804 0 0 1-3.183407 0 2.315205 2.315205 0 0 1 0-3.472807 22.862647 22.862647 0 0 0 3.472807-26.335454 2.315205 2.315205 0 0 1 0-3.183406 2.315205 2.315205 0 0 1 3.183407 1.447003 28.940059 28.940059 0 0 1-4.91981 32.123465z m-23.730849-4.91981a2.604605 2.604605 0 0 1-3.472807 0 2.315205 2.315205 0 0 1 0-2.894006 17.653436 17.653436 0 0 0 1.447003-21.705044 2.894006 2.894006 0 0 1 0-3.472807 2.315205 2.315205 0 0 1 3.183407 0 22.862647 22.862647 0 0 1-2.315205 28.940059z m-22.862646 0a2.315205 2.315205 0 0 1-3.183407 0 2.315205 2.315205 0 0 1 0-2.315205c2.315205-4.051608 7.235015-15.338231 4.051608-20.547442a2.315205 2.315205 0 0 1 0-3.472807 2.604605 2.604605 0 0 1 3.472807 0c5.498611 8.682018-2.894006 23.730848-3.762207 25.467252z m-20.547442 2.315205a2.315205 2.315205 0 0 1-2.315205 0 2.315205 2.315205 0 0 1 0-3.183407A31.834065 31.834065 0 0 0 859.555353 11.576024a2.894006 2.894006 0 0 1 0-3.472807 2.315205 2.315205 0 0 1 3.183407 0c6.945614 15.627632 4.341009 22.573246 4.051608 23.152047z m-26.914255 5.788011a2.604605 2.604605 0 0 1-3.472807-3.183406s7.235015-14.180629 0-19.67924A2.604605 2.604605 0 0 1 839.297312 13.312427c9.260819 8.392617 0 24.888451 0 25.467252z m-21.994445 7.235015a2.604605 2.604605 0 0 1-3.472807 0 2.315205 2.315205 0 0 1 0-2.604605 16.495834 16.495834 0 0 0-3.472807-20.258041 2.604605 2.604605 0 1 1 2.894006-3.762208 21.994445 21.994445 0 0 1 3.183406 25.467252z m-21.994445 8.392617a2.315205 2.315205 0 0 1-2.025804 0 2.604605 2.604605 0 0 1-1.736404-2.894006 19.968641 19.968641 0 0 0-4.630409-19.67924 2.604605 2.604605 0 0 1 0-3.472807 3.183406 3.183406 0 0 1 3.183406 0 25.756653 25.756653 0 0 1 6.366813 24.30965z m-24.020249 10.997223a2.894006 2.894006 0 0 1-3.472807 0 4.91981 4.91981 0 0 1 0-2.025804 23.152047 23.152047 0 0 0-3.472807-20.258042 2.315205 2.315205 0 0 1 0-3.472807 2.604605 2.604605 0 0 1 3.183406 0 28.940059 28.940059 0 0 1 4.63041 24.888451z m-28.940059 14.75943a2.604605 2.604605 0 0 1-3.472807 0v-1.736404a26.335454 26.335454 0 0 0-4.051608-18.811038 2.315205 2.315205 0 0 1 0-3.472807 2.315205 2.315205 0 0 1 3.183406 0 32.702267 32.702267 0 0 1 5.209211 23.152047 2.894006 2.894006 0 0 1 0 1.447003z m-25.467252 13.891228a2.025804 2.025804 0 0 1-3.183406 0 41.094884 41.094884 0 0 0-4.051609-18.811038 2.315205 2.315205 0 0 1 0-3.472807 2.315205 2.315205 0 0 1 3.472807 0 40.805483 40.805483 0 0 1 4.63041 21.415643 2.025804 2.025804 0 0 1-3.183407 0.868202z m-28.940059 17.653436a2.604605 2.604605 0 0 1-3.472807 0v-2.315204a17.942837 17.942837 0 0 0 0-18.811039 2.604605 2.604605 0 0 1 0-3.472807 2.315205 2.315205 0 0 1 3.472807 0 22.862647 22.862647 0 0 1 0 24.020249z m-27.203655 16.785234a2.604605 2.604605 0 0 1-3.472808 0 2.315205 2.315205 0 0 1 0-2.894005s8.682018-11.286623 2.315205-19.679241a2.315205 2.315205 0 0 1 0-3.472807 2.315205 2.315205 0 0 1 3.183407 0c8.682018 11.286623-2.315205 25.177851-2.604606 25.756653l-2.894006 0.2894z m-26.046054 15.627632a2.315205 2.315205 0 0 1-3.472807 0 2.894006 2.894006 0 0 1 0-2.604605 24.020249 24.020249 0 0 0 4.051609-20.258041 2.315205 2.315205 0 0 1 0-3.183407 2.315205 2.315205 0 0 1 3.183406 0 27.203655 27.203655 0 0 1-4.630409 25.467252h-2.604606z m-20.547442 12.733626a2.604605 2.604605 0 0 1-3.472807 0 3.762208 3.762208 0 0 1 0-1.736403 113.734432 113.734432 0 0 0 3.762208-21.126243 2.604605 2.604605 0 0 1 2.604605-2.604606 2.315205 2.315205 0 0 1 2.315205 2.315205 99.553803 99.553803 0 0 1-4.051608 22.573246 1.447003 1.447003 0 0 1-4.63041 0.578801zM584.335392 173.640354a2.315205 2.315205 0 0 1-3.472807 0 2.604605 2.604605 0 0 1 0-2.894006 26.914255 26.914255 0 0 0 4.341008-19.389839 2.315205 2.315205 0 0 1 1.736404-2.894006 2.315205 2.315205 0 0 1 2.894006 1.736403 32.123466 32.123466 0 0 1-4.91981 23.441448z m-28.940059 15.627632a2.894006 2.894006 0 0 1-3.472807 0 2.894006 2.894006 0 0 1 0-2.604605 41.094884 41.094884 0 0 0 7.235014-19.67924 2.604605 2.604605 0 0 1 2.025804-2.894006 2.315205 2.315205 0 0 1 2.604606 2.315204 41.094884 41.094884 0 0 1-8.103217 23.152048z m-32.702267 16.785234a2.604605 2.604605 0 0 1-3.472807 0A2.604605 2.604605 0 0 1 520.956662 202.580413a35.306872 35.306872 0 0 0 10.129021-19.100439 2.894006 2.894006 0 0 1 2.894006-2.315204 2.315205 2.315205 0 0 1 2.025804 2.894005 40.226682 40.226682 0 0 1-11.576024 21.994445z m-35.885673 16.495834a2.315205 2.315205 0 0 1-3.183407 0 2.315205 2.315205 0 0 1 0-3.183407c4.341009-3.472807 15.338231-13.601828 15.917033-19.67924a2.315205 2.315205 0 0 1 2.604605-2.315204 2.604605 2.604605 0 0 1 2.315205 2.315204c0 9.260819-15.917032 21.415644-17.653436 22.862647zM465.97055 231.520472a2.315205 2.315205 0 0 1-2.894006 0 2.025804 2.025804 0 0 1 0-2.604605s8.971418-13.312427 12.733626-19.67924a2.604605 2.604605 0 0 1 3.472807 0 2.315205 2.315205 0 0 1 0 3.183406c-3.762208 6.366813-12.444225 19.38984-13.023026 19.968641z m-24.020249 8.392617a2.315205 2.315205 0 0 1-3.472807 0 2.604605 2.604605 0 0 1 0-3.183406 104.184213 104.184213 0 0 0 15.627632-20.547442 2.604605 2.604605 0 0 1 3.183406 0 2.894006 2.894006 0 0 1 0 3.183406 125.889257 125.889257 0 0 1-16.785234 22.283846z m-18.521638 5.788012a2.894006 2.894006 0 0 1-3.472807 0 2.315205 2.315205 0 0 1 0-2.894006 70.324343 70.324343 0 0 0 9.55022-18.521637 2.604605 2.604605 0 0 1 2.894006-1.736404 2.315205 2.315205 0 0 1 1.736403 2.894006 67.430338 67.430338 0 0 1-10.418421 20.258041z m-28.940059 6.945614a2.604605 2.604605 0 0 1-3.472807 0 2.604605 2.604605 0 0 1 0-3.183406A39.647881 39.647881 0 0 0 405.196426 231.520472a2.315205 2.315205 0 0 1 2.894006 0 2.894006 2.894006 0 0 1 1.736404 2.894006 47.172296 47.172296 0 0 1-13.601828 19.38984z m-23.730848 4.63041a2.025804 2.025804 0 0 1-3.183407 0 2.025804 2.025804 0 0 1 0-2.604606 103.316011 103.316011 0 0 0 8.682018-13.023026 2.604605 2.604605 0 1 1 4.63041 1.736403 75.822955 75.822955 0 0 1-8.971419 13.312428z" fill="#8a8a8a" p-id="9206"></path></svg>