<?xml version="1.0" standalone="no"?><!DOCTYPE svg PUBLIC "-//W3C//DTD SVG 1.1//EN" "http://www.w3.org/Graphics/SVG/1.1/DTD/svg11.dtd"><svg t="1751351132815" class="icon" viewBox="0 0 1275 1024" version="1.1" xmlns="http://www.w3.org/2000/svg" p-id="3229" xmlns:xlink="http://www.w3.org/1999/xlink" width="249.0234375" height="200"><path d="M491.465407 539.151985s-38.215437-33.086958-77.919787-39.166687a65.884406 65.884406 0 0 0-34.575872 3.019185c-48.389676 19.149077-4.13587 103.893049-4.135869 103.893049S438.402197 554.206551 491.465407 539.151985z" fill="#DD5E1B" p-id="3230"></path><path d="M413.586978 499.985298a115.018539 115.018539 0 0 1-10.050163-64.767721c5.08712-36.891958 0.785815-64.685003-57.447231-50.788481s-50.788481 97.978755 11.539076 144.259139c13.234783-21.258371 9.140272-30.191849 55.958318-28.702937z" fill="#DD5E1B" p-id="3231"></path><path d="M400.807141 394.313825s35.56848-9.305707 39.125328-53.766307S483.896765 184.087564 483.896765 184.087564a133.464518 133.464518 0 0 0-27.710328-107.532614c-0.454946 37.512339-25.435599 91.361364-51.532937 106.498647S362.302193 233.718002 363.956541 245.422513c-1.158044-7.279131-82.014298 12.655762-38.504948 149.098106 57.81946-29.736904 75.355547-0.206793 75.355548-0.206794z" fill="#DD5E1B" p-id="3232"></path><path d="M363.956541 242.444687s-22.044186-37.222828-14.227392-139.006584-42.682176 33.707339-42.682176 33.707339S275.035341 217.050446 323.921322 272.967406c11.869946-15.840381 12.324892-23.82261 40.035219-30.522719zM312.134093 693.213135c-116.2593 36.643806-125.647724-5.459348-125.647724-5.459348s-14.103316-37.222828 26.759077-55.91696 141.198594-4.75625 141.198595-4.75625c10.505109-10.835979-42.309948 66.132558-42.309948 66.132558z" fill="#DD5E1B" p-id="3233"></path><path d="M290.793005 738.707702c-107.532614 56.289188-122.876691 23.284947-122.876692 23.284947s-19.107718-27.95848 17.908316-52.442829 136.483703-35.320328 136.483703-35.320328c8.56125-11.456359-31.515328 64.47821-31.515327 64.47821zM224.122784 628.031827s-81.476635-42.185872-80.732179-84.247668c0 0 11.456359-33.748697-31.515327-22.20962s-31.76348 77.464841-18.694132 87.928591C105.960984 631.464599 153.73028 665.875035 181.978271 661.408296c0 0 12.986631-26.717719 42.144513-33.376469z" fill="#DD5E1B" p-id="3234"></path><path d="M140.619573 523.352963l42.309948-94.628701s-48.182883-17.16386-81.3112 42.103154-5.748859 59.473808-5.748859 59.473808 25.228806-20.265762 44.750111-6.948261zM180.241205 713.602973S99.260875 657.892807 56.620057 677.290036s27.544893 114.067289 106.788158 72.295004c0.372228-12.118098 1.654348-26.510925 16.83299-35.982067z" fill="#DD5E1B" p-id="3235"></path><path d="M73.866634 673.03009s-21.092936-39.580274-23.243588-54.841633S28.951088 583.15764 11.166848 624.268185s15.923099 68.159134 32.218426 73.039461c5.335272-16.460762 8.809403-20.927501 30.48136-24.277556zM299.602407 736.970637s-5.997011 45.122339 1.654348 72.046852-100.749788 39.993861-115.432126 22.499131-15.923099-48.637829 17.660164-60.549133a316.848984 316.848984 0 0 0 96.117614-33.99685z" fill="#DD5E1B" p-id="3236"></path><path d="M177.842401 794.086999s-115.432126-23.657175-115.804354 53.9731 121.511854-18.776849 121.511854-18.776848S172.217618 810.630478 177.842401 794.086999zM86.439679 878.748253s-1.199402 69.813482-32.42522 42.88897S62.038047 848.060099 62.038047 848.060099s-0.868533 28.992447 24.401632 30.688154zM304.979038 823.823902s-72.874026 8.478533-23.739893 84.164951c30.067773 31.184458 58.894786-13.896522 58.894786-13.896523s-27.751686-35.320328-35.154893-70.268428z" fill="#DD5E1B" p-id="3237"></path><path d="M264.90246 870.311079S177.842401 876.804394 162.581041 934.706571s108.483864 19.314512 118.699463-26.67636c-10.256957-18.487338-10.050164-13.731088-16.378044-37.719132zM162.581041 934.706571s-59.432449 8.519892-69.110384 43.343916c24.070762-2.357446 49.630437 20.058968 82.717396-12.821197-10.132881-8.437174-19.68674-6.98962-13.607012-30.522719z" fill="#DD5E1B" p-id="3238"></path><path d="M303.642917 820.631447a260.270286 352.913769 79.03 1 0 692.92992-134.315445 260.270286 352.913769 79.03 1 0-692.92992 134.315445Z" fill="#DD5E1B" p-id="3239"></path><path d="M609.999435 581.792803m-21.465165 0a21.465164 21.465164 0 1 0 42.930329 0 21.465164 21.465164 0 1 0-42.930329 0Z" fill="#231815" p-id="3240"></path><path d="M690.731613 560.327638m-21.465164 0a21.465164 21.465164 0 1 0 42.930328 0 21.465164 21.465164 0 1 0-42.930328 0Z" fill="#231815" p-id="3241"></path><path d="M770.5539 496.635244s32.756089-38.42223 71.054242-50.623046a65.388101 65.388101 0 0 1 34.617231-2.274729c50.747122 11.497718 20.141686 101.94919 20.141685 101.94919s-71.13696-42.434024-125.813158-49.051415z" fill="#DD5E1B" p-id="3242"></path><path d="M841.608142 446.012198a114.687669 114.687669 0 0 0 0-65.553537c-10.629185-35.651198-10.629185-63.775112 49.010057-58.977503s65.181308 89.086635 10.629186 144.341856c-16.171251-19.149077-13.64837-28.454784-59.639243-19.810816z" fill="#DD5E1B" p-id="3243"></path><path d="M838.051294 339.637627s-36.561089-3.763642-46.859404-46.983481S723.984006 144.755442 723.984006 144.755442a133.464518 133.464518 0 0 1 10.960055-110.427723c6.162446 37.222828 39.083969 86.39832 67.207884 97.358375s49.382285 43.550709 49.382285 55.379296c0-7.361848 83.006907 0 60.838645 141.488106-61.500384-20.803425-74.32158 11.084131-74.321581 11.084131z" fill="#DD5E1B" p-id="3244"></path><path d="M851.20336 183.922129s16.129892-40.076578-7.196413-139.544246 47.31435 26.759078 47.31435 26.759077 43.881578 74.073428 4.13587 136.690497c-14.144675-13.689729-15.799023-21.506523-44.253807-23.905328zM971.350378 621.455794c120.477887 18.445979 123.331637-24.608425 123.331637-24.608425s8.27174-39.083969-34.989459-51.16071-140.247344 16.791631-140.247344 16.791632c-12.07674-9.181631 51.905166 58.977503 51.905166 58.977503z" fill="#DD5E1B" p-id="3245"></path><path d="M999.391575 663.145361c115.018539 39.208046 124.985985 4.13587 124.985985 4.13587s14.59962-30.564078-25.72511-49.134133-140.288703-13.97924-140.288703-13.97924c-10.256957-9.926087 41.027828 58.977503 41.027828 58.977503zM1048.360273 543.577366s74.073428-54.138535 66.877014-95.579951c0 0-16.543479-31.598045 27.793045-26.759077s43.219839 71.715982 31.887556 84.040874c-9.264348 23.657175-51.202068 64.80908-79.615493 64.809079 0 0-17.081142-24.401632-46.942122-26.510925z" fill="#DD5E1B" p-id="3246"></path><path d="M1114.947777 427.400784L1058.782665 340.299366s45.039622-24.318914 86.853265 29.199241 14.765055 57.902177 14.765056 57.902177-28.247991-16.171251-45.453209 0zM1104.814896 621.455794S1176.324084 554.206551 1221.405065 566.614161s-9.760653 116.87968-94.463266 87.763156c-2.23337-11.869946-5.7075-25.72511-22.126903-32.921523z" fill="#DD5E1B" p-id="3247"></path><path d="M1203.538107 565.083889s14.806414-42.309948 14.599621-57.902177 16.295327-38.050002 39.952502 0-5.335272 69.772123-20.679349 77.051254c-7.61-15.26136-11.74587-19.149077-33.872774-19.149077zM990.416737 662.814492s12.862555 43.674785 9.388425 71.426471 105.671473 24.112121 117.50006 4.590815 8.27174-50.49897-26.717718-57.15772a317.097136 317.097136 0 0 1-100.170767-18.859566z" fill="#DD5E1B" p-id="3248"></path><path d="M1119.373157 700.533624s110.593158-40.945111 122.91805 35.692556-122.91805 0-122.91805 0 8.230381-19.976251 0-35.692556zM1222.769902 770.305747s11.828588 68.820873 38.546306 37.429622-19.025001-71.509189-19.025001-71.509189 5.169837 28.537502-19.521305 34.079567zM998.398966 749.460964s73.287613-2.771033 36.271578 79.532776c-24.815219 35.403045-60.300981-4.75625-60.300981-4.756251s22.044186-39.125328 24.029403-74.776525z" fill="#DD5E1B" p-id="3249"></path><path d="M1045.092936 789.248031s86.853265-6.865544 110.965386 47.97609-104.265277 35.692556-121.387778-8.27174c7.32049-19.769458 7.816794-15.013207 10.422392-39.70435zM1156.058322 837.224121s60.011471-0.661739 74.941961 32.259784c-24.194838 1.364837-46.156307 27.420817-83.87544 0 8.850761-9.884729 18.528697-9.884729 8.933479-32.259784z" fill="#DD5E1B" p-id="3250"></path></svg>