<?xml version="1.0" standalone="no"?><!DOCTYPE svg PUBLIC "-//W3C//DTD SVG 1.1//EN" "http://www.w3.org/Graphics/SVG/1.1/DTD/svg11.dtd"><svg t="1751350919567" class="icon" viewBox="0 0 1024 1024" version="1.1" xmlns="http://www.w3.org/2000/svg" p-id="10917" xmlns:xlink="http://www.w3.org/1999/xlink" width="200" height="200"><path d="M387.40992 283.122347a20.476587 20.476587 0 0 1-17.41824-9.6768C294.167893 151.36768 230.7072 109.288107 190.825813 95.488c-40.47872-14.015147-63.883947-2.02752-64.856746-1.50528l0.31744-0.177493-20.497067-35.464534c5.372587-3.109547 133.48864-72.977067 298.99776 193.49504a20.476587 20.476587 0 0 1-17.37728 31.286614z" fill="#118700" p-id="10918"></path><path d="M720.554667 897.04448c0 32.413013-27.35104 58.688853-63.00672 58.688853-35.652267 0-63.00672-26.282667-63.00672-58.688853v-11.738453c0-32.413013 27.354453-58.68544 63.00672-58.68544 35.65568 0 63.00672 26.27584 63.00672 58.68544v11.738453z" fill="#7902AA" p-id="10919"></path><path d="M657.547947 976.213333c-46.813867 0-83.48672-34.77504-83.48672-79.168853v-11.738453c0-44.393813 36.672853-79.16544 83.48672-79.16544S741.034667 840.9088 741.034667 885.302613v11.738454c0 44.397227-36.676267 79.172267-83.48672 79.172266z m0-129.11616c-23.845547 0-42.52672 16.78336-42.52672 38.20544v11.738454c0 21.425493 18.681173 38.208853 42.52672 38.208853s42.52672-16.78336 42.52672-38.208853v-11.738454c0-21.42208-18.681173-38.20544-42.52672-38.20544z" fill="#56007A" p-id="10920"></path><path d="M770.17088 711.785813m-12.352853 0a12.352853 12.352853 0 1 0 24.705706 0 12.352853 12.352853 0 1 0-24.705706 0Z" fill="#FFFFFF" p-id="10921"></path><path d="M435.27168 366.70464c0 32.413013-27.354453 58.692267-63.00672 58.692267s-63.00672-26.282667-63.00672-58.692267v-11.738453c0-32.4096 27.354453-58.68544 63.00672-58.68544 35.648853 0 63.00672 26.27584 63.00672 58.68544v11.738453z" fill="#7902AA" p-id="10922"></path><path d="M372.26496 445.876907c-46.813867 0-83.48672-34.77504-83.48672-79.172267v-11.738453c0-44.3904 36.672853-79.16544 83.48672-79.16544s83.48672 34.77504 83.48672 79.16544v11.738453c0 44.393813-36.672853 79.172267-83.48672 79.172267z m0-129.11616c-23.845547 0-42.52672 16.78336-42.52672 38.20544v11.738453c0 21.425493 18.681173 38.212267 42.52672 38.212267s42.52672-16.78336 42.52672-38.212267v-11.738453c0-21.425493-18.681173-38.20544-42.52672-38.20544z" fill="#56007A" p-id="10923"></path><path d="M501.978453 304.93696c0 32.4096-27.354453 58.692267-63.00672 58.692267s-63.010133-26.282667-63.010133-58.692267v-11.74528c0-32.4096 27.354453-58.68544 63.010133-58.68544 35.652267 0 63.00672 26.27584 63.00672 58.68544v11.74528z" fill="#7902AA" p-id="10924"></path><path d="M438.971733 384.109227c-46.81728 0-83.490133-34.77504-83.490133-79.172267v-11.74528c0-44.3904 36.672853-79.16544 83.490133-79.16544 46.813867 0 83.48672 34.77504 83.48672 79.16544v11.74528c0 44.397227-36.66944 79.172267-83.48672 79.172267z m0-129.119574c-23.84896 0-42.530133 16.78336-42.530133 38.20544v11.74528c0 21.425493 18.681173 38.212267 42.530133 38.212267 23.845547 0 42.52672-16.78336 42.52672-38.212267v-11.74528c0-21.425493-18.67776-38.20544-42.52672-38.20544z" fill="#56007A" p-id="10925"></path><path d="M613.021013 293.669547c0 32.4096-27.354453 58.692267-62.999893 58.692266-35.65568 0-63.010133-26.282667-63.010133-58.692266v-11.738454c0-32.4096 27.354453-58.68544 63.010133-58.68544 35.64544 0 62.999893 26.27584 62.999893 58.68544v11.738454z" fill="#7902AA" p-id="10926"></path><path d="M550.02112 372.841813c-46.81728 0-83.490133-34.77504-83.490133-79.172266v-11.738454c0-44.3904 36.672853-79.16544 83.490133-79.16544 46.810453 0 83.479893 34.77504 83.479893 79.16544v11.738454c0 44.397227-36.66944 79.172267-83.479893 79.172266z m0-129.11616c-23.84896 0-42.530133 16.78336-42.530133 38.20544v11.738454c0 21.428907 18.681173 38.212267 42.530133 38.212266 23.842133 0 42.519893-16.78336 42.519893-38.212266v-11.738454c0-21.425493-18.67776-38.20544-42.519893-38.20544z" fill="#56007A" p-id="10927"></path><path d="M536.681813 268.274347m-12.352853 0a12.352853 12.352853 0 1 0 24.705707 0 12.352853 12.352853 0 1 0-24.705707 0Z" fill="#FFFFFF" p-id="10928"></path><path d="M421.5296 472.804693c0 32.413013-27.35104 58.688853-63.00672 58.688854s-63.00672-26.279253-63.00672-58.688854v-11.741866c0-32.4096 27.35104-58.68544 63.00672-58.68544 35.648853 0 63.00672 26.27584 63.00672 58.68544v11.741866z" fill="#7902AA" p-id="10929"></path><path d="M358.52288 551.973547c-46.813867 0-83.48672-34.77504-83.48672-79.168854v-11.741866c0-44.393813 36.672853-79.16544 83.48672-79.16544s83.48672 34.77504 83.48672 79.16544v11.741866c0 44.393813-36.672853 79.168853-83.48672 79.168854z m0-129.11616c-23.845547 0-42.52672 16.78336-42.52672 38.20544v11.741866c0 21.425493 18.681173 38.208853 42.52672 38.208854s42.52672-16.78336 42.52672-38.208854v-11.741866c0-21.425493-18.681173-38.20544-42.52672-38.20544z" fill="#56007A" p-id="10930"></path><path d="M345.186987 447.409493m-12.356267 0a12.356267 12.356267 0 1 0 24.712533 0 12.356267 12.356267 0 1 0-24.712533 0Z" fill="#FFFFFF" p-id="10931"></path><path d="M647.611733 335.674027c0 32.4096-27.35104 58.692267-63.00672 58.692266s-63.003307-26.282667-63.003306-58.692266v-11.741867c0-32.4096 27.347627-58.68544 63.003306-58.68544 35.65568 0 63.00672 26.27584 63.00672 58.68544v11.741867z" fill="#7902AA" p-id="10932"></path><path d="M584.605013 414.846293c-46.813867 0-83.483307-34.77504-83.483306-79.172266v-11.741867c0-44.3904 36.66944-79.16544 83.483306-79.16544s83.48672 34.77504 83.48672 79.16544v11.741867c0 44.397227-36.672853 79.172267-83.48672 79.172266z m0-129.119573c-23.842133 0-42.523307 16.78336-42.523306 38.20544v11.741867c0 21.425493 18.681173 38.212267 42.523306 38.212266 23.845547 0 42.52672-16.78336 42.52672-38.212266v-11.741867c0-21.42208-18.67776-38.20544-42.52672-38.20544z" fill="#56007A" p-id="10933"></path><path d="M571.265707 310.278827m-12.352854 0a12.352853 12.352853 0 1 0 24.705707 0 12.352853 12.352853 0 1 0-24.705707 0Z" fill="#FFFFFF" p-id="10934"></path><path d="M704.436907 373.971627c0 32.4096-27.344213 58.692267-62.999894 58.692266-35.652267 0-63.00672-26.282667-63.00672-58.692266v-11.738454c0-32.4096 27.354453-58.68544 63.00672-58.68544 35.65568 0 62.999893 26.27584 62.999894 58.68544v11.738454z" fill="#7902AA" p-id="10935"></path><path d="M641.437013 453.143893c-46.813867 0-83.48672-34.77504-83.48672-79.172266v-11.738454c0-44.393813 36.672853-79.16544 83.48672-79.16544 46.810453 0 83.479893 34.77504 83.479894 79.16544v11.738454c0 44.397227-36.66944 79.172267-83.479894 79.172266z m0-129.11616c-23.845547 0-42.52672 16.78336-42.52672 38.20544v11.738454c0 21.428907 18.681173 38.212267 42.52672 38.212266 23.842133 0 42.519893-16.78336 42.519894-38.212266v-11.738454c0-21.425493-18.67776-38.20544-42.519894-38.20544z" fill="#56007A" p-id="10936"></path><path d="M628.094293 348.576427m-12.352853 0a12.352853 12.352853 0 1 0 24.705707 0 12.352853 12.352853 0 1 0-24.705707 0Z" fill="#FFFFFF" p-id="10937"></path><path d="M358.925653 341.306027m-12.352853 0a12.352853 12.352853 0 1 0 24.705707 0 12.352853 12.352853 0 1 0-24.705707 0Z" fill="#FFFFFF" p-id="10938"></path><path d="M425.63584 279.538347m-12.352853 0a12.352853 12.352853 0 1 0 24.705706 0 12.352853 12.352853 0 1 0-24.705706 0Z" fill="#FFFFFF" p-id="10939"></path><path d="M907.963733 824.296107c0 32.413013-27.354453 58.688853-63.00672 58.688853-35.65568 0-63.00672-26.279253-63.00672-58.688853v-11.738454c0-32.4096 27.35104-58.682027 63.00672-58.682026 35.652267 0 63.00672 26.272427 63.00672 58.682026v11.738454z" fill="#7902AA" p-id="10940"></path><path d="M844.957013 903.468373c-46.813867 0-83.48672-34.77504-83.48672-79.168853v-11.738453c0-44.3904 36.672853-79.162027 83.48672-79.162027s83.48672 34.77504 83.48672 79.162027v11.738453c0 44.3904-36.672853 79.168853-83.48672 79.168853z m0-129.11616c-23.845547 0-42.52672 16.779947-42.52672 38.202027v11.738453c0 21.425493 18.681173 38.208853 42.52672 38.208854s42.52672-16.78336 42.52672-38.208854v-11.738453c0-21.42208-18.681173-38.202027-42.52672-38.202027z" fill="#56007A" p-id="10941"></path><path d="M742.959787 860.672m-12.352854 0a12.352853 12.352853 0 1 0 24.705707 0 12.352853 12.352853 0 1 0-24.705707 0Z" fill="#FFFFFF" p-id="10942"></path><path d="M552.485547 479.341227c0 32.416427-28.59008 58.69568-64.242347 58.69568-35.65568 0-64.238933-26.279253-64.238933-58.69568v-11.73504c0-32.416427 28.586667-58.688853 64.238933-58.688854s64.242347 26.272427 64.242347 58.688854v11.73504z" fill="#7902AA" p-id="10943"></path><path d="M488.2432 558.516907c-46.71488 0-84.718933-35.515733-84.718933-79.17568v-11.73504c0-43.65312 38.004053-79.168853 84.718933-79.168854 46.718293 0 84.722347 35.515733 84.722347 79.168854v11.73504c0 43.659947-38.004053 79.17568-84.722347 79.17568z m0-129.119574c-24.128853 0-43.758933 17.138347-43.758933 38.208854v11.73504c0 21.070507 19.63008 38.21568 43.758933 38.21568 24.132267 0 43.762347-17.14176 43.762347-38.21568v-11.73504c0-21.070507-19.63008-38.208853-43.762347-38.208854z" fill="#56007A" p-id="10944"></path><path d="M535.1936 664.251733c0 32.416427-28.59008 58.692267-64.24576 58.692267-35.652267 0-64.23552-26.279253-64.23552-58.692267v-11.73504c0-32.413013 28.583253-58.692267 64.23552-58.692266 35.659093 0 64.24576 26.279253 64.24576 58.692266v11.73504z" fill="#7902AA" p-id="10945"></path><path d="M470.94784 743.427413c-46.71488 0-84.71552-35.515733-84.71552-79.172266v-11.73504c0-43.656533 38.004053-79.172267 84.71552-79.172267 46.721707 0 84.72576 35.515733 84.72576 79.172267v11.73504c0 43.656533-38.007467 79.172267-84.72576 79.172266z m0-129.119573c-24.12544 0-43.75552 17.14176-43.75552 38.212267v11.73504c0 21.070507 19.63008 38.212267 43.75552 38.212266 24.132267 0 43.76576-17.14176 43.76576-38.212266v-11.73504c0-21.070507-19.633493-38.212267-43.76576-38.212267z" fill="#56007A" p-id="10946"></path><path d="M657.83808 818.322773c0 32.416427-27.35104 58.692267-63.003307 58.692267-35.659093 0-63.00672-26.279253-63.00672-58.692267v-11.73504c0-32.416427 27.347627-58.692267 63.00672-58.692266 35.652267 0 63.003307 26.27584 63.003307 58.692266v11.73504z" fill="#7902AA" p-id="10947"></path><path d="M594.834773 897.49504c-46.813867 0-83.48672-34.77504-83.48672-79.172267v-11.73504c0-44.397227 36.672853-79.172267 83.48672-79.172266s83.483307 34.77504 83.483307 79.172266v11.73504c0 44.397227-36.672853 79.172267-83.483307 79.172267z m0-129.119573c-23.845547 0-42.52672 16.786773-42.52672 38.212266v11.73504c0 21.425493 18.681173 38.212267 42.52672 38.212267 23.842133 0 42.523307-16.786773 42.523307-38.212267v-11.73504c0-21.425493-18.681173-38.212267-42.523307-38.212266z" fill="#56007A" p-id="10948"></path><path d="M814.39744 616.43776c0 32.406187-28.593493 58.682027-64.24576 58.682027-35.652267 0-64.23552-26.279253-64.23552-58.682027v-11.741867c0-32.41984 28.583253-58.69568 64.23552-58.69568 35.65568 0 64.24576 26.282667 64.24576 58.69568v11.741867z" fill="#7902AA" p-id="10949"></path><path d="M750.15168 695.599787c-46.71488 0-84.71552-35.51232-84.71552-79.162027v-11.741867c0-43.656533 38.004053-79.17568 84.71552-79.17568 46.721707 0 84.72576 35.519147 84.72576 79.17568v11.741867c0 43.649707-38.007467 79.162027-84.72576 79.162027z m0-129.122987c-24.12544 0-43.75552 17.14176-43.75552 38.21568v11.741867c0 21.067093 19.63008 38.202027 43.75552 38.202026 24.132267 0 43.76576-17.138347 43.76576-38.202026v-11.741867c0-21.07392-19.633493-38.21568-43.76576-38.21568z" fill="#56007A" p-id="10950"></path><path d="M802.044587 517.60128c0 32.413013-27.347627 58.68544-63.00672 58.68544-35.662507 0-63.010133-26.27584-63.010134-58.68544v-11.738453c0-32.416427 27.347627-58.692267 63.010134-58.692267 35.659093 0 63.00672 26.279253 63.00672 58.692267v11.738453z" fill="#7902AA" p-id="10951"></path><path d="M739.037867 596.76672c-46.81728 0-83.490133-34.77504-83.490134-79.16544v-11.738453c0-44.393813 36.672853-79.172267 83.490134-79.172267 46.813867 0 83.48672 34.77504 83.48672 79.172267v11.738453c0 44.3904-36.676267 79.16544-83.48672 79.16544z m0-129.11616c-23.84896 0-42.530133 16.78336-42.530134 38.212267v11.738453c0 21.42208 18.681173 38.20544 42.530134 38.20544 23.845547 0 42.52672-16.78336 42.52672-38.20544v-11.738453c0-21.428907-18.681173-38.212267-42.52672-38.212267z" fill="#56007A" p-id="10952"></path><path d="M651.322027 451.444053c0 32.416427-27.354453 58.688853-63.010134 58.688854-35.65568 0-63.00672-26.272427-63.00672-58.688854v-11.73504c0-32.41984 27.35104-58.692267 63.00672-58.692266s63.010133 26.272427 63.010134 58.692266v11.73504z" fill="#7902AA" p-id="10953"></path><path d="M588.311893 530.612907c-46.813867 0-83.48672-34.77504-83.48672-79.168854v-11.73504c0-44.393813 36.672853-79.172267 83.48672-79.172266 46.81728 0 83.490133 34.77504 83.490134 79.172266v11.73504c0 44.393813-36.672853 79.168853-83.490134 79.168854z m0-129.11616c-23.845547 0-42.52672 16.78336-42.52672 38.212266v11.73504c0 21.425493 18.681173 38.208853 42.52672 38.208854 23.84896 0 42.530133-16.78336 42.530134-38.208854v-11.73504c0-21.428907-18.67776-38.212267-42.530134-38.212266z" fill="#56007A" p-id="10954"></path><path d="M752.61952 465.954133c0 32.41984-28.57984 58.692267-64.238933 58.692267-35.65568 0-64.23552-26.279253-64.23552-58.692267v-11.73504c0-32.413013 28.583253-58.692267 64.23552-58.692266 35.662507 0 64.238933 26.282667 64.238933 58.692266v11.73504z" fill="#7902AA" p-id="10955"></path><path d="M688.380587 545.1264c-46.71488 0-84.71552-35.515733-84.71552-79.172267v-11.73504c0-43.656533 38.004053-79.172267 84.71552-79.172266s84.718933 35.515733 84.718933 79.172266v11.73504c0 43.656533-38.007467 79.172267-84.718933 79.172267z m0-129.122987c-24.12544 0-43.75552 17.14176-43.75552 38.212267v11.73504c0 21.070507 19.63008 38.212267 43.75552 38.212267 24.128853 0 43.758933-17.14176 43.758933-38.212267v-11.73504c0-21.070507-19.63008-38.212267-43.758933-38.212267z" fill="#56007A" p-id="10956"></path><path d="M624.13824 531.1488c0 32.413013-28.576427 58.688853-64.23552 58.688853s-64.238933-26.279253-64.238933-58.688853v-11.738453c0-32.416427 28.57984-58.688853 64.238933-58.688854 35.659093 0 64.23552 26.27584 64.23552 58.688854v11.738453z" fill="#7902AA" p-id="10957"></path><path d="M559.899307 610.321067c-46.71488 0-84.718933-35.515733-84.718934-79.168854v-11.738453c0-43.65312 38.004053-79.168853 84.718934-79.168853s84.71552 35.515733 84.71552 79.168853v11.738453c0.003413 43.649707-38.00064 79.168853-84.71552 79.168854z m0-129.119574c-24.128853 0-43.758933 17.138347-43.758934 38.208854v11.738453c0 21.070507 19.63008 38.208853 43.758934 38.208853 24.12544 0 43.75552-17.138347 43.75552-38.208853v-11.738453c0.003413-21.067093-19.626667-38.208853-43.75552-38.208854z" fill="#56007A" p-id="10958"></path><path d="M631.552 644.328107c0 32.416427-27.347627 58.688853-63.00672 58.688853-35.662507 0-63.003307-26.27584-63.003307-58.688853v-11.73504c0-32.416427 27.3408-58.688853 63.003307-58.688854 35.659093 0 63.00672 26.27584 63.00672 58.688854v11.73504z" fill="#7902AA" p-id="10959"></path><path d="M568.54528 723.49696c-46.813867 0-83.483307-34.77504-83.483307-79.168853v-11.73504c0-44.393813 36.66944-79.168853 83.483307-79.168854s83.48672 34.77504 83.48672 79.168854v11.73504c0 44.3904-36.672853 79.168853-83.48672 79.168853z m0-129.112747c-23.842133 0-42.523307 16.78336-42.523307 38.208854v11.73504c0 21.425493 18.681173 38.208853 42.523307 38.208853 23.845547 0 42.52672-16.78336 42.52672-38.208853v-11.73504c0-21.425493-18.67776-38.208853-42.52672-38.208854z" fill="#56007A" p-id="10960"></path><path d="M826.74688 686.574933c0 32.416427-27.344213 58.688853-63.00672 58.688854-35.652267 0-62.999893-26.279253-62.999893-58.688854v-11.73504c0-32.41984 27.347627-58.688853 62.999893-58.688853 35.662507 0 63.00672 26.272427 63.00672 58.688853v11.73504z" fill="#7902AA" p-id="10961"></path><path d="M763.74016 765.743787c-46.810453 0-83.479893-34.77504-83.479893-79.168854v-11.73504c0-44.393813 36.66944-79.168853 83.479893-79.168853 46.813867 0 83.48672 34.77504 83.48672 79.168853v11.73504c0 44.3904-36.672853 79.168853-83.48672 79.168854z m0-129.112747c-23.842133 0-42.519893 16.78336-42.519893 38.208853v11.73504c0 21.425493 18.67776 38.208853 42.519893 38.208854 23.845547 0 42.52672-16.78336 42.52672-38.208854v-11.73504c0-21.425493-18.681173-38.208853-42.52672-38.208853z" fill="#56007A" p-id="10962"></path><path d="M851.452587 626.95424c0 32.413013-28.583253 58.688853-64.23552 58.688853-35.662507 0-64.242347-26.27584-64.242347-58.688853v-11.73504c0-32.413013 28.586667-58.688853 64.242347-58.688853 35.65568 0 64.23552 26.279253 64.23552 58.688853v11.73504z" fill="#7902AA" p-id="10963"></path><path d="M787.217067 706.123093c-46.718293 0-84.722347-35.515733-84.722347-79.168853v-11.73504c0-43.65312 38.007467-79.168853 84.722347-79.168853 46.71488 0 84.71552 35.515733 84.71552 79.168853v11.73504c0 43.65312-38.004053 79.168853-84.71552 79.168853z m0-129.11616c-24.128853 0-43.762347 17.138347-43.762347 38.208854v11.73504c0 21.070507 19.633493 38.208853 43.762347 38.208853 24.12544 0 43.75552-17.138347 43.75552-38.208853v-11.73504c0-21.070507-19.63008-38.208853-43.75552-38.208854z" fill="#56007A" p-id="10964"></path><path d="M720.503467 596.585813c0 32.413013-28.583253 58.688853-64.242347 58.688854-35.65568 0-64.238933-26.27584-64.238933-58.688854v-11.73504c0-32.41984 28.586667-58.692267 64.238933-58.692266 35.659093 0 64.242347 26.27584 64.242347 58.692266v11.73504z" fill="#7902AA" p-id="10965"></path><path d="M656.26112 675.75808c-46.71488 0-84.718933-35.515733-84.718933-79.168853v-11.73504c0-43.656533 38.007467-79.172267 84.718933-79.172267 46.718293 0 84.722347 35.515733 84.722347 79.172267v11.73504c0 43.649707-38.007467 79.168853-84.722347 79.168853z m0-129.122987c-24.128853 0-43.758933 17.14176-43.758933 38.212267v11.73504c0 21.070507 19.63008 38.208853 43.758933 38.208853s43.762347-17.138347 43.762347-38.208853v-11.73504c0-21.067093-19.633493-38.212267-43.762347-38.212267z" fill="#56007A" p-id="10966"></path><path d="M552.73472 619.134293m-12.352853 0a12.352853 12.352853 0 1 0 24.705706 0 12.352853 12.352853 0 1 0-24.705706 0Z" fill="#FFFFFF" p-id="10967"></path><path d="M541.617493 504.23808m-12.352853 0a12.352853 12.352853 0 1 0 24.705707 0 12.352853 12.352853 0 1 0-24.705707 0Z" fill="#FFFFFF" p-id="10968"></path><path d="M670.098773 439.999147m-12.352853 0a12.352853 12.352853 0 1 0 24.705707 0 12.352853 12.352853 0 1 0-24.705707 0Z" fill="#FFFFFF" p-id="10969"></path><path d="M467.493547 454.81984m-12.352854 0a12.352853 12.352853 0 1 0 24.705707 0 12.352853 12.352853 0 1 0-24.705707 0Z" fill="#FFFFFF" p-id="10970"></path><path d="M568.79104 422.700373m-12.352853 0a12.352853 12.352853 0 1 0 24.705706 0 12.352853 12.352853 0 1 0-24.705706 0Z" fill="#FFFFFF" p-id="10971"></path><path d="M644.15744 574.655147m-12.352853 0a12.352853 12.352853 0 1 0 24.705706 0 12.352853 12.352853 0 1 0-24.705706 0Z" fill="#FFFFFF" p-id="10972"></path><path d="M778.81344 604.30336m-12.352853 0a12.352853 12.352853 0 1 0 24.705706 0 12.352853 12.352853 0 1 0-24.705706 0Z" fill="#FFFFFF" p-id="10973"></path><path d="M698.518187 773.556907m-12.352854 0a12.352853 12.352853 0 1 0 24.705707 0 12.352853 12.352853 0 1 0-24.705707 0Z" fill="#FFFFFF" p-id="10974"></path><path d="M740.27008 731.60704c0 32.416427-28.593493 58.692267-64.242347 58.692267-35.65568 0-64.242347-26.279253-64.242346-58.692267V719.872c0-32.416427 28.59008-58.69568 64.242346-58.69568 35.65568 0 64.242347 26.282667 64.242347 58.69568v11.73504z" fill="#7902AA" p-id="10975"></path><path d="M676.027733 810.779307c-46.718293 0-84.722347-35.515733-84.722346-79.172267V719.872c0-43.656533 38.007467-79.17568 84.722346-79.17568s84.722347 35.519147 84.722347 79.17568v11.73504c0 43.656533-38.007467 79.172267-84.722347 79.172267z m0-129.122987c-24.128853 0-43.762347 17.14176-43.762346 38.21568v11.73504c0 21.070507 19.633493 38.212267 43.762346 38.212267s43.762347-17.14176 43.762347-38.212267V719.872c0-21.070507-19.633493-38.21568-43.762347-38.21568z" fill="#56007A" p-id="10976"></path><path d="M658.988373 704.37888m-12.356266 0a12.356267 12.356267 0 1 0 24.712533 0 12.356267 12.356267 0 1 0-24.712533 0Z" fill="#FFFFFF" p-id="10977"></path><path d="M566.664533 810.181973m-12.356266 0a12.356267 12.356267 0 1 0 24.712533 0 12.356267 12.356267 0 1 0-24.712533 0Z" fill="#FFFFFF" p-id="10978"></path><path d="M522.83392 399.916373c0 32.4096-27.35104 58.692267-63.003307 58.692267-35.652267 0-63.00672-26.282667-63.00672-58.692267v-11.738453c0-32.4096 27.35104-58.68544 63.00672-58.68544 35.652267 0 63.003307 26.27584 63.003307 58.68544v11.738453z" fill="#7902AA" p-id="10979"></path><path d="M459.830613 479.085227c-46.813867 0-83.48672-34.77504-83.48672-79.172267v-11.738453c0-44.3904 36.672853-79.16544 83.48672-79.16544s83.483307 34.77504 83.483307 79.16544v11.738453c0 44.397227-36.66944 79.172267-83.483307 79.172267z m0-129.11616c-23.845547 0-42.52672 16.78336-42.52672 38.20544v11.738453c0 21.425493 18.681173 38.212267 42.52672 38.212267s42.523307-16.78336 42.523307-38.212267v-11.738453c0-21.42208-18.67776-38.20544-42.523307-38.20544z" fill="#56007A" p-id="10980"></path><path d="M446.49472 374.51776m-12.352853 0a12.352853 12.352853 0 1 0 24.705706 0 12.352853 12.352853 0 1 0-24.705706 0Z" fill="#FFFFFF" p-id="10981"></path><path d="M495.660373 568.610133c0 32.413013-28.586667 58.688853-64.242346 58.688854-35.659093 0-64.238933-26.279253-64.238934-58.688854v-11.738453c0-32.4096 28.583253-58.688853 64.238934-58.688853s64.242347 26.279253 64.242346 58.688853v11.738453z" fill="#7902AA" p-id="10982" data-spm-anchor-id="a313x.search_index.0.i2.1fd33a81uzlhLX" class="selected"></path><path d="M431.418027 647.778987c-46.71488 0-84.718933-35.515733-84.718934-79.168854v-11.738453c0-43.65312 38.004053-79.168853 84.718934-79.168853 46.718293 0 84.722347 35.515733 84.722346 79.168853v11.738453c0 43.65312-38.007467 79.168853-84.722346 79.168854z m0-129.119574c-24.128853 0-43.758933 17.14176-43.758934 38.208854v11.738453c0 21.070507 19.63008 38.208853 43.758934 38.208853 24.132267 0 43.762347-17.138347 43.762346-38.208853v-11.738453c0-21.06368-19.633493-38.208853-43.762346-38.208854z" fill="#56007A" p-id="10983"></path><path d="M413.136213 543.771307m-12.356266 0a12.356267 12.356267 0 1 0 24.712533 0 12.356267 12.356267 0 1 0-24.712533 0Z" fill="#FFFFFF" p-id="10984"></path><path d="M883.090773 726.213973c0 32.413013-27.35104 58.688853-63.00672 58.688854s-63.00672-26.279253-63.00672-58.688854v-11.738453c0-32.413013 27.35104-58.682027 63.00672-58.682027s63.00672 26.272427 63.00672 58.682027v11.738453z" fill="#7902AA" p-id="10985"></path><path d="M820.084053 805.382827c-46.813867 0-83.48672-34.77504-83.48672-79.168854v-11.738453c0-44.3904 36.672853-79.162027 83.48672-79.162027s83.48672 34.77504 83.48672 79.162027v11.738453c0 44.393813-36.672853 79.168853-83.48672 79.168854z m0-129.112747c-23.845547 0-42.52672 16.779947-42.52672 38.202027v11.738453c0 21.425493 18.681173 38.208853 42.52672 38.208853s42.52672-16.78336 42.52672-38.208853v-11.738453c0-21.42208-18.681173-38.202027-42.52672-38.202027z" fill="#56007A" p-id="10986"></path><path d="M574.723413 740.768427c0 32.41984-27.347627 58.68544-63.00672 58.68544-35.652267 0-63.00672-26.272427-63.00672-58.68544v-11.73504c0-32.4096 27.354453-58.688853 63.00672-58.688854 35.659093 0 63.00672 26.282667 63.00672 58.688854v11.73504z" fill="#7902AA" p-id="10987"></path><path d="M511.716693 819.93728c-46.813867 0-83.48672-34.77504-83.48672-79.16544v-11.73504c0-44.393813 36.672853-79.168853 83.48672-79.168853s83.48672 34.77504 83.48672 79.168853v11.73504c0 44.3904-36.672853 79.16544-83.48672 79.16544z m0-129.112747c-23.845547 0-42.52672 16.78336-42.52672 38.208854v11.73504c0 21.42208 18.681173 38.20544 42.52672 38.20544s42.52672-16.78336 42.52672-38.20544v-11.73504c0-21.425493-18.681173-38.208853-42.52672-38.208854z" fill="#56007A" p-id="10988"></path><path d="M498.377387 716.72832m-12.352854 0a12.352853 12.352853 0 1 0 24.705707 0 12.352853 12.352853 0 1 0-24.705707 0Z" fill="#FFFFFF" p-id="10989"></path><path d="M803.04128 702.050987m-12.356267 0a12.356267 12.356267 0 1 0 24.712534 0 12.356267 12.356267 0 1 0-24.712534 0Z" fill="#FFFFFF" p-id="10990"></path><path d="M819.3024 886.070613c0 32.413013-27.354453 58.68544-63.00672 58.68544-35.648853 0-63.003307-26.27584-63.003307-58.68544v-11.741866c0-32.4096 27.354453-58.682027 63.003307-58.682027 35.652267 0 63.00672 26.27584 63.00672 58.682027v11.741866z" fill="#7902AA" p-id="10991"></path><path d="M756.29568 965.236053c-46.813867 0-83.483307-34.77504-83.483307-79.16544v-11.741866c0-44.3904 36.66944-79.162027 83.483307-79.162027s83.48672 34.77504 83.48672 79.162027v11.741866c0 44.393813-36.672853 79.16544-83.48672 79.16544z m0-129.112746c-23.842133 0-42.523307 16.779947-42.523307 38.202026v11.741867c0 21.42208 18.681173 38.20544 42.523307 38.20544 23.845547 0 42.52672-16.78336 42.52672-38.20544v-11.741867c0-21.42208-18.67776-38.202027-42.52672-38.202026z" fill="#56007A" p-id="10992"></path><path d="M785.831253 817.24416c0 32.4096-27.35104 58.692267-63.003306 58.692267-35.652267 0-63.00672-26.28608-63.00672-58.692267v-11.741867c0-32.4096 27.354453-58.68544 63.00672-58.68544s63.003307 26.282667 63.003306 58.68544v11.741867z" fill="#7902AA" p-id="10993"></path><path d="M722.827947 896.416427c-46.813867 0-83.48672-34.77504-83.48672-79.172267v-11.741867c0-44.393813 36.672853-79.16544 83.48672-79.16544s83.483307 34.77504 83.483306 79.16544v11.741867c0 44.397227-36.672853 79.172267-83.483306 79.172267z m0-129.122987c-23.845547 0-42.52672 16.78336-42.52672 38.20544v11.741867c0 21.425493 18.681173 38.212267 42.52672 38.212266 23.842133 0 42.523307-16.786773 42.523306-38.212266v-11.741867c0-21.42208-18.681173-38.20544-42.523306-38.20544z" fill="#56007A" p-id="10994"></path><path d="M710.915413 798.900907m-12.352853 0a12.352853 12.352853 0 1 0 24.705707 0 12.352853 12.352853 0 1 0-24.705707 0Z" fill="#FFFFFF" p-id="10995"></path></svg>