<?xml version="1.0" standalone="no"?><!DOCTYPE svg PUBLIC "-//W3C//DTD SVG 1.1//EN" "http://www.w3.org/Graphics/SVG/1.1/DTD/svg11.dtd"><svg t="1751351733892" class="icon" viewBox="0 0 1621 1024" version="1.1" xmlns="http://www.w3.org/2000/svg" p-id="8028" xmlns:xlink="http://www.w3.org/1999/xlink" width="316.6015625" height="200"><path d="M1374.030436 535.466977c-4.451079-3.771357-109.150101-95.051363-253.667641-187.844297-85.447558-54.750462-166.904493-98.51575-242.15623-129.93642-96.279247-40.147416-183.19588-60.451352-258.425691-60.451352-76.720812 0-153.0908 20.895951-227.005021 62.249325-57.929804 32.341583-114.390534 77.159342-167.891185 133.115761-90.205608 94.283936-147.324132 209.48575-142.873053 217.905525 2.12687 3.902916 52.820931 97.156307 142.873053 191.440243 53.654138 56.109905 110.114867 100.774179 167.891185 133.093836 73.914221 41.375299 150.284209 62.271251 227.005021 62.271251 75.22981 0 162.146444-20.303936 258.425691-60.758323 75.251737-31.442596 156.708672-75.185957 242.15623-129.93642 144.692952-92.639449 249.216562-183.941381 253.667641-187.844298 6.577949-5.56933 10.195821-13.528649 10.195821-21.663378 0-8.112804-3.771357-15.940563-10.195821-21.641453z m-1029.185905-7.367303c-56.899259 0-103.010682-45.892158-103.010681-102.506372 0-56.636141 46.111423-102.528299 103.010681-102.528299 56.877333 0 103.010682 45.892158 103.010682 102.528299 0 56.614215-46.133349 102.506372-103.010682 102.506372z" fill="#FEC000" p-id="8029"></path><path d="M116.348509 521.499799c-38.787973-133.137688 293.442306 773.610659 1241.237055 18.440184 0 0-199.816165 227.50933-332.339912 292.10479-132.50182 64.595459-308.352324 154.735288-427.10623 125.353781-118.753906-29.381506-393.098234-131.339716-481.790913-435.898755z" fill="#F48B00" p-id="8030"></path><path d="M1462.481924 503.892822l70.691026 70.405981a95.665305 95.665305 0 0 1 0 135.878501 96.520439 96.520439 0 0 1-136.404737 0l-65.889122-65.647932 0.043853-0.043853a2537.772735 2537.772735 0 0 1-164.558359 125.704606c-90.75377 63.411429-177.407285 114.171269-257.877528 150.744665-104.808655 47.69013-200.210842 71.962762-283.597309 71.962763-86.302691 0-171.903735-25.456663-254.435068-75.73412-63.301796-38.459075-124.717914-91.608903-182.88891-157.91463C90.628728 648.651554 35.900192 538.755952 33.685616 534.129461a67.752875 67.752875 0 0 1 0-60.341719c2.214576-4.604564 56.943112-114.500166 153.880154-225.097416 58.170996-66.327653 119.587113-119.477481 182.88891-157.936556C452.986013 40.49824 538.587057 15.041577 624.889748 15.041577c83.386467 0 178.788655 24.272632 283.597309 71.78735 80.470243 36.573397 167.123758 87.333237 257.877528 150.744665a2583.423701 2583.423701 0 0 1 164.492579 125.792312l-0.065779-0.065779 65.976828-65.735637a96.608145 96.608145 0 0 1 136.404737 0 95.687232 95.687232 0 0 1 0 135.900426l-70.691026 70.427908z m-116.16658-37.143485C1229.9295 363.979846 888.095415 83.408394 624.889748 83.408394c-281.185394 0-474.949846 320.236485-519.723753 401.7592a38.74412 38.74412 0 0 0 0 37.42853c44.773906 81.522715 238.538358 401.7592 519.723753 401.7592 263.205667 0 605.039752-280.571453 721.425596-383.340943a49.466177 49.466177 0 0 0 0-74.265044zM1110.079268 561.998038c9.45032 0 17.168447 7.6962 17.168447 17.080741 0 9.406467-7.718127 17.102667-17.168447 17.102668-52.996343 0-96.059982-41.353373-96.059982-92.288625 0-50.935252 43.06364-92.310551 96.059982-92.310551 9.45032 0 17.168447 7.6962 17.168447 17.102667a17.168447 17.168447 0 0 1-17.168447 17.080741c-34.139555 0-61.745015 26.158311-61.745015 58.127143 0 31.946906 27.605459 58.105216 61.745015 58.105216z m-221.830367 76.918151a17.102667 17.102667 0 1 1 0 34.183409c-53.018269 0-96.081909-41.375299-96.081909-92.310552 0-32.100391 17.124594-60.363646 43.063639-76.896224-25.939046-16.554505-43.06364-44.817759-43.063639-76.918151 0-50.935252 43.06364-92.310551 96.081909-92.310551 9.428394 0 17.168447 7.6962 17.168447 17.102668a17.190373 17.190373 0 0 1-17.168447 17.08074c-34.139555 0-61.766941 26.158311-61.766942 58.127143 0 31.946906 27.627386 58.105216 61.766942 58.105217 9.428394 0 17.168447 7.6962 17.168447 17.080741 0 0.592015-0.131559 1.162104-0.175412 1.732193 0.043853 0.570089 0.175412 1.118251 0.175412 1.710267a17.190373 17.190373 0 0 1-17.168447 17.080741c-34.139555 0-61.766941 26.158311-61.766942 58.105216 0 31.968832 27.627386 58.127143 61.766942 58.127143z m-221.654956 76.918151c9.428394 0 17.14652 7.6962 17.14652 17.080741 0 9.406467-7.718127 17.102667-17.14652 17.102667-53.018269 0-96.081909-41.375299-96.081909-92.310551 0-32.100391 17.124594-60.363646 43.041713-76.918151-25.917119-16.532579-43.041713-44.795833-43.041713-76.896224 0-32.122318 17.124594-60.385572 43.041713-76.918151-25.917119-16.554505-43.041713-44.817759-43.041713-76.91815 0-50.935252 43.06364-92.310551 96.081909-92.310552 9.428394 0 17.14652 7.6962 17.14652 17.102668a17.168447 17.168447 0 0 1-17.14652 17.080741c-34.161482 0-61.766941 26.158311-61.766942 58.127143 0 31.968832 27.605459 58.105216 61.766942 58.105216 9.428394 0 17.14652 7.6962 17.14652 17.102668 0 0.570089-0.109632 1.140178-0.175412 1.710266 0.065779 0.570089 0.175412 1.118251 0.175412 1.710267a17.168447 17.168447 0 0 1-17.14652 17.080741c-34.161482 0-61.766941 26.158311-61.766942 58.127143 0 31.946906 27.605459 58.105216 61.766942 58.105216 9.428394 0 17.14652 7.6962 17.14652 17.080741 0 0.592015-0.109632 1.140178-0.175412 1.710267 0.065779 0.570089 0.175412 1.140178 0.175412 1.732193a17.168447 17.168447 0 0 1-17.14652 17.080741c-34.161482 0-61.766941 26.158311-61.766942 58.105217 0 31.968832 27.605459 58.127143 61.766942 58.127143z m-343.149674-245.993367a49.838927 49.838927 0 0 1 25.061985-93.121832 50.014339 50.014339 0 0 1 50.102045 49.904706c0 17.826242-9.559953 34.314967-25.061985 43.217126a50.211678 50.211678 0 0 1-50.102045 0z" fill="#3F3008" p-id="8031"></path></svg>