<svg xmlns="http://www.w3.org/2000/svg" viewBox="0 0 512 512">
    <path fill="#f8a62a" d="M360 160a80 80 0 1 0 0-160a80 80 0 1 0 0 160"/>
    <path fill="#1D771F"
        d="M385.507 240.62c-119.231 0-215.887 83.871-215.887 152.238c0 41.561 19.708 79.567 52.296 108.759h267.702c6.6 0 12-5.4 12-12V262.522c-33.528-14.165-73.368-21.902-116.111-21.902" />
    <path fill="#2BA52E"
        d="M496.864 499.149C461.831 466.661 413.869 423.769 364 384c-79-63-178.087-105-287-105c-22.176 0-45.008 7.069-66.617 18.574v192.043c0 6.6 5.4 12 12 12h467.234c2.72 0 5.228-.927 7.247-2.468" />
</svg>