<svg viewBox="0 0 24 24" fill="none" xmlns="http://www.w3.org/2000/svg"><path d="M4 4h7v7H4V4z" fill="#FBCD2C"></path><path d="M3 11h17v9H3v-9z" fill="#3BCE4A"></path><path fill-rule="evenodd" clip-rule="evenodd" d="M5 2a3 3 0 00-3 3v14a3 3 0 003 3h14a3 3 0 003-3V5a3 3 0 00-3-3H5zm6 6.5a2.5 2.5 0 11-5 0 2.5 2.5 0 015 0zm5.707 3.207a1 1 0 00-1.414 0L11 16l-1.293-1.293a1 1 0 00-1.414 0L5 18v1h14v-5l-2.293-2.293z" fill="#324350"></path><path fill-rule="evenodd" clip-rule="evenodd" d="M2 5a3 3 0 013-3h14a3 3 0 013 3v14a3 3 0 01-3 3H5a3 3 0 01-3-3V5zm4 0a1 1 0 00-1 1v12a1 1 0 001 1h12a1 1 0 001-1V6a1 1 0 00-1-1H6z" fill="#AAB2BF"></path><path fill-rule="evenodd" clip-rule="evenodd" d="M9 4.25a.75.75 0 00-.75-.75H6A2.5 2.5 0 003.5 6v2.25a.75.75 0 001.5 0V6a1 1 0 011-1h2.25A.75.75 0 009 4.25zm6.75.75a.75.75 0 010-1.5H18A2.5 2.5 0 0120.5 6v2.25a.75.75 0 01-1.5 0V6a1 1 0 00-1-1h-2.25zM15 19.75a.75.75 0 01.75-.75H18a1 1 0 001-1v-2.25a.75.75 0 011.5 0V18a2.5 2.5 0 01-2.5 2.5h-2.25a.75.75 0 01-.75-.75zM4.25 15a.75.75 0 01.75.75V18a1 1 0 001 1h2.25a.75.75 0 010 1.5H6A2.5 2.5 0 013.5 18v-2.25a.75.75 0 01.75-.75z" fill="#fff"></path></svg>