<svg xmlns="http://www.w3.org/2000/svg" xmlns:xlink="http://www.w3.org/1999/xlink" preserveAspectRatio="xMidYMid meet" version="1.0" viewBox="0.0 -1.8 154.3 81.8" zoomAndPan="magnify" style="fill: rgb(0, 0, 0);" original_string_length="13055"><g><g id="__id4_shgr1t48yh"><path d="M142.9,63.5c-4,1.4-8.1-0.3-9.5-3.2c-1.2-2.5-0.4-6,2-8.3c0.2,0.1,0.4,0.2,0.6,0.1c2.4-1.2,5.3-0.2,6.4,2.3 c0.6,1.2,0.6,2.7-0.1,3.9c-0.6,1-1.7,1.8-2.9,1.3c-0.6-0.2-1-0.7-1-1.3c0-0.2,0.1-0.4,0.2-0.6c0.2-0.3,0.4-0.4,0.7-0.6 c0.7-0.5,0.4-1.8-0.5-1.8c-0.9,0-1.7,1-2.1,1.8c-0.4,0.9-0.4,1.9,0.1,2.8c1.1,2.3,4.2,2.3,6,0.9c2.4-2,2.4-5.7,0.8-8.2 c-0.9-1.3-2.1-2.3-3.6-2.7c-0.4-0.1-0.9-0.2-1.3-0.2c-0.4,0-0.7,0.1-1,0.3c-2-0.2-4.7-0.1-7.5,0.9c-8.6,3-10.6,11.4-15.9,17.5 C104.2,80,84.9,79.2,79.5,78.7c2.1-0.2,4.2-0.6,6.3-1.1c4.4-1.1,8.6-2.8,12.5-5.1c3.9-2.3,7.5-5.2,10.5-8.6 c1.5-1.7,2.9-3.5,4.1-5.4c0.6-1,1.2-2,1.7-3c0.3-0.5,0.5-1,0.7-1.5c0.2-0.5,0.6-1,0.6-1.5c0.1-0.9-1.2-1.4-1.7-2 c-0.8-0.9-1.1-2.2-0.8-3.3c0.3-1,1.1-1.9,2.1-2.4c0.4-0.2,1-0.2,1.3-0.5c0.2-0.2,0.3-0.5,0.2-0.8c0.4-0.6,0-1.6,0.1-2.4 c0-0.9,0.2-1.8,0.5-2.7c0.6-1.8,1.7-3.4,3.3-4.5c3.2-2.1,7.8-1.5,9.9,1.8c0.3,0.5,0.5,0.9,0.7,1.5c0.1,0.4,0.3,0.7,0.7,0.8 c0.6,0.2,1.3-0.3,1.3-0.9c3-2.7,7.5-3,10.6-0.2c0.7,0.6,1.3,1.4,1.7,2.2c0.3,0.6,0.7,1.3,1.5,0.9c1.6-0.8-0.6-3.3-1.3-4 c-1.4-1.5-3.4-2.6-5.4-2.9c-2.8-0.4-5.6,0.4-7.8,2.1c-1.7-2.9-4.9-4.7-8.3-4.5c-3.5,0.3-6.7,2.5-8.2,5.7c-0.5,1.1-0.8,2.2-1,3.4 c-0.1,0.6-0.1,1.2-0.1,1.8c0,0.4,0,0.8,0.1,1.3c-1.9,0.7-3.5,2.3-3.8,4.4c-0.3,2.1,0.6,4.2,2.3,5.5c-5.2,11.7-16.4,20.1-28.7,23 c-4.2,1-8.5,1.4-12.8,1.3c-0.3,0-0.4,0.2-0.5,0.4C58,73.5,53,62.8,34.1,57.1c-13.4-4-25.6-3-34.1-1.6c15.2-7.8,26.8-8.3,34.7-7.3 c17,2.2,21.8,12.2,40.3,13.6c3.7,0.3,24.4,1.8,30-9.5c4.2-8.5-0.9-23.1-8.7-24.5c-3.8-0.7-7.5,2-9.7,3.9c0,0-0.1-0.1-0.1-0.1 c-0.9-0.4-2.1-0.4-3-0.4c-1.7,0.1-3.4,0.7-4.7,1.7c-2.8,2.2-3.8,6-2,9.2c1.5,2.5,4.9,4,7.4,2.1c1.2-0.9,1.9-2.4,1.6-3.9 c-0.3-1.3-1.5-2.5-2.9-2.6c-1.3-0.1-1.3,1.6-0.3,2c0.7,0.2,1.4,0.7,1.3,1.6c-0.1,0.8-0.9,1.5-1.6,1.7c-1.6,0.4-3.2-0.8-3.9-2.2 c-0.7-1.4-0.6-3,0.1-4.3c0.8-1.4,2.1-2.5,3.7-3c2-0.6,4.1-0.2,5.8,0.8c0.2,0.1,0.4,0.1,0.6-0.1c2.6,3.4,3.3,7.5,1.8,10.6 c-1.9,3.9-6.6,4.7-7.4,4.8c-6.1,1.1-12.4-3.1-14.9-7.8c-3.8-7.1-0.5-18.2,9.5-25.3c3-8.7,10.2-15.1,18.9-16.6 c9.8-1.7,19.9,3.1,25.2,12c-0.1,0.1-0.3,0.2-0.3,0.4c-0.1,2.9-1.1,5.8-3.3,7.9c-2,1.9-4.8,3.1-7.5,2.8c-2.5-0.3-4.8-1.9-6-4.1 c-1-2-1-4.4,0-6.3c1-1.9,3-3.5,5.3-2.7c1.1,0.4,2.2,1.3,2.1,2.6c0,0.6-0.3,1.1-0.7,1.5c-0.5,0.5-0.9,0.6-1.6,0.7 c-0.8,0.1-1.2,1.2-0.5,1.8c0.8,0.6,2.2,0,2.9-0.5c2-1.5,2.4-4.3,0.8-6.2c-1.8-2.2-4.9-2.4-7.2-1c-2.2,1.3-3.5,3.6-3.8,6.1 c-2.3-2.1-5.5-3-8.5-2.1c-1.5,0.5-2.9,1.3-4,2.5c-0.5,0.6-1,1.3-1.4,2c-0.2,0.4-0.5,0.9-0.6,1.4c-2-0.4-4.1-0.2-6,0.7 c-0.1,0-0.1,0.1-0.2,0.2c-0.4,0.4-0.4,1.1,0.1,1.5c0.7,0.5,1.4-0.1,2.1-0.3c1.8-0.5,3.8-0.3,5.4,0.7c0.4,0.2,0.8,0.5,1.1,0.8 c0.3,0.3,0.6,0.7,0.9,1c0.5,0.5,1.3,0.1,1.5-0.5c0.3-0.8-0.6-1.6-1.2-2.1c-0.6-0.5-1.3-1-2-1.3c0.2-0.4,0.3-0.8,0.4-1.1 c0.4-0.7,0.8-1.3,1.4-1.8c1.1-1.1,2.5-1.8,4-2c1.5-0.2,3.1,0.2,4.4,1c0.6,0.4,1.2,0.9,1.7,1.5c0.4,0.4,0.6,1,1,1.3 c1.1,3.8,4.6,6.5,8.6,6.9c4.2,0.4,8.2-1.9,10.5-5.3c1.3-1.9,1.9-4.1,2.1-6.4c0,0,0-0.1,0-0.1c1.6-0.2,4.8-0.3,7.8,1.7 c5.2,3.5,4.8,10,4.7,10.3c9.1,1.4,16.1,8.5,17.4,17.4C154.3,51.1,150.2,59.3,142.9,63.5z" style="fill: rgb(255, 87, 87);"/></g><g id="__id5_shgr1t48yh"><path d="M78.4,36.7c0.8-1.4,2.1-2.5,3.7-3c0,0,0.1,0,0.1,0c3.2,1.2,6,3.4,7.9,6.1 c-1.2,1.2-2.4,2.5-3.5,3.9c-0.3-0.5-0.6-0.9-0.9-1.3c0.2-0.6,0.2-1.2,0.1-1.8c-0.3-1.3-1.5-2.5-2.9-2.6c-0.8-0.1-1.1,0.6-1,1.1 c-1.2-0.6-2.5-1.1-3.8-1.3C78.1,37.4,78.2,37,78.4,36.7z M106,29.6c2.2-0.9,4.5-1.5,6.9-2c-0.4-0.7-0.9-1.4-1.4-2.1 c-0.3,0-0.6,0-0.9,0c-4-0.3-7.4-3.1-8.6-6.9c-0.4-0.3-0.7-0.9-1-1.3c-0.5-0.6-1.1-1.1-1.7-1.5c-1.3-0.8-2.8-1.2-4.4-1 c-1.5,0.2-2.9,0.9-4,2c0,0-0.1,0.1-0.1,0.2C97,19.6,102.3,24.1,106,29.6z M76.8,46.2c1.7,0.3,3.1,1.8,3.1,3.6c0,0,0,0,0,0.1 c0,0,0,0.1,0,0.1c0.5,0,1,0.1,1.5,0.2c0,0,0,0,0,0c0.3,0,0.6,0,0.9-0.1c0,0,0,0,0,0c0.2-0.4,0.8-1.3,1.1-1.8 c-0.2-1.1-0.7-2.1-1.4-3c-1.9,0.1-3.9-1.1-5-2.8c0,0,0,0,0,0c-0.2,0-0.5,0-0.7,0c0,0,0,0,0,0v0.1c-2.2,0.3-4,1.6-5.1,3.4 c0,0,0,0,0,0c0.4,0.4,0.9,0.8,1.4,1.1c0,0,0,0,0.1,0.1c0.5,0.3,1,0.7,1.5,1c0,0,0,0,0,0C74.5,47.1,75.5,46.3,76.8,46.2z M145.4,32.6c1.5,0.8,2.9,1.8,4.3,2.8c0.1-0.2,0.2-0.3,0.4-0.5c0,0,0,0,0,0c-0.9-1.5-2.1-2.8-3.4-4C146.3,31.4,145.8,32,145.4,32.6 z M111.7,46.3c-2,0.8-3.9,1.8-5.6,3c0,0,0,0,0,0c-0.1,0.5-0.3,1.1-0.4,1.6c0,0,0,0,0,0c-0.2,0.5-0.4,1-0.6,1.5c0,0,0,0,0,0 c0,0,0,0,0,0c-0.2,0.5-0.5,0.9-0.8,1.3c-0.1,0.1-0.1,0.2-0.2,0.3c-0.3,0.4-0.6,0.8-0.9,1.1c0,0,0,0,0,0c-0.3,0.4-0.7,0.8-1.1,1.1 c0,0-0.1,0.1-0.1,0.1c-0.4,0.3-0.8,0.7-1.2,1c0,0,0,0,0,0c0.9,0.5,1.7,1.1,2.5,1.7c2.4-3.2,5.6-5.8,9.3-7.5 c-0.9-1.2-1.3-2.7-1.1-4.3C111.5,46.9,111.6,46.6,111.7,46.3z M132.3,27.6c2.4,0.5,4.7,1.2,6.9,2c0.6-0.9,1.2-1.7,1.9-2.5 c0,0,0,0,0,0c-0.4-0.2-0.7-0.3-1.1-0.4c-0.1,0-0.2-0.1-0.3-0.1c-0.3-0.1-0.6-0.2-1-0.3c-0.2-0.1-0.4-0.1-0.7-0.2 c-0.2-0.1-0.5-0.1-0.7-0.2c-0.5-0.1-1-0.2-1.5-0.3l0,0h0c0,0,0,0,0-0.1c0,0,0,0,0,0c0,0,0-0.1,0-0.2c0,0,0,0,0,0 c0-0.4,0-1.3-0.2-2.4C134.4,24.4,133.3,26,132.3,27.6z M109.9,23.4c-1.8-2.4-3.9-4.5-6.2-6.5c0.1,0.9,0.3,1.7,0.7,2.5 C105.5,21.4,107.7,22.9,109.9,23.4z M89.3,46.6C89.3,46.6,89.3,46.5,89.3,46.6c0.2-0.3,0.4-0.5,0.6-0.8c-0.4,0.5-0.8,0.9-1.1,1.4 C88.9,47,89.1,46.8,89.3,46.6z M146.3,56.3c-0.6-0.8-1.3-1.6-2-2.4c0.4,1.1,0.6,2.2,0.4,3.3C145.3,56.9,145.8,56.6,146.3,56.3z M138.9,55.3c0.6,0,1,0.6,0.9,1.2c0.8,0.8,1.5,1.6,2.2,2.5c0.2-0.2,0.3-0.4,0.5-0.6c0.7-1.2,0.6-2.7,0.1-3.9 c-1.1-2.4-4-3.4-6.4-2.3c-0.2,0.1-0.4,0-0.6-0.1c-0.1,0.1-0.2,0.2-0.2,0.2c-0.1,0.1-0.2,0.2-0.3,0.4c1.3,0.8,2.6,1.7,3.7,2.7 C138.7,55.4,138.8,55.3,138.9,55.3z M76,37.7c0.3-1.8,1.3-3.4,2.8-4.6c0.1-0.1,0.3-0.2,0.5-0.3c-0.7-0.1-1.3-0.2-2-0.3v0 c-0.1,0-0.2,0-0.3,0c-0.3,0-0.6,0-0.9,0v0.1c-3.7,0.2-7,1.6-9.7,3.8c0.1,2,0.6,4,1.5,5.6C69.8,39.7,72.7,38.1,76,37.7z M123.2,13.7 c0,0.2-0.1,0.4-0.1,0.5c4.3,0.2,7.9,2.6,10,6c0.4-0.5,0.8-0.9,1.2-1.3c-0.2-0.3-0.3-0.6-0.6-0.9c0,0-0.1-0.1-0.1-0.1 c-0.2-0.3-0.4-0.5-0.6-0.7c-0.1-0.1-0.1-0.1-0.2-0.2c-0.2-0.2-0.4-0.4-0.6-0.6c-0.1-0.1-0.1-0.1-0.2-0.2c-0.3-0.3-0.6-0.5-1-0.8 c0,0,0,0,0,0c-0.3-0.2-0.7-0.4-1-0.6c-0.1,0-0.1-0.1-0.2-0.1c-0.3-0.2-0.7-0.3-1-0.4c-0.1,0-0.1,0-0.2-0.1 c-0.3-0.1-0.6-0.2-0.9-0.3c-0.1,0-0.1,0-0.2,0c-0.3-0.1-0.6-0.1-0.9-0.2c-0.1,0-0.1,0-0.2,0c-0.3,0-0.6-0.1-0.9-0.1c0,0,0,0,0,0 c-0.3,0-0.6,0-0.8,0c0,0-0.1,0-0.1,0c-0.3,0-0.5,0-0.7,0c0,0,0,0,0,0C123.6,13.6,123.4,13.6,123.2,13.7 C123.2,13.6,123.2,13.7,123.2,13.7z M115.5,24.7c0,0.1,0,0.2-0.1,0.2c0.4,0.6,0.8,1.2,1.1,1.8c0.8-0.1,1.6-0.2,2.4-0.2 c0,0,0-0.1,0-0.1c0-2.1,1.7-3.7,3.7-3.7c2,0,3.7,1.6,3.7,3.7c0,0,0,0,0,0.1c0,0,0,0.1,0,0.1c0.8,0.1,1.5,0.1,2.3,0.2 c0.1-0.1,0.8-1.4,1.2-1.9c-0.7-3.3-3.6-5.8-7.2-5.8c-0.4,0-0.7,0-1,0.1c-0.2,0.3-0.3,0.7-0.5,1C119.7,22.1,117.8,23.7,115.5,24.7z M104.8,65.1c-2.4-2.2-5-4.1-7.9-5.7c0,0,0,0,0,0c-1.9,0.8-3.9,1.4-6,1.8c0,0,0,0,0,0c-1.5,0.3-3,0.5-4.5,0.7c-0.1,0-0.1,0-0.2,0 c-0.5,0-0.9,0.1-1.4,0.1c5.4,1.4,10.4,3.9,14.5,7.4C101.3,68.1,103.1,66.7,104.8,65.1z M124.5,30.7c3.4-0.3,6.6,1.6,8.3,4.5 c1.3-1.1,2.8-1.8,4.5-2.1c-4.6-1.7-9.5-2.6-14.7-2.6c-6.7,0-13,1.5-18.6,4.3c0.2,0.5,0.5,1,0.7,1.5c0,0,0,0.1,0,0.1 c0.2,0.5,0.4,1,0.6,1.5c0,0.1,0,0.1,0.1,0.2c0.2,0.5,0.3,1,0.5,1.6c0,0,0,0.1,0,0.1c0.1,0.5,0.3,1.1,0.4,1.7l0,0 c3-1.5,6.1-2.6,9.5-3.3c0.2-0.6,0.4-1.1,0.6-1.7C117.8,33.3,121,31,124.5,30.7z M111.7,13c-0.7,0.6-1.4,1.3-2,2 c0.5-0.1,1-0.2,1.4-0.6C111.4,14,111.7,13.5,111.7,13z M111.7,60.2c-0.9,1.3-1.9,2.5-2.9,3.6c1.2,1.1,2.2,2.3,3.3,3.6 c1.5-2.5,3.8-4.5,6.6-5.4c0.3-0.4,0.6-0.9,0.8-1.3c0.1-0.1,0.1-0.2,0.2-0.3c0.3-0.4,0.5-0.8,0.8-1.2c0-0.1,0.1-0.1,0.1-0.2 c0.3-0.4,0.6-0.8,0.8-1.2c0,0,0.1-0.1,0.1-0.1c0.3-0.4,0.7-0.9,1-1.3c0,0,0,0,0,0c0,0,0,0,0,0C118.5,56.3,114.7,57.8,111.7,60.2z M113.6,11.7c0.4,1.7-0.2,3.5-1.6,4.6c-0.7,0.5-2.1,1.2-2.9,0.5c-0.2-0.1-0.3-0.3-0.3-0.5c0,0-0.1,0.1-0.1,0.1 c1.3,1.2,2.4,2.5,3.5,3.8c1.9-3.2,5.2-5.5,9-6c0.1-0.5,0.1-1,0.1-1.5c0-0.2,0.1-0.3,0.3-0.4c-0.3-0.5-0.6-1-0.9-1.4 c-0.1-0.1-0.2-0.2-0.2-0.3c-0.3-0.4-0.6-0.8-0.9-1.2C117.4,9.8,115.4,10.6,113.6,11.7z M94.7,74.4c-1.8,0.9-3.7,1.6-5.6,2.3 c0.9,0.6,1.8,1.2,2.6,1.9c0.1,0,0.1,0,0.2,0c0.4,0,0.8-0.1,1.2-0.2c0.1,0,0.2,0,0.2,0c1.5-0.2,3-0.5,4.6-0.9 C97,76.4,95.9,75.3,94.7,74.4z M136.6,49.9c0.2,0,0.4,0,0.5,0c0.2,0,0.4,0,0.6,0c0,0,0.1,0,0.1,0c0.3-0.1,0.7-0.3,1-0.3 c0.4,0,0.8,0.1,1.2,0.2c-4.9-3.6-10.9-5.7-17.4-5.7c-2.6,0-5.2,0.4-7.6,1c-0.7,0.5-1.3,1.2-1.5,2c-0.3,1.2,0,2.4,0.8,3.3 c0,0.1,0.1,0.1,0.2,0.2c2.6-0.9,5.3-1.4,8.2-1.4c2.9,0,5.6,0.5,8.1,1.4c2-0.6,3.9-0.8,5.5-0.8C136.4,49.9,136.5,49.9,136.6,49.9z M153.2,43.4C153.2,43.4,153.2,43.4,153.2,43.4c-1.6-1.6-3.4-3.2-5.2-4.5c0.1,0.5,0,0.9-0.5,1.1c-0.8,0.4-1.2-0.3-1.5-0.9 c-0.4-0.8-1-1.5-1.7-2.2c-3-2.8-7.6-2.6-10.6,0.2c0,0.6-0.7,1.1-1.3,0.9c-0.4-0.1-0.6-0.5-0.7-0.8c-0.2-0.5-0.4-1-0.7-1.5 c-2.2-3.3-6.7-3.8-9.9-1.8c-1.4,0.9-2.4,2.3-3,3.8c1.5-0.2,3.1-0.3,4.7-0.3c12.2,0,22.9,6,29.4,15.2c0.5-1.5,0.9-3,1.1-4.5 c0,0,0-0.1,0-0.1c0-0.4,0.1-0.7,0.1-1.1c0,0,0-0.1,0-0.1C153.4,45.7,153.3,44.5,153.2,43.4z M76.9,72.8c3.5,0.1,6.9,1,9.9,2.5 c2.1-0.6,4.2-1.4,6.1-2.3c-4.5-3.2-9.9-5.1-15.7-5.3v0c-0.1,0-0.2,0-0.3,0c-0.3,0-0.5,0-0.8,0v0.1c-5.5,0.2-10.6,1.9-14.9,4.7 c0,0,0,0,0,0c0.8,0.5,1.6,1,2.4,1.5c0,0,0,0,0,0c0.8,0.5,1.6,0.9,2.5,1.3c0.1,0,0.1,0.1,0.2,0.1C69.6,73.7,73.1,72.8,76.9,72.8z M133.3,60.1c0,0.1,0.1,0.2,0.1,0.3c0,0,0,0,0,0c0.1,0.3,0.3,0.5,0.5,0.8c0,0,0.1,0.1,0.1,0.1c0.2,0.2,0.4,0.5,0.6,0.7c0,0,0,0,0,0 c0.5,0.5,1,0.9,1.7,1.2c0,0,0,0,0,0C135.4,62,134.4,61,133.3,60.1z M141.9,63.8c0.3-0.1,0.7-0.2,1-0.3c0,0,0,0,0.1,0 c0.4-0.2,0.8-0.5,1.2-0.8c0.4-0.3,0.7-0.5,1.1-0.8c0,0,0.1-0.1,0.1-0.1c0.8-0.6,1.5-1.3,2.2-2C145.6,61,143.7,62.3,141.9,63.8 C141.9,63.8,141.9,63.8,141.9,63.8z M106.3,66.5c-1.7,1.6-3.5,3-5.4,4.3c1.4,1.4,2.7,2.8,3.9,4.4c1.6-0.7,3.1-1.5,4.5-2.5 c0,0,0.1,0,0.1-0.1c0.4-0.3,0.8-0.6,1.3-0.9c0,0,0.1-0.1,0.1-0.1C109.4,69.8,107.9,68.1,106.3,66.5z M88.9,16 c0.1-0.2,0.3-0.3,0.4-0.5c1.1-1.2,2.5-2,4-2.5c1.8-0.6,3.8-0.4,5.5,0.2c-4.7-2.9-9.9-4.9-15.6-5.9c0,0,0,0,0,0 c-0.4,0.4-0.8,0.9-1.2,1.4c0,0.1-0.1,0.1-0.1,0.2c-0.3,0.4-0.7,0.9-1,1.3c-0.1,0.1-0.1,0.2-0.2,0.3c-0.3,0.4-0.6,0.9-0.9,1.3 c-0.1,0.1-0.1,0.2-0.2,0.3c-0.3,0.5-0.6,1.1-0.9,1.7c0,0,0,0,0,0C82.2,14.1,85.6,14.8,88.9,16z M92.7,6.2c1.5-2.2,3.2-4.2,5.1-6 c-0.5,0.1-1,0.1-1.5,0.2c0,0,0,0,0,0c-0.5,0.1-1,0.2-1.5,0.3c-0.2,0-0.3,0.1-0.5,0.1C94,0.9,93.7,0.9,93.4,1 c-0.2,0.1-0.4,0.1-0.7,0.2c-0.2,0.1-0.4,0.2-0.7,0.2c-0.3,0.1-0.5,0.2-0.8,0.3c-0.1,0-0.2,0.1-0.3,0.1c-1.1,0.5-2.2,1-3.2,1.7 c0,0,0,0,0,0c-0.4,0.2-0.7,0.5-1.1,0.7c0,0,0,0,0,0C88.8,4.8,90.8,5.4,92.7,6.2z M40.7,59.5c-2.7-1.9-6-3.1-9.6-3.2c0,0,0,0,0,0 c1,0.2,2,0.5,3,0.8c0,0,0,0,0,0c0,0,0,0,0,0C36.5,57.9,38.7,58.7,40.7,59.5z M102.9,11.7c0.6-1.1,1.5-2,2.6-2.6 c0.1-0.1,0.3-0.2,0.5-0.2c2.1-2,4.7-3.7,7.4-4.8c-0.1-0.1-0.3-0.2-0.4-0.2c-0.3-0.2-0.6-0.4-1-0.6c-0.1-0.1-0.3-0.1-0.4-0.2 c-0.6-0.3-1.3-0.6-1.9-0.9c-0.2-0.1-0.5-0.2-0.7-0.3c-0.3-0.1-0.5-0.2-0.8-0.3c-0.2-0.1-0.5-0.2-0.7-0.2c-3.4,2-6.3,4.7-8.6,7.9 C100.3,9.9,101.6,10.8,102.9,11.7z M30.7,49.3c7.9,0,15,3.9,19.4,9.8c1.4-1,2.8-1.9,4.3-2.8c-0.3-0.4-0.6-0.9-1-1.3 c-0.1,0-0.1-0.1-0.2-0.1c-0.3-0.2-0.7-0.3-1-0.5c-0.1-0.1-0.3-0.1-0.4-0.2c-0.2-0.1-0.4-0.2-0.6-0.3c-0.1-0.1-0.3-0.2-0.4-0.2 c-0.2-0.1-0.4-0.2-0.6-0.3c-0.2-0.1-0.3-0.2-0.5-0.2c-0.2-0.1-0.4-0.2-0.6-0.3c-0.2-0.1-0.3-0.2-0.5-0.2c-0.2-0.1-0.4-0.2-0.6-0.3 c-0.2-0.1-0.3-0.2-0.5-0.2c-0.2-0.1-0.4-0.2-0.6-0.3c-0.2-0.1-0.3-0.1-0.5-0.2c-0.2-0.1-0.4-0.2-0.6-0.3c-0.2-0.1-0.3-0.1-0.5-0.2 c-0.2-0.1-0.4-0.2-0.6-0.2c-0.2-0.1-0.4-0.1-0.5-0.2c-0.2-0.1-0.4-0.2-0.7-0.2c-0.2-0.1-0.4-0.1-0.6-0.2c-0.2-0.1-0.5-0.1-0.7-0.2 c-0.2-0.1-0.4-0.1-0.6-0.2c-0.2-0.1-0.5-0.1-0.7-0.2c-0.2-0.1-0.4-0.1-0.6-0.2c-0.3-0.1-0.5-0.1-0.8-0.2c-0.2,0-0.4-0.1-0.6-0.1 c-0.3-0.1-0.6-0.1-0.9-0.2c-0.2,0-0.4-0.1-0.5-0.1c-0.3-0.1-0.7-0.1-1-0.2c-0.2,0-0.3-0.1-0.5-0.1c-0.5-0.1-1-0.2-1.5-0.2 c-0.4-0.1-0.9-0.1-1.3-0.2c-0.1,0-0.3,0-0.4,0c-0.4,0-0.7-0.1-1.1-0.1c-0.1,0-0.3,0-0.4,0c-0.5,0-0.9,0-1.4-0.1c-0.2,0-0.4,0-0.6,0 c-0.3,0-0.6,0-0.9,0c-0.2,0-0.5,0-0.7,0c-0.4,0-0.7,0-1.1,0c-0.4,0-0.8,0-1.2,0.1c-0.2,0-0.5,0-0.7,0c-0.3,0-0.7,0.1-1,0.1 c-0.2,0-0.4,0-0.6,0.1c-0.7,0.1-1.4,0.2-2.1,0.3c-0.2,0-0.3,0-0.5,0.1c-0.4,0.1-0.8,0.1-1.2,0.2c-0.2,0-0.3,0.1-0.5,0.1 c-1.4,0.3-2.8,0.6-4.2,1c-0.2,0.1-0.4,0.1-0.6,0.2c-0.5,0.1-0.9,0.3-1.4,0.4c-1.6,1.2-3,2.6-4.3,4.2c0.6,0,1.1-0.1,1.7-0.1 c0.1,0,0.1,0,0.2,0c0.6,0,1.2-0.1,1.7-0.1c0,0,0.1,0,0.1,0c0.6,0,1.2,0,1.8,0c0,0,0,0,0,0c0.6,0,1.3,0,2,0 C20.1,51.2,25.2,49.3,30.7,49.3z M77,25.6c4.6,0.2,9,1.6,12.6,4.1c0.7-0.4,1.3-0.8,2.1-1.1c0,0,0.1,0,0.1,0 c0.2-0.1,0.4-0.2,0.6-0.2c0.1,0,0.1,0,0.2-0.1c0.2-0.1,0.4-0.1,0.6-0.2c0.1,0,0.1,0,0.2-0.1c0.2,0,0.4-0.1,0.5-0.1 c0.1,0,0.1,0,0.2,0c0.2,0,0.4,0,0.6-0.1c0.1,0,0.1,0,0.2,0c0.3,0,0.5,0,0.8,0c-3.6-3.2-8-5.5-12.8-6.7c-0.5,0.2-1.1,0.5-1.6,0.1 c-0.2-0.1-0.3-0.3-0.3-0.5c-1.2-0.2-2.4-0.3-3.6-0.4v0c-0.1,0-0.2,0-0.3,0c-0.3,0-0.6,0-0.9,0v0.1c-1.1,0-2.1,0.1-3.2,0.3 c0,0,0,0,0,0c-1,1-1.8,2.1-2.6,3.1c0,0,0,0,0,0c-0.4,0.5-0.7,1.1-1,1.6c0,0,0,0,0,0c-0.3,0.6-0.6,1.1-0.9,1.7c0,0,0,0,0,0 C71.1,26.2,74,25.6,77,25.6z M71,61.5c-4.6-0.7-8.3-2-11.7-3.5c0,0,0,0,0,0c-3.6,1.6-6.9,3.7-9.8,6.3c2.1,1.4,4.1,2.7,5.9,4.1 C59.9,64.9,65.2,62.5,71,61.5z" opacity=".2" style="fill: rgb(223, 229, 225);"/></g></g></svg>