<?xml version="1.0" encoding="UTF-8" standalone="no" ?>
<!DOCTYPE svg PUBLIC "-//W3C//DTD SVG 1.1//EN" "http://www.w3.org/Graphics/SVG/1.1/DTD/svg11.dtd">
<svg xmlns="http://www.w3.org/2000/svg" xmlns:xlink="http://www.w3.org/1999/xlink" version="1.1" width="60" height="40" viewBox="0 0 60 40" xml:space="preserve">
<desc>Created with Fabric.js 5.3.0</desc>
<defs>
</defs>
<g transform="matrix(0.3543862352 0 0 0.3543862352 30 21.4011199228)" id="LKzy_KpRXHUhSERqNbULb"  >
<g style=""   >
		<g transform="matrix(1 0 0 1 0 -30)" id="OEyDU1cE3g_pGypPe3Sz2"  >
<path style="stroke: none; stroke-width: 1; stroke-dasharray: none; stroke-linecap: butt; stroke-dashoffset: 0; stroke-linejoin: miter; stroke-miterlimit: 4; fill: rgb(255,255,255); fill-rule: nonzero; opacity: 1;"  transform=" translate(-74, -15)" d="M 0 30 L 0 0 L 148 0 L 148 30 z" stroke-linecap="round" />
</g>
		<g transform="matrix(1 0 0 1 0 -30)" id="6GZThUd6d7kdIdAvWOHW3"  >
<path style="stroke: rgb(0,0,0); stroke-width: 1; stroke-dasharray: none; stroke-linecap: butt; stroke-dashoffset: 0; stroke-linejoin: miter; stroke-miterlimit: 4; fill: none; fill-rule: nonzero; opacity: 0.15;"  transform=" translate(-74.5, -15.5)" d="M 0 31 L 0 0 L 149 0 L 149 31 z" stroke-linecap="round" />
</g>
		<g transform="matrix(1 0 0 1 -38 -30)" id="Yk4V6FHTeg7najZmrE_kN"  >
<path style="stroke: none; stroke-width: 1; stroke-dasharray: none; stroke-linecap: butt; stroke-dashoffset: 0; stroke-linejoin: miter; stroke-miterlimit: 4; fill: rgb(245,245,245); fill-rule: nonzero; opacity: 1;"  transform=" translate(-28, -5)" d="M 0 10 L 0 0 L 56 0 L 56 10 z" stroke-linecap="round" />
</g>
		<g transform="matrix(1 0 0 1 -0.5 18)" id="tNF2jGgFYzxQP6ArQk5yj"  >
<path style="stroke: none; stroke-width: 1; stroke-dasharray: none; stroke-linecap: butt; stroke-dashoffset: 0; stroke-linejoin: miter; stroke-miterlimit: 4; fill: rgb(245,245,245); fill-rule: nonzero; opacity: 1;"  transform=" translate(-74.5, -28)" d="M 0 56 L 0 0 L 149 0 L 149 56 z" stroke-linecap="round" />
</g>
		<g transform="matrix(1 0 0 1 -38 6)" id="4BxTdISWRDAF7mV1_3KEG"  >
<path style="stroke: none; stroke-width: 1; stroke-dasharray: none; stroke-linecap: butt; stroke-dashoffset: 0; stroke-linejoin: miter; stroke-miterlimit: 4; fill: rgb(245,245,245); fill-rule: nonzero; opacity: 1;"  transform=" translate(-28, -4)" d="M 0 8 L 0 0 L 56 0 L 56 8 z" stroke-linecap="round" />
</g>
		<g transform="matrix(1 0 0 1 -0.5 30)" id="gtJelWU4NVm_pLVZcXGwv"  >
<path style="stroke: none; stroke-width: 1; stroke-dasharray: none; stroke-linecap: butt; stroke-dashoffset: 0; stroke-linejoin: miter; stroke-miterlimit: 4; fill: rgb(186,224,255); fill-rule: nonzero; opacity: 1;"  transform=" translate(-74.5, -12)" d="M 0 24 L 0 0 L 149 0 L 149 24 z" stroke-linecap="round" />
</g>
		<g transform="matrix(1 0 0 1 -31.5 30)" id="w6k-bIwCAvbWom-4M-N6_"  >
<path style="stroke: none; stroke-width: 1; stroke-dasharray: none; stroke-linecap: butt; stroke-dashoffset: 0; stroke-linejoin: miter; stroke-miterlimit: 4; fill: rgb(22,119,255); fill-rule: nonzero; opacity: 1;"  transform=" translate(-34.5, -4)" d="M 0 8 L 0 0 L 69 0 L 69 8 z" stroke-linecap="round" />
</g>
</g>
</g>
</svg>