<?xml version="1.0" encoding="UTF-8" standalone="no" ?>
<!DOCTYPE svg PUBLIC "-//W3C//DTD SVG 1.1//EN" "http://www.w3.org/Graphics/SVG/1.1/DTD/svg11.dtd">
<svg xmlns="http://www.w3.org/2000/svg" xmlns:xlink="http://www.w3.org/1999/xlink" version="1.1" width="32" height="32" viewBox="0 0 32 32" xml:space="preserve">
<desc>Created with Fabric.js 5.3.0</desc>
<defs>
</defs>
<g transform="matrix(0.395130182 0 0 0.395130182 15.8703963296 23.9452393388)" id="Pi4p7YjHh28LHRki18y3u"  >
<g style=""   >
		<g transform="matrix(1 0 0 1 -0.5 -40)" id="h76CEMW0o7m0hXxQR_RmE"  >
<path style="stroke: none; stroke-width: 1; stroke-dasharray: none; stroke-linecap: butt; stroke-dashoffset: 0; stroke-linejoin: miter; stroke-miterlimit: 4; fill: rgb(22,119,255); fill-rule: nonzero; opacity: 1;"  transform=" translate(-39.5, -15.5)" d="M 0 31 L 0 0 L 79 0 L 79 31 z" stroke-linecap="round" />
</g>
		<g transform="matrix(1 0 0 1 11.7622070313 -39.8941333334)" style="" id="fMBCRRLnvkVbSz0XU5qi3"  >
		<text xml:space="preserve" font-family="PingFangSC-Regular, PingFang SC" font-size="14" font-style="normal" font-weight="normal" line-height="1" style="stroke: none; stroke-width: 1; stroke-dasharray: none; stroke-linecap: butt; stroke-dashoffset: 0; stroke-linejoin: miter; stroke-miterlimit: 4; fill: rgb(255,255,255); fill-rule: nonzero; opacity: 1; white-space: pre;" ><tspan x="-35.7622070313" y="4.39796" >||||||||||||||||||</tspan></text>
</g>
		<g transform="matrix(1 0 0 1 0 -0.5)" id="qifOjsXUacj_vPsa-Fsq-"  >
<path style="stroke: none; stroke-width: 1; stroke-dasharray: none; stroke-linecap: butt; stroke-dashoffset: 0; stroke-linejoin: miter; stroke-miterlimit: 4; fill: rgb(255,255,255); fill-rule: nonzero; opacity: 1;"  transform=" translate(-39, -15)" d="M 0 30 L 0 0 L 78 0 L 78 30 z" stroke-linecap="round" />
</g>
		<g transform="matrix(1 0 0 1 0 -0.5)" id="CXZUXtnqWYsS4WK1nojIr"  >
<path style="stroke: rgb(0,0,0); stroke-width: 1; stroke-dasharray: none; stroke-linecap: butt; stroke-dashoffset: 0; stroke-linejoin: miter; stroke-miterlimit: 4; fill: none; fill-rule: nonzero; opacity: 0.15;"  transform=" translate(-39.5, -15.5)" d="M 0 31 L 0 0 L 79 0 L 79 31 z" stroke-linecap="round" />
</g>
		<g transform="matrix(1 0 0 1 11.7622070313 0.1058666666)" style="" id="1bYKd2H0-a_h5jwrWlXB0"  >
		<text xml:space="preserve" font-family="PingFangSC-Regular, PingFang SC" font-size="14" font-style="normal" font-weight="normal" line-height="1" style="stroke: none; stroke-width: 1; stroke-dasharray: none; stroke-linecap: butt; stroke-dashoffset: 0; stroke-linejoin: miter; stroke-miterlimit: 4; fill: rgb(0,0,0); fill-opacity: 0.88; fill-rule: nonzero; opacity: 1; white-space: pre;" ><tspan x="-35.7622070313" y="4.39796" >||||||||||||||||||</tspan></text>
</g>
		<g transform="matrix(1 0 0 1 0 39.5)" id="1B5jhjRzveA-75E4KFIkv"  >
<path style="stroke: rgb(245,34,45); stroke-width: 1; stroke-dasharray: none; stroke-linecap: butt; stroke-dashoffset: 0; stroke-linejoin: miter; stroke-miterlimit: 4; fill: none; fill-rule: nonzero; opacity: 1;"  transform=" translate(-39.5, -15.5)" d="M 0 31 L 0 0 L 79 0 L 79 31 z" stroke-linecap="round" />
</g>
		<g transform="matrix(1 0 0 1 11.7622070313 40.1058666666)" style="" id="CuXUSTGnmuTEuQj0p7gRt"  >
		<text xml:space="preserve" font-family="PingFangSC-Regular, PingFang SC" font-size="14" font-style="normal" font-weight="normal" line-height="1" style="stroke: none; stroke-width: 1; stroke-dasharray: none; stroke-linecap: butt; stroke-dashoffset: 0; stroke-linejoin: miter; stroke-miterlimit: 4; fill: rgb(245,34,45); fill-rule: nonzero; opacity: 1; white-space: pre;" ><tspan x="-35.7622070313" y="4.39796" >||||||||||||||||||</tspan></text>
</g>
</g>
</g>
</svg>