<?xml version="1.0" encoding="UTF-8" standalone="no" ?>
<!DOCTYPE svg PUBLIC "-//W3C//DTD SVG 1.1//EN" "http://www.w3.org/Graphics/SVG/1.1/DTD/svg11.dtd">
<svg xmlns="http://www.w3.org/2000/svg" xmlns:xlink="http://www.w3.org/1999/xlink" version="1.1" width="60" height="40" viewBox="0 0 60 40" xml:space="preserve">
<desc>Created with Fabric.js 5.3.0</desc>
<defs>
</defs>
<g transform="matrix(0.7686080691 0 0 0.7686080691 40.0739978419 30.665868283)" id="T-Q8NZ4IMp2ZZAhwg8KVZ"  >
<g style=""   >
		<g transform="matrix(1 0 0 1 -44 -30.5)" id="VaBytWl61cVsdABPOgl3w"  >
<path style="stroke: none; stroke-width: 1; stroke-dasharray: none; stroke-linecap: butt; stroke-dashoffset: 0; stroke-linejoin: miter; stroke-miterlimit: 4; fill: rgb(22,119,255); fill-rule: nonzero; opacity: 1;"  transform=" translate(-7, -7)" d="M 0 14 L 0 0 L 14 0 L 14 14 z" stroke-linecap="round" />
</g>
		<g transform="matrix(1 0 0 1 -44 -30.5)" id="OnEtkH5bgEJ5oZO1Uzjhm"  >
<path style="stroke: none; stroke-width: 1; stroke-dasharray: none; stroke-linecap: butt; stroke-dashoffset: 0; stroke-linejoin: miter; stroke-miterlimit: 4; fill: rgb(0,0,0); fill-rule: nonzero; opacity: 0;"  transform=" translate(-4.375, -4.375)" d="M 0 8.75 L 0 0 L 8.75 0 L 8.75 8.75 z" stroke-linecap="round" />
</g>
		<g transform="matrix(1 0 0 1 -43.9999999992 -30.5007324212)" id="HacXnW1Z11dM64FSkms7N"  >
<path style="stroke: rgb(255,255,255); stroke-width: 0.833333333; stroke-dasharray: none; stroke-linecap: butt; stroke-dashoffset: 0; stroke-linejoin: miter; stroke-miterlimit: 4; fill: rgb(255,255,255); fill-rule: nonzero; opacity: 1;"  transform=" translate(-4.3750000008, -4.3742675787)" d="M 8.28125 1.23046875 L 7.59863281 1.23046875 C 7.50292969 1.23046875 7.41210938 1.27441406 7.35351563 1.34960938 L 3.32714844 6.45019531 L 1.39648438 4.00390625 C 1.33691406 3.92871094 1.24707031 3.88476562 1.15136719 3.88476562 L 0.46875 3.88476562 C 0.403320313 3.88476562 0.3671875 3.95996094 0.407226563 4.01074219 L 3.08203125 7.39941406 C 3.20703125 7.55761719 3.44726563 7.55761719 3.57324219 7.39941406 L 8.34277344 1.35546875 C 8.3828125 1.30566406 8.34667969 1.23046875 8.28125 1.23046875 Z" stroke-linecap="round" />
</g>
		<g transform="matrix(1 0 0 1 -44 -0.5)" id="nvDdl0F6s-XMLLpr9q3vg"  >
<path style="stroke: rgb(217,217,217); stroke-width: 1; stroke-dasharray: none; stroke-linecap: butt; stroke-dashoffset: 0; stroke-linejoin: miter; stroke-miterlimit: 4; fill: rgb(255,255,255); fill-rule: nonzero; opacity: 1;"  transform=" translate(-7, -7)" d="M 0 14 L 0 0 L 14 0 L 14 14 z" stroke-linecap="round" />
</g>
		<g transform="matrix(1 0 0 1 -44 29.5)" id="4iinQp8kGB--NnI8p3ZBI"  >
<path style="stroke: rgb(217,217,217); stroke-width: 1; stroke-dasharray: none; stroke-linecap: butt; stroke-dashoffset: 0; stroke-linejoin: miter; stroke-miterlimit: 4; fill: rgb(245,245,245); fill-rule: nonzero; opacity: 1;"  transform=" translate(-7, -7)" d="M 0 14 L 0 0 L 14 0 L 14 14 z" stroke-linecap="round" />
</g>
		<g transform="matrix(1 0 0 1 12 -0.5)" id="i9x2K83-4RaiFfolg0Lue"  >
<path style="stroke: none; stroke-width: 1; stroke-dasharray: none; stroke-linecap: butt; stroke-dashoffset: 0; stroke-linejoin: miter; stroke-miterlimit: 4; fill: rgb(235,235,235); fill-rule: nonzero; opacity: 1;"  transform=" translate(-40, -7)" d="M 0 14 L 0 0 L 80 0 L 80 14 z" stroke-linecap="round" />
</g>
		<g transform="matrix(1 0 0 1 12 -30.5)" id="-YWPnbZJL9kiPlRBhIqGk"  >
<path style="stroke: none; stroke-width: 1; stroke-dasharray: none; stroke-linecap: butt; stroke-dashoffset: 0; stroke-linejoin: miter; stroke-miterlimit: 4; fill: rgb(235,235,235); fill-rule: nonzero; opacity: 1;"  transform=" translate(-40, -7)" d="M 0 14 L 0 0 L 80 0 L 80 14 z" stroke-linecap="round" />
</g>
		<g transform="matrix(1 0 0 1 12 29.5)" id="yRBSKN71gHYbTn_9FND7K"  >
<path style="stroke: none; stroke-width: 1; stroke-dasharray: none; stroke-linecap: butt; stroke-dashoffset: 0; stroke-linejoin: miter; stroke-miterlimit: 4; fill: rgb(235,235,235); fill-rule: nonzero; opacity: 1;"  transform=" translate(-40, -7)" d="M 0 14 L 0 0 L 80 0 L 80 14 z" stroke-linecap="round" />
</g>
</g>
</g>
</svg>