<?xml version="1.0" encoding="UTF-8" standalone="no" ?>
<!DOCTYPE svg PUBLIC "-//W3C//DTD SVG 1.1//EN" "http://www.w3.org/Graphics/SVG/1.1/DTD/svg11.dtd">
<svg xmlns="http://www.w3.org/2000/svg" xmlns:xlink="http://www.w3.org/1999/xlink" version="1.1" width="60" height="40" viewBox="0 0 60 40" xml:space="preserve">
<desc>Created with Fabric.js 5.3.0</desc>
<defs>
</defs>
<g transform="matrix(0.4439467162 0 0 1.0084045192 31.4584596322 20.8123220346)" id="lPIAIyuNTNpPNydT9LfA6"  >
<path style="stroke: none; stroke-width: 1; stroke-dasharray: none; stroke-linecap: butt; stroke-dashoffset: 0; stroke-linejoin: miter; stroke-miterlimit: 4; fill: rgb(255,255,255); fill-rule: nonzero; opacity: 1;"  transform=" translate(-59, -15)" d="M 0 30 L 0 0 L 118 0 L 118 30 z" stroke-linecap="round" />
</g>
<g transform="matrix(0.4402471602 0 0 1.0084045192 31.4584596322 20.8123220346)" id="uyFoznpYzaqMeRLndX1dw"  >
<path style="stroke: rgb(0,0,0); stroke-width: 1; stroke-dasharray: none; stroke-linecap: butt; stroke-dashoffset: 0; stroke-linejoin: miter; stroke-miterlimit: 4; fill: none; fill-rule: nonzero; opacity: 0.15;"  transform=" translate(-59.5, -15.5)" d="M 0 31 L 0 0 L 119 0 L 119 31 z" stroke-linecap="round" />
</g>
<g transform="matrix(1.0084045192 0 0 1.0084045192 -1.1183751262 20.308119775)" id="yHq-eqR3mq79nqeGukSXN"  >
<path style="stroke: none; stroke-width: 1; stroke-dasharray: none; stroke-linecap: butt; stroke-dashoffset: 0; stroke-linejoin: miter; stroke-miterlimit: 4; fill: rgb(0,0,0); fill-opacity: 0.88; fill-rule: nonzero; opacity: 1;"  transform=" translate(-0.5, -7)" d="M 0 14 L 0 0 L 1 0 L 1 14 z" stroke-linecap="round" />
</g>
<g transform="matrix(1.0084045192 0 0 1.0084045192 30.450055113 20.8123220346)" id="d9kusESmjqUoQqvFnXeLn"  >
<path style="stroke: none; stroke-width: 1; stroke-dasharray: none; stroke-linecap: butt; stroke-dashoffset: 0; stroke-linejoin: miter; stroke-miterlimit: 4; fill: rgb(0,0,0); fill-opacity: 0.88; fill-rule: nonzero; opacity: 1;"  transform=" translate(-0.5, -7)" d="M 0 14 L 0 0 L 1 0 L 1 14 z" stroke-linecap="round" />
</g>
<g transform="matrix(1.0084045192 0 0 1.0084045192 27.4248415554 20.8123220346)" id="YSlttvAzbxGcnCs89hBLN"  >
<path style="stroke: none; stroke-width: 1; stroke-dasharray: none; stroke-linecap: butt; stroke-dashoffset: 0; stroke-linejoin: miter; stroke-miterlimit: 4; fill: rgb(0,0,0); fill-opacity: 0.88; fill-rule: nonzero; opacity: 1;"  transform=" translate(-0.5, -7)" d="M 0 14 L 0 0 L 1 0 L 1 14 z" stroke-linecap="round" />
</g>
<g transform="matrix(1.0084045192 0 0 1.0084045192 24.3996279978 20.8123220346)" id="Q8Cm-49kdtz6URFg783Y8"  >
<path style="stroke: none; stroke-width: 1; stroke-dasharray: none; stroke-linecap: butt; stroke-dashoffset: 0; stroke-linejoin: miter; stroke-miterlimit: 4; fill: rgb(0,0,0); fill-opacity: 0.88; fill-rule: nonzero; opacity: 1;"  transform=" translate(-0.5, -7)" d="M 0 14 L 0 0 L 1 0 L 1 14 z" stroke-linecap="round" />
</g>
<g transform="matrix(1.0084045192 0 0 1.0084045192 20.6376641862 20.8123220346)" id="wybCx4mD7sWUbTieUO_Et"  >
<path style="stroke: none; stroke-width: 1; stroke-dasharray: none; stroke-linecap: butt; stroke-dashoffset: 0; stroke-linejoin: miter; stroke-miterlimit: 4; fill: rgb(0,0,0); fill-opacity: 0.88; fill-rule: nonzero; opacity: 1;"  transform=" translate(-0.5, -7)" d="M 0 14 L 0 0 L 1 0 L 1 14 z" stroke-linecap="round" />
</g>
<g transform="matrix(1.0084045192 0 0 1.0084045192 17.6124506286 20.8123220346)" id="Da_NijG9H5W5dfSgHHcwU"  >
<path style="stroke: none; stroke-width: 1; stroke-dasharray: none; stroke-linecap: butt; stroke-dashoffset: 0; stroke-linejoin: miter; stroke-miterlimit: 4; fill: rgb(0,0,0); fill-opacity: 0.88; fill-rule: nonzero; opacity: 1;"  transform=" translate(-0.5, -7)" d="M 0 14 L 0 0 L 1 0 L 1 14 z" stroke-linecap="round" />
</g>
<g transform="matrix(1.0084045192 0 0 1.0084045192 14.587237071 20.8123220346)" id="kwrBNqdGuVFPWfkvcwsbP"  >
<path style="stroke: none; stroke-width: 1; stroke-dasharray: none; stroke-linecap: butt; stroke-dashoffset: 0; stroke-linejoin: miter; stroke-miterlimit: 4; fill: rgb(0,0,0); fill-opacity: 0.88; fill-rule: nonzero; opacity: 1;"  transform=" translate(-0.5, -7)" d="M 0 14 L 0 0 L 1 0 L 1 14 z" stroke-linecap="round" />
</g>
<g transform="matrix(1.0084045192 0 0 1.0084045192 11.5620235134 20.8123220346)" id="3VvZVD1qC4i-pCI8G4t-k"  >
<path style="stroke: none; stroke-width: 1; stroke-dasharray: none; stroke-linecap: butt; stroke-dashoffset: 0; stroke-linejoin: miter; stroke-miterlimit: 4; fill: rgb(0,0,0); fill-opacity: 0.88; fill-rule: nonzero; opacity: 1;"  transform=" translate(-0.5, -7)" d="M 0 14 L 0 0 L 1 0 L 1 14 z" stroke-linecap="round" />
</g>
<g transform="matrix(1 0 0 1 -58.5974349802 19.2682009802)" id="s5aet8c_hub-D5-sohGI7"  >
<path style="stroke: none; stroke-width: 1; stroke-dasharray: none; stroke-linecap: butt; stroke-dashoffset: 0; stroke-linejoin: miter; stroke-miterlimit: 4; fill: rgb(0,0,0); fill-opacity: 0.88; fill-rule: nonzero; opacity: 1;"  transform=" translate(-0.5042, -7.05883)" d="M 1.0084 14.11766 L 1.0084 0 L 0 0 L 0 14.11766 z" stroke-linecap="round" />
</g>
<g transform="matrix(1 0 0 1 -55.5722214226 19.2682009802)" id="ZmVrh_VcVLWvVN0tVmfut"  >
<path style="stroke: none; stroke-width: 1; stroke-dasharray: none; stroke-linecap: butt; stroke-dashoffset: 0; stroke-linejoin: miter; stroke-miterlimit: 4; fill: rgb(0,0,0); fill-opacity: 0.88; fill-rule: nonzero; opacity: 1;"  transform=" translate(-0.5042, -7.05883)" d="M 0 14.11766 L 0 0 L 1.0084 0 L 1.0084 14.11766 z" stroke-linecap="round" />
</g>
<g transform="matrix(1 0 0 1 -52.547007865 19.2682009802)" id="ZzAbUubmvCC0EWVUrY7bG"  >
<path style="stroke: none; stroke-width: 1; stroke-dasharray: none; stroke-linecap: butt; stroke-dashoffset: 0; stroke-linejoin: miter; stroke-miterlimit: 4; fill: rgb(0,0,0); fill-opacity: 0.88; fill-rule: nonzero; opacity: 1;"  transform=" translate(-0.5042, -7.05883)" d="M 1.0084 14.11766 L 1.0084 0 L 0 0 L 0 14.11766 z" stroke-linecap="round" />
</g>
<g transform="matrix(1 0 0 1 -49.5217943074 19.2682009802)" id="VQFYRSvOTEirpqFcJr_fT"  >
<path style="stroke: none; stroke-width: 1; stroke-dasharray: none; stroke-linecap: butt; stroke-dashoffset: 0; stroke-linejoin: miter; stroke-miterlimit: 4; fill: rgb(0,0,0); fill-opacity: 0.88; fill-rule: nonzero; opacity: 1;"  transform=" translate(-0.5042, -7.05883)" d="M 0 14.11766 L 0 0 L 1.0084 0 L 1.0084 14.11766 z" stroke-linecap="round" />
</g>
<g transform="matrix(1 0 0 1 -46.4965807498 19.2682009802)" id="9r4tTN5JLFcEAVgRRGzsD"  >
<path style="stroke: none; stroke-width: 1; stroke-dasharray: none; stroke-linecap: butt; stroke-dashoffset: 0; stroke-linejoin: miter; stroke-miterlimit: 4; fill: rgb(0,0,0); fill-opacity: 0.88; fill-rule: nonzero; opacity: 1;"  transform=" translate(-0.5042, -7.05883)" d="M 0 14.11766 L 0 0 L 1.0084 0 L 1.0084 14.11766 z" stroke-linecap="round" />
</g>
<g transform="matrix(1 0 0 1 -43.4713671922 19.2682009802)" id="3Jvgz4S690FhqrOLKtakl"  >
<path style="stroke: none; stroke-width: 1; stroke-dasharray: none; stroke-linecap: butt; stroke-dashoffset: 0; stroke-linejoin: miter; stroke-miterlimit: 4; fill: rgb(0,0,0); fill-opacity: 0.88; fill-rule: nonzero; opacity: 1;"  transform=" translate(-0.5042, -7.05883)" d="M 1.0084 14.11766 L 1.0084 0 L 0 0 L 0 14.11766 z" stroke-linecap="round" />
</g>
<g transform="matrix(1 0 0 1 -40.4461536346 19.2682009802)" id="UMx-Ka78I13lg2DODoeFM"  >
<path style="stroke: none; stroke-width: 1; stroke-dasharray: none; stroke-linecap: butt; stroke-dashoffset: 0; stroke-linejoin: miter; stroke-miterlimit: 4; fill: rgb(0,0,0); fill-opacity: 0.88; fill-rule: nonzero; opacity: 1;"  transform=" translate(-0.5042, -7.05883)" d="M 1.0084 14.11766 L 1.0084 0 L 0 0 L 0 14.11766 z" stroke-linecap="round" />
</g>
<g transform="matrix(1 0 0 1 -37.420940077 19.2682009802)" id="6FH-EVFWD2rUQZiba4R9P"  >
<path style="stroke: none; stroke-width: 1; stroke-dasharray: none; stroke-linecap: butt; stroke-dashoffset: 0; stroke-linejoin: miter; stroke-miterlimit: 4; fill: rgb(0,0,0); fill-opacity: 0.88; fill-rule: nonzero; opacity: 1;"  transform=" translate(-0.5042, -7.05883)" d="M 1.0084 14.11766 L 1.0084 0 L 0 0 L 0 14.11766 z" stroke-linecap="round" />
</g>
<g transform="matrix(1 0 0 1 -34.3957265194 19.2682009802)" id="_6uJcoQh37ERLjO8WSvGy"  >
<path style="stroke: none; stroke-width: 1; stroke-dasharray: none; stroke-linecap: butt; stroke-dashoffset: 0; stroke-linejoin: miter; stroke-miterlimit: 4; fill: rgb(0,0,0); fill-opacity: 0.88; fill-rule: nonzero; opacity: 1;"  transform=" translate(-0.5042, -7.05883)" d="M 0 14.11766 L 0 0 L 1.0084 0 L 1.0084 14.11766 z" stroke-linecap="round" />
</g>
<g transform="matrix(1.0084045192 0 0 1.0084045192 43.2514237186 20.8123220346)" id="rZsHXFxr90-vhmM7k3HGO"  >
<path style="stroke: none; stroke-width: 1; stroke-dasharray: none; stroke-linecap: butt; stroke-dashoffset: 0; stroke-linejoin: miter; stroke-miterlimit: 4; fill: rgb(0,0,0); fill-rule: nonzero; opacity: 0.65;"  transform=" translate(-5.46875, -5.46875)" d="M 10.5 0.984375 L 8.203125 0.984375 L 8.203125 0.109375 C 8.203125 0.04921875 8.15390625 0 8.09375 0 L 7.328125 0 C 7.26796875 0 7.21875 0.04921875 7.21875 0.109375 L 7.21875 0.984375 L 3.71875 0.984375 L 3.71875 0.109375 C 3.71875 0.04921875 3.66953125 0 3.609375 0 L 2.84375 0 C 2.78359375 0 2.734375 0.04921875 2.734375 0.109375 L 2.734375 0.984375 L 0.4375 0.984375 C 0.19550781 0.984375 0 1.17988281 0 1.421875 L 0 10.5 C 0 10.7419922 0.19550781 10.9375 0.4375 10.9375 L 10.5 10.9375 C 10.7419922 10.9375 10.9375 10.7419922 10.9375 10.5 L 10.9375 1.421875 C 10.9375 1.17988281 10.7419922 0.984375 10.5 0.984375 Z M 9.953125 9.953125 L 0.984375 9.953125 L 0.984375 4.7578125 L 9.953125 4.7578125 L 9.953125 9.953125 Z M 0.984375 3.828125 L 0.984375 1.96875 L 2.734375 1.96875 L 2.734375 2.625 C 2.734375 2.68515625 2.78359375 2.734375 2.84375 2.734375 L 3.609375 2.734375 C 3.66953125 2.734375 3.71875 2.68515625 3.71875 2.625 L 3.71875 1.96875 L 7.21875 1.96875 L 7.21875 2.625 C 7.21875 2.68515625 7.26796875 2.734375 7.328125 2.734375 L 8.09375 2.734375 C 8.15390625 2.734375 8.203125 2.68515625 8.203125 2.625 L 8.203125 1.96875 L 9.953125 1.96875 L 9.953125 3.828125 L 0.984375 3.828125 Z" stroke-linecap="round" />
</g>
<g transform="matrix(1.0084045192 0 0 1.0084045192 -2.1267796454 61.1485028026)" id="9LvZMqtfrHVYwu68GUA8o"  >
<path style="stroke: rgb(0,0,0); stroke-width: 1; stroke-dasharray: none; stroke-linecap: butt; stroke-dashoffset: 0; stroke-linejoin: miter; stroke-miterlimit: 4; fill: none; fill-rule: nonzero; opacity: 0.15;"  transform=" translate(-59.5, -11.5)" d="M 0 23 L 0 0 L 119 0 L 119 23 z" stroke-linecap="round" />
</g>
<g transform="matrix(1.0084045192 0 0 1.0084045192 -1.1183751262 61.6527050622)" id="uaXKDf96GMaabZ971ZCY3"  >
<path style="stroke: none; stroke-width: 1; stroke-dasharray: none; stroke-linecap: butt; stroke-dashoffset: 0; stroke-linejoin: miter; stroke-miterlimit: 4; fill: rgb(0,0,0); fill-opacity: 0.88; fill-rule: nonzero; opacity: 1;"  transform=" translate(-0.5, -6)" d="M 0 12 L 0 0 L 1 0 L 1 12 z" stroke-linecap="round" />
</g>
<g transform="matrix(1.0084045192 0 0 1.0084045192 -4.1435886838 61.6527050622)" id="jM4htLFSyEMPesWkY_oWh"  >
<path style="stroke: none; stroke-width: 1; stroke-dasharray: none; stroke-linecap: butt; stroke-dashoffset: 0; stroke-linejoin: miter; stroke-miterlimit: 4; fill: rgb(0,0,0); fill-opacity: 0.88; fill-rule: nonzero; opacity: 1;"  transform=" translate(-0.5, -6)" d="M 0 12 L 0 0 L 1 0 L 1 12 z" stroke-linecap="round" />
</g>
<g transform="matrix(1.0084045192 0 0 1.0084045192 -7.1688022414 61.6527050622)" id="v94YktEvkyS2bc0wtEamx"  >
<path style="stroke: none; stroke-width: 1; stroke-dasharray: none; stroke-linecap: butt; stroke-dashoffset: 0; stroke-linejoin: miter; stroke-miterlimit: 4; fill: rgb(0,0,0); fill-opacity: 0.88; fill-rule: nonzero; opacity: 1;"  transform=" translate(-0.5, -6)" d="M 0 12 L 0 0 L 1 0 L 1 12 z" stroke-linecap="round" />
</g>
<g transform="matrix(1.0084045192 0 0 1.0084045192 -10.194015799 61.6527050622)" id="QPN6A7Psc5KFbgw0DXDUI"  >
<path style="stroke: none; stroke-width: 1; stroke-dasharray: none; stroke-linecap: butt; stroke-dashoffset: 0; stroke-linejoin: miter; stroke-miterlimit: 4; fill: rgb(0,0,0); fill-opacity: 0.88; fill-rule: nonzero; opacity: 1;"  transform=" translate(-0.5, -6)" d="M 0 12 L 0 0 L 1 0 L 1 12 z" stroke-linecap="round" />
</g>
<g transform="matrix(1.0084045192 0 0 1.0084045192 -13.2192293566 61.6527050622)" id="aJqgBn_HWB6atUDN7Suk5"  >
<path style="stroke: none; stroke-width: 1; stroke-dasharray: none; stroke-linecap: butt; stroke-dashoffset: 0; stroke-linejoin: miter; stroke-miterlimit: 4; fill: rgb(0,0,0); fill-opacity: 0.88; fill-rule: nonzero; opacity: 1;"  transform=" translate(-0.5, -6)" d="M 0 12 L 0 0 L 1 0 L 1 12 z" stroke-linecap="round" />
</g>
<g transform="matrix(1.0084045192 0 0 1.0084045192 -16.2444429142 61.6527050622)" id="rx8fIUKu4Ingom5j9tckX"  >
<path style="stroke: none; stroke-width: 1; stroke-dasharray: none; stroke-linecap: butt; stroke-dashoffset: 0; stroke-linejoin: miter; stroke-miterlimit: 4; fill: rgb(0,0,0); fill-opacity: 0.88; fill-rule: nonzero; opacity: 1;"  transform=" translate(-0.5, -6)" d="M 0 12 L 0 0 L 1 0 L 1 12 z" stroke-linecap="round" />
</g>
<g transform="matrix(1.0084045192 0 0 1.0084045192 -19.2696564718 61.6527050622)" id="tcd7Z08vBuIQUF2wHwM_w"  >
<path style="stroke: none; stroke-width: 1; stroke-dasharray: none; stroke-linecap: butt; stroke-dashoffset: 0; stroke-linejoin: miter; stroke-miterlimit: 4; fill: rgb(0,0,0); fill-opacity: 0.88; fill-rule: nonzero; opacity: 1;"  transform=" translate(-0.5, -6)" d="M 0 12 L 0 0 L 1 0 L 1 12 z" stroke-linecap="round" />
</g>
<g transform="matrix(1.0084045192 0 0 1.0084045192 -22.2948700294 61.6527050622)" id="U2_Qg_fwFXEds5aUobhhy"  >
<path style="stroke: none; stroke-width: 1; stroke-dasharray: none; stroke-linecap: butt; stroke-dashoffset: 0; stroke-linejoin: miter; stroke-miterlimit: 4; fill: rgb(0,0,0); fill-opacity: 0.88; fill-rule: nonzero; opacity: 1;"  transform=" translate(-0.5, -6)" d="M 0 12 L 0 0 L 1 0 L 1 12 z" stroke-linecap="round" />
</g>
<g transform="matrix(1.0084045192 0 0 1.0084045192 -25.320083587 61.6527050622)" id="-JGg6-170PX-_yRy3hIE9"  >
<path style="stroke: none; stroke-width: 1; stroke-dasharray: none; stroke-linecap: butt; stroke-dashoffset: 0; stroke-linejoin: miter; stroke-miterlimit: 4; fill: rgb(0,0,0); fill-opacity: 0.88; fill-rule: nonzero; opacity: 1;"  transform=" translate(-0.5, -6)" d="M 0 12 L 0 0 L 1 0 L 1 12 z" stroke-linecap="round" />
</g>
<g transform="matrix(1.0084045192 0 0 1.0084045192 -28.3452971446 61.6527050622)" id="vKd8cSEdqwqj-KHZCAsE0"  >
<path style="stroke: none; stroke-width: 1; stroke-dasharray: none; stroke-linecap: butt; stroke-dashoffset: 0; stroke-linejoin: miter; stroke-miterlimit: 4; fill: rgb(0,0,0); fill-opacity: 0.88; fill-rule: nonzero; opacity: 1;"  transform=" translate(-0.5, -6)" d="M 0 12 L 0 0 L 1 0 L 1 12 z" stroke-linecap="round" />
</g>
<g transform="matrix(1.0084045192 0 0 1.0084045192 -31.3705107022 61.6527050622)" id="ctBt04S6YxKRzPEFfvw8v"  >
<path style="stroke: none; stroke-width: 1; stroke-dasharray: none; stroke-linecap: butt; stroke-dashoffset: 0; stroke-linejoin: miter; stroke-miterlimit: 4; fill: rgb(0,0,0); fill-opacity: 0.88; fill-rule: nonzero; opacity: 1;"  transform=" translate(-0.5, -6)" d="M 0 12 L 0 0 L 1 0 L 1 12 z" stroke-linecap="round" />
</g>
<g transform="matrix(1.0084045192 0 0 1.0084045192 -34.3957242598 61.6527050622)" id="0yr_BooiqYftnp5t9rLrz"  >
<path style="stroke: none; stroke-width: 1; stroke-dasharray: none; stroke-linecap: butt; stroke-dashoffset: 0; stroke-linejoin: miter; stroke-miterlimit: 4; fill: rgb(0,0,0); fill-opacity: 0.88; fill-rule: nonzero; opacity: 1;"  transform=" translate(-0.5, -6)" d="M 0 12 L 0 0 L 1 0 L 1 12 z" stroke-linecap="round" />
</g>
<g transform="matrix(1.0084045192 0 0 1.0084045192 -37.4209378174 61.6527050622)" id="7KDS1Oc99HNxsCopIJMNb"  >
<path style="stroke: none; stroke-width: 1; stroke-dasharray: none; stroke-linecap: butt; stroke-dashoffset: 0; stroke-linejoin: miter; stroke-miterlimit: 4; fill: rgb(0,0,0); fill-opacity: 0.88; fill-rule: nonzero; opacity: 1;"  transform=" translate(-0.5, -6)" d="M 0 12 L 0 0 L 1 0 L 1 12 z" stroke-linecap="round" />
</g>
<g transform="matrix(1.0084045192 0 0 1.0084045192 -40.446151375 61.6527050622)" id="ymtTVu11FwYJlCzLAUB-j"  >
<path style="stroke: none; stroke-width: 1; stroke-dasharray: none; stroke-linecap: butt; stroke-dashoffset: 0; stroke-linejoin: miter; stroke-miterlimit: 4; fill: rgb(0,0,0); fill-opacity: 0.88; fill-rule: nonzero; opacity: 1;"  transform=" translate(-0.5, -6)" d="M 0 12 L 0 0 L 1 0 L 1 12 z" stroke-linecap="round" />
</g>
<g transform="matrix(1.0084045192 0 0 1.0084045192 -43.4713649326 61.6527050622)" id="VmjNuxTI7LBss_mwCofIb"  >
<path style="stroke: none; stroke-width: 1; stroke-dasharray: none; stroke-linecap: butt; stroke-dashoffset: 0; stroke-linejoin: miter; stroke-miterlimit: 4; fill: rgb(0,0,0); fill-opacity: 0.88; fill-rule: nonzero; opacity: 1;"  transform=" translate(-0.5, -6)" d="M 0 12 L 0 0 L 1 0 L 1 12 z" stroke-linecap="round" />
</g>
<g transform="matrix(1.0084045192 0 0 1.0084045192 -46.4965784902 61.6527050622)" id="QSaLnb1ZfIL6_LOA0Cgfr"  >
<path style="stroke: none; stroke-width: 1; stroke-dasharray: none; stroke-linecap: butt; stroke-dashoffset: 0; stroke-linejoin: miter; stroke-miterlimit: 4; fill: rgb(0,0,0); fill-opacity: 0.88; fill-rule: nonzero; opacity: 1;"  transform=" translate(-0.5, -6)" d="M 0 12 L 0 0 L 1 0 L 1 12 z" stroke-linecap="round" />
</g>
<g transform="matrix(1.0084045192 0 0 1.0084045192 -49.5217920478 61.6527050622)" id="NQn0qOYRCFS9_tuKrKPHB"  >
<path style="stroke: none; stroke-width: 1; stroke-dasharray: none; stroke-linecap: butt; stroke-dashoffset: 0; stroke-linejoin: miter; stroke-miterlimit: 4; fill: rgb(0,0,0); fill-opacity: 0.88; fill-rule: nonzero; opacity: 1;"  transform=" translate(-0.5, -6)" d="M 0 12 L 0 0 L 1 0 L 1 12 z" stroke-linecap="round" />
</g>
<g transform="matrix(1.0084045192 0 0 1.0084045192 44.2598282378 61.1485028026)" id="dFEWJ9IZ-t8cTaRhCEFb3"  >
<path style="stroke: none; stroke-width: 1; stroke-dasharray: none; stroke-linecap: butt; stroke-dashoffset: 0; stroke-linejoin: miter; stroke-miterlimit: 4; fill: rgb(0,0,0); fill-rule: nonzero; opacity: 0.65;"  transform=" translate(-4.6875, -4.6875)" d="M 9 0.84375 L 7.03125 0.84375 L 7.03125 0.09375 C 7.03125 0.0421875 6.9890625 0 6.9375 0 L 6.28125 0 C 6.2296875 0 6.1875 0.0421875 6.1875 0.09375 L 6.1875 0.84375 L 3.1875 0.84375 L 3.1875 0.09375 C 3.1875 0.0421875 3.1453125 0 3.09375 0 L 2.4375 0 C 2.3859375 0 2.34375 0.0421875 2.34375 0.09375 L 2.34375 0.84375 L 0.375 0.84375 C 0.16757812 0.84375 0 1.01132813 0 1.21875 L 0 9 C 0 9.2074219 0.16757812 9.375 0.375 9.375 L 9 9.375 C 9.2074219 9.375 9.375 9.2074219 9.375 9 L 9.375 1.21875 C 9.375 1.01132813 9.2074219 0.84375 9 0.84375 Z M 8.53125 8.53125 L 0.84375 8.53125 L 0.84375 4.078125 L 8.53125 4.078125 L 8.53125 8.53125 Z M 0.84375 3.28125 L 0.84375 1.6875 L 2.34375 1.6875 L 2.34375 2.25 C 2.34375 2.3015625 2.3859375 2.34375 2.4375 2.34375 L 3.09375 2.34375 C 3.1453125 2.34375 3.1875 2.3015625 3.1875 2.25 L 3.1875 1.6875 L 6.1875 1.6875 L 6.1875 2.25 C 6.1875 2.3015625 6.2296875 2.34375 6.28125 2.34375 L 6.9375 2.34375 C 6.9890625 2.34375 7.03125 2.3015625 7.03125 2.25 L 7.03125 1.6875 L 8.53125 1.6875 L 8.53125 3.28125 L 0.84375 3.28125 Z" stroke-linecap="round" />
</g>
</svg>