<?xml version="1.0" encoding="UTF-8"?>
<svg width="120px" height="93px" viewBox="0 0 120 93" version="1.1" xmlns="http://www.w3.org/2000/svg" xmlns:xlink="http://www.w3.org/1999/xlink">
    <title>Dropdown</title>
    <g id="ç»„ä»¶éª¨æž¶å›¾æ›´æ–°_202311" stroke="none" stroke-width="1" fill="none" fill-rule="evenodd">
        <g id="ðŸŽ‰-5.0-æ–°ç‰ˆ---ç™½" transform="translate(-922.000000, -1129.000000)">
            <g id="Dropdown" transform="translate(922.000000, 1129.000000)">
                <g id="Navigation/DropdownMenu" transform="translate(0.000000, 21.500000)">
                    <g id="Z/Shape/RectangleRC/2px/RC-A" transform="translate(0.500000, 0.000000)">
                        <rect id="BG/fill" fill="#FFFFFF" fill-rule="nonzero" x="0.5" y="0.5" width="118" height="70" rx="1"></rect>
                        <rect id="outline" stroke="#000000" opacity="0.15" x="0" y="0" width="119" height="71" rx="2"></rect>
                    </g>
                    <g id="2.Navigation/Dropdown/MenuRow/2.Highlight" transform="translate(0.000000, 3.500000)">
                        <g id="Z/Shape/Rectangle">
                            <rect id="BG/fill" fill="#FFFFFF" fill-rule="nonzero" x="1" y="1" width="118" height="30"></rect>
                            <rect id="outline" opacity="0.15" x="0" y="0" width="120" height="32"></rect>
                        </g>
                        <g id="âœï¸Text" opacity="0.65" transform="translate(12.000000, 5.000000)" fill="#000000" fill-rule="nonzero" font-family="PingFangSC-Regular, PingFang SC" font-size="14" font-weight="normal">
                            <text id="Menu-item">
                                <tspan x="0" y="15">Menu item</tspan>
                            </text>
                        </g>
                    </g>
                </g>
                <g id="ç¼–ç»„å¤‡ä»½-66" transform="translate(1.000000, 0.000000)" fill="#1777FF" fill-rule="nonzero">
                    <rect id="çŸ©å½¢å¤‡ä»½-11å¤‡ä»½-25" x="60" y="0" width="1" height="14"></rect>
                    <rect id="çŸ©å½¢å¤‡ä»½-11å¤‡ä»½-24" x="57" y="0" width="1" height="14"></rect>
                    <rect id="çŸ©å½¢å¤‡ä»½-11å¤‡ä»½-23" x="54" y="0" width="1" height="14"></rect>
                    <rect id="çŸ©å½¢å¤‡ä»½-11å¤‡ä»½-22" x="51" y="0" width="1" height="14"></rect>
                    <rect id="çŸ©å½¢å¤‡ä»½-11å¤‡ä»½-21" x="48" y="0" width="1" height="14"></rect>
                    <rect id="çŸ©å½¢å¤‡ä»½-11å¤‡ä»½-20" x="45" y="0" width="1" height="14"></rect>
                    <rect id="çŸ©å½¢å¤‡ä»½-11å¤‡ä»½-19" x="42" y="0" width="1" height="14"></rect>
                    <rect id="çŸ©å½¢å¤‡ä»½-11å¤‡ä»½-3" x="39" y="0" width="1" height="14"></rect>
                    <rect id="çŸ©å½¢å¤‡ä»½-10å¤‡ä»½" x="36" y="0" width="1" height="14"></rect>
                    <rect id="çŸ©å½¢å¤‡ä»½-11" x="33" y="0" width="1" height="14"></rect>
                    <rect id="çŸ©å½¢å¤‡ä»½-10" x="30" y="0" width="1" height="14"></rect>
                    <rect id="çŸ©å½¢å¤‡ä»½-9" x="27" y="0" width="1" height="14"></rect>
                    <rect id="çŸ©å½¢å¤‡ä»½-8" x="24" y="0" width="1" height="14"></rect>
                    <rect id="çŸ©å½¢å¤‡ä»½-7" x="21" y="0" width="1" height="14"></rect>
                    <rect id="çŸ©å½¢å¤‡ä»½-6" x="18" y="0" width="1" height="14"></rect>
                    <rect id="çŸ©å½¢å¤‡ä»½-5" x="15" y="0" width="1" height="14"></rect>
                    <rect id="çŸ©å½¢å¤‡ä»½-4" x="12" y="0" width="1" height="14"></rect>
                    <rect id="çŸ©å½¢å¤‡ä»½-3" x="9" y="0" width="1" height="14"></rect>
                    <rect id="çŸ©å½¢å¤‡ä»½-2" x="6" y="0" width="1" height="14"></rect>
                    <rect id="çŸ©å½¢å¤‡ä»½" x="3" y="0" width="1" height="14"></rect>
                    <rect id="çŸ©å½¢" x="0" y="0" width="1" height="14"></rect>
                </g>
                <g id="down" transform="translate(71.000000, 1.000000)" fill-rule="nonzero">
                    <rect id="çŸ©å½¢" fill="#000000" opacity="0" x="0" y="0" width="14" height="14"></rect>
                    <path d="M12.0859375,3.5 L11.0605469,3.5 C10.9908203,3.5 10.9251953,3.53417969 10.8841797,3.59023438 L7,8.94414063 L3.11582031,3.59023438 C3.07480469,3.53417969 3.00917969,3.5 2.93945312,3.5 L1.9140625,3.5 C1.82519531,3.5 1.77324219,3.60117187 1.82519531,3.67363281 L6.64589844,10.3195313 C6.82089844,10.5601563 7.17910156,10.5601563 7.35273438,10.3195313 L12.1734375,3.67363281 C12.2267578,3.60117187 12.1748047,3.5 12.0859375,3.5 Z" id="è·¯å¾„" fill="#1677FF"></path>
                </g>
                <rect id="çŸ©å½¢å¤åˆ¶-55å¤‡ä»½-7" fill="#EBEBEB" fill-rule="nonzero" x="12" y="33" width="96" height="16"></rect>
                <rect id="çŸ©å½¢å¤åˆ¶-55å¤‡ä»½-8" fill="#EBEBEB" fill-rule="nonzero" x="12" y="66" width="96" height="16"></rect>
            </g>
        </g>
    </g>
</svg>