<?xml version="1.0" encoding="UTF-8" standalone="no" ?>
<!DOCTYPE svg PUBLIC "-//W3C//DTD SVG 1.1//EN" "http://www.w3.org/Graphics/SVG/1.1/DTD/svg11.dtd">
<svg xmlns="http://www.w3.org/2000/svg" xmlns:xlink="http://www.w3.org/1999/xlink" version="1.1" width="32" height="32" viewBox="0 0 32 32" xml:space="preserve">
<desc>Created with Fabric.js 5.3.0</desc>
<defs>
</defs>
<g transform="matrix(1 0 0 1 16.5283018868 16.5283018868)" id="LZsXogVCG--9ykAQhPa3R"  >
<g style=""   >
		<g transform="matrix(1 0 0 1 -40 0)" id="l89PP0OG2d_31E5YBpNiN"  >
<path style="stroke: none; stroke-width: 1; stroke-dasharray: none; stroke-linecap: butt; stroke-dashoffset: 0; stroke-linejoin: miter; stroke-miterlimit: 4; fill: rgb(0,0,0); fill-rule: nonzero; opacity: 0;"  transform=" translate(-16, -16)" d="M 0 32 L 0 0 L 32 0 L 32 32 z" stroke-linecap="round" />
</g>
		<g transform="matrix(1 0 0 1 -40 0)" id="WczGzmKMHrGpde4iw1sk8"  >
<path style="stroke: none; stroke-width: 1; stroke-dasharray: none; stroke-linecap: butt; stroke-dashoffset: 0; stroke-linejoin: miter; stroke-miterlimit: 4; fill: rgb(22,119,255); fill-rule: evenodd; opacity: 1;"  transform=" translate(-16, -16)" d="M 16 2 C 8.26875 2 2 8.26875 2 16 C 2 23.73125 8.26875 30 16 30 C 23.73125 30 30 23.73125 30 16 C 30 8.26875 23.73125 2 16 2 Z M 9 13.15625 C 9 12.328125 9.671875 11.65625 10.5 11.65625 C 11.328125 11.65625 12 12.328125 12 13.15625 C 12 13.984375 11.328125 14.65625 10.5 14.65625 C 9.671875 14.65625 9 13.984375 9 13.15625 Z M 16 21.65625 C 13.328125 21.65625 11.1375 19.553125 11 16.91875 C 10.99375 16.775 11.10625 16.65625 11.25 16.65625 L 12.753125 16.65625 C 12.884375 16.65625 12.996875 16.75625 13.00625 16.8875 C 13.125 18.434375 14.421875 19.65625 16 19.65625 C 17.578125 19.65625 18.878125 18.434375 18.99375 16.8875 C 19.003125 16.75625 19.115625 16.65625 19.246875 16.65625 L 20.75 16.65625 C 20.89375 16.65625 21.00625 16.775 21 16.91875 C 20.8625 19.553125 18.671875 21.65625 16 21.65625 Z M 21.5 14.65625 C 20.671875 14.65625 20 13.984375 20 13.15625 C 20 12.328125 20.671875 11.65625 21.5 11.65625 C 22.328125 11.65625 23 12.328125 23 13.15625 C 23 13.984375 22.328125 14.65625 21.5 14.65625 Z" stroke-linecap="round" />
</g>
		<g transform="matrix(1 0 0 1 0 0)" id="nd0qpp6jvunakzmWwxul9"  >
<path style="stroke: none; stroke-width: 1; stroke-dasharray: none; stroke-linecap: butt; stroke-dashoffset: 0; stroke-linejoin: miter; stroke-miterlimit: 4; fill: rgb(0,0,0); fill-rule: nonzero; opacity: 0;"  transform=" translate(-16, -16)" d="M 0 32 L 0 0 L 32 0 L 32 32 z" stroke-linecap="round" />
</g>
		<g transform="matrix(1 0 0 1 -0.0015146325 -0.001171875)" id="p3KtukFNcpnk78ksUvHo2"  >
<path style="stroke: none; stroke-width: 1; stroke-dasharray: none; stroke-linecap: butt; stroke-dashoffset: 0; stroke-linejoin: miter; stroke-miterlimit: 4; fill: rgb(186,231,255); fill-rule: nonzero; opacity: 1;"  transform=" translate(-15.9984853675, -15.998828125)" d="M 28.84375 8.8625 C 28.425 7.890625 27.825 7.021875 27.065625 6.275 C 26.30625 5.53125 25.425 4.95 24.440625 4.540625 C 23.425 4.11875 22.35 3.90625 21.240625 3.90625 C 19.7 3.90625 18.196875 4.328125 16.890625 5.125 C 16.578125 5.315625 16.28125 5.525 16 5.753125 C 15.71875 5.525 15.421875 5.315625 15.109375 5.125 C 13.803125 4.328125 12.3 3.90625 10.759375 3.90625 C 9.65 3.90625 8.575 4.11875 7.559375 4.540625 C 6.578125 4.946875 5.69375 5.53125 4.934375 6.275 C 4.171875 7.021875 3.575 7.890625 3.15625 8.8625 C 2.721875 9.871875 2.5 10.94375 2.5 12.046875 C 2.5 13.0875 2.7125 14.171875 3.134375 15.275 C 3.4875 16.196875 3.99375 17.153125 4.640625 18.11875 C 5.665625 19.646875 7.075 21.240625 8.825 22.85625 C 11.725 25.534375 14.596875 27.384375 14.71875 27.459375 L 15.459375 27.934375 C 15.7875 28.14375 16.209375 28.14375 16.5375 27.934375 L 17.278125 27.459375 C 17.4 27.38125 20.26875 25.534375 23.171875 22.85625 C 24.921875 21.240625 26.33125 19.646875 27.35625 18.11875 C 28.003125 17.153125 28.5125 16.196875 28.8625 15.275 C 29.284375 14.171875 29.4969395 13.0875 29.4969395 12.046875 C 29.5 10.94375 29.278125 9.871875 28.84375 8.8625 Z" stroke-linecap="round" />
</g>
		<g transform="matrix(1 0 0 1 40 0)" id="mc76AzjcuROi_quVDJZAA"  >
<path style="stroke: none; stroke-width: 1; stroke-dasharray: none; stroke-linecap: butt; stroke-dashoffset: 0; stroke-linejoin: miter; stroke-miterlimit: 4; fill: rgb(0,0,0); fill-rule: nonzero; opacity: 0;"  transform=" translate(-16, -16)" d="M 0 32 L 0 0 L 32 0 L 32 32 z" stroke-linecap="round" />
</g>
		<g transform="matrix(1 0 0 1 39.9999534183 -1.2278980967)" id="8F7gfDVsEz9xPzImhnYTs"  >
<path style="stroke: none; stroke-width: 1; stroke-dasharray: none; stroke-linecap: butt; stroke-dashoffset: 0; stroke-linejoin: miter; stroke-miterlimit: 4; fill: rgb(235,235,235); fill-rule: nonzero; opacity: 1;"  transform=" translate(-15.9999534183, -14.7721019033)" d="M 28.378125 11.034375 L 20.44375 9.88125 L 16.896875 2.690625 C 16.8 2.49375 16.640625 2.334375 16.44375 2.2375 C 15.95 1.99375 15.35 2.196875 15.103125 2.690625 L 11.55625 9.88125 L 3.621875 11.034375 C 3.403125 11.065625 3.203125 11.16875 3.05 11.325 C 2.665625 11.721875 2.671875 12.353125 3.06875 12.740625 L 8.809375 18.3375 L 7.453125 26.240625 C 7.415625 26.45625 7.45 26.68125 7.553125 26.875 C 7.809375 27.3625 8.415625 27.553125 8.903125 27.29375 L 16 23.5625 L 23.096875 27.29375 C 23.290625 27.396875 23.515625 27.43125 23.73125 27.39375 C 24.275 27.3 24.640625 26.784375 24.546875 26.240625 L 23.190625 18.3375 L 28.93125 12.740625 C 29.0875 12.5875 29.190625 12.3875 29.221875 12.16875 C 29.30625 11.621875 28.925 11.115625 28.378125 11.034375 Z" stroke-linecap="round" />
</g>
</g>
</g>
</svg>