<?xml version="1.0" encoding="UTF-8" standalone="no" ?>
<!DOCTYPE svg PUBLIC "-//W3C//DTD SVG 1.1//EN" "http://www.w3.org/Graphics/SVG/1.1/DTD/svg11.dtd">
<svg xmlns="http://www.w3.org/2000/svg" xmlns:xlink="http://www.w3.org/1999/xlink" version="1.1" width="60" height="40" viewBox="0 0 60 40" xml:space="preserve">
<desc>Created with Fabric.js 5.3.0</desc>
<defs>
</defs>
<g transform="matrix(0.7498408223 0 0 0.7498408223 30.0982354011 39.0963252683)" id="CM5lKuapdhAcXXChba67u"  >
<g style=""   >
		<g transform="matrix(1 0 0 1 0 0)" id="yAJ6o273I64YNtgJd58oK"  >
<path style="stroke: none; stroke-width: 1; stroke-dasharray: none; stroke-linecap: butt; stroke-dashoffset: 0; stroke-linejoin: miter; stroke-miterlimit: 4; fill: rgb(245,245,245); fill-rule: nonzero; opacity: 1;"  transform=" translate(-40, -52)" d="M 0 104 L 0 0 L 80 0 L 80 104 z" stroke-linecap="round" />
</g>
		<g transform="matrix(1 0 0 1 0 -12)" id="nPT03gMwBnsLOSOvqcglx"  >
<path style="stroke: none; stroke-width: 1; stroke-dasharray: none; stroke-linecap: butt; stroke-dashoffset: 0; stroke-linejoin: miter; stroke-miterlimit: 4; fill: rgb(186,224,255); fill-rule: nonzero; opacity: 1;"  transform=" translate(-37, -11)" d="M 0 22 L 0 0 L 74 0 L 74 22 z" stroke-linecap="round" />
</g>
		<g transform="matrix(1 0 0 1 -13 -36)" id="CGNBSaJhFI2QB6LFMnsqL"  >
<path style="stroke: none; stroke-width: 1; stroke-dasharray: none; stroke-linecap: butt; stroke-dashoffset: 0; stroke-linejoin: miter; stroke-miterlimit: 4; fill: rgb(235,235,235); fill-rule: nonzero; opacity: 1;"  transform=" translate(-17, -4)" d="M 0 8 L 0 0 L 34 0 L 34 8 z" stroke-linecap="round" />
</g>
		<g transform="matrix(1 0 0 1 -13 12)" id="LACyvOjYtso452S6SkWTC"  >
<path style="stroke: none; stroke-width: 1; stroke-dasharray: none; stroke-linecap: butt; stroke-dashoffset: 0; stroke-linejoin: miter; stroke-miterlimit: 4; fill: rgb(235,235,235); fill-rule: nonzero; opacity: 1;"  transform=" translate(-17, -4)" d="M 0 8 L 0 0 L 34 0 L 34 8 z" stroke-linecap="round" />
</g>
		<g transform="matrix(1 0 0 1 -13 36)" id="7EpUJ0P7dTbOQ94pp3ADV"  >
<path style="stroke: none; stroke-width: 1; stroke-dasharray: none; stroke-linecap: butt; stroke-dashoffset: 0; stroke-linejoin: miter; stroke-miterlimit: 4; fill: rgb(235,235,235); fill-rule: nonzero; opacity: 1;"  transform=" translate(-17, -4)" d="M 0 8 L 0 0 L 34 0 L 34 8 z" stroke-linecap="round" />
</g>
		<g transform="matrix(1 0 0 1 -13 -12)" id="abX_8GvwqrO3dcDLvftJp"  >
<path style="stroke: none; stroke-width: 1; stroke-dasharray: none; stroke-linecap: butt; stroke-dashoffset: 0; stroke-linejoin: miter; stroke-miterlimit: 4; fill: rgb(235,235,235); fill-rule: nonzero; opacity: 1;"  transform=" translate(-17, -4)" d="M 0 8 L 0 0 L 34 0 L 34 8 z" stroke-linecap="round" />
</g>
</g>
</g>
</svg>