<?xml version="1.0" encoding="UTF-8" standalone="no" ?>
<!DOCTYPE svg PUBLIC "-//W3C//DTD SVG 1.1//EN" "http://www.w3.org/Graphics/SVG/1.1/DTD/svg11.dtd">
<svg xmlns="http://www.w3.org/2000/svg" xmlns:xlink="http://www.w3.org/1999/xlink" version="1.1" width="60" height="40" viewBox="0 0 60 40" xml:space="preserve">
<desc>Created with Fabric.js 5.3.0</desc>
<defs>
</defs>
<g transform="matrix(0.4734921477 0 0 0.7656996876 30 22.0571539862)" id="HRY06tjqNuNxpiWdtTZGP"  >
<path style="stroke: rgb(0,0,0); stroke-width: 1; stroke-dasharray: none; stroke-linecap: butt; stroke-dashoffset: 0; stroke-linejoin: miter; stroke-miterlimit: 4; fill: none; fill-rule: evenodd; opacity: 0.15;"  transform=" translate(-59.5, -16)" d="M 0 6.00017566 C 0 2.68637015 2.68062968 0 6.00324648 0 L 112.996754 0 C 116.312255 0 119 2.68697795 119 6.00017566 L 119 25.9998243 C 119 29.3136299 116.31937 32 112.996754 32 L 6.00324648 32 C 2.687745 32 0 29.3130221 0 25.9998243 L 0 6.00017566 Z" stroke-linecap="round" />
</g>
<g transform="matrix(0.7656996876 0 0 0.7656996876 84.0998513886 25.1199527366)" id="NGnbLunCG1qSh0f9el14F"  >
<path style="stroke: none; stroke-width: 1; stroke-dasharray: none; stroke-linecap: butt; stroke-dashoffset: 0; stroke-linejoin: miter; stroke-miterlimit: 4; fill: rgb(0,0,0); fill-rule: evenodd; opacity: 1;"  transform=" translate(-10.5, -22.5)" d="M 0 15 L 21 15 L 21 28.0081158 C 21 29.1082031 20.0976562 30 19.0054385 30 L 0 30 L 0 15 Z" stroke-linecap="round" />
</g>
<g transform="matrix(0.7656996876 0 0 0.7656996876 84.0998513886 13.6344574226)" id="6cFCTUTCfjzO7VxmBQ28R"  >
<path style="stroke: none; stroke-width: 1; stroke-dasharray: none; stroke-linecap: butt; stroke-dashoffset: 0; stroke-linejoin: miter; stroke-miterlimit: 4; fill: rgb(0,0,0); fill-rule: evenodd; opacity: 1;"  transform=" translate(-10.5, -7.5)" d="M 0 0 L 19.0054385 0 C 20.1070044 0 21 0.893397331 21 1.99188419 L 21 15 L 0 15 L 0 0 Z" stroke-linecap="round" />
</g>
<g transform="matrix(0.7656996876 0 0 0.7656996876 84.4827012324 14.0173072664)" id="polIJ3TDS-SJqc4Qwkc1v"  >
<path style="stroke: none; stroke-width: 1; stroke-dasharray: none; stroke-linecap: butt; stroke-dashoffset: 0; stroke-linejoin: miter; stroke-miterlimit: 4; fill: rgb(0,0,0); fill-rule: nonzero; opacity: 0;"  transform=" translate(-4, -4)" d="M 0 8 L 0 0 L 8 0 L 8 8 z" stroke-linecap="round" />
</g>
<g transform="matrix(0.7656996876 0 0 0.7656996876 84.4826518785 14.0173072664)" id="hOpkCrFpxJAZrD4wAm-n8"  >
<path style="stroke: none; stroke-width: 1; stroke-dasharray: none; stroke-linecap: butt; stroke-dashoffset: 0; stroke-linejoin: miter; stroke-miterlimit: 4; fill: rgb(0,0,0); fill-rule: evenodd; opacity: 0.45;"  transform=" translate(-3.999935544, -4)" d="M 6.95703125 5.90078125 L 4.20234375 2.103125 C 4.10234375 1.965625 3.89765625 1.965625 3.7984375 2.103125 L 1.04296875 5.90078125 C 1.01328125 5.9421875 1.0421875 6 1.09375 6 L 1.6796875 6 C 1.71953125 6 1.75703125 5.98046875 1.78046875 5.9484375 L 4 2.8890625 L 6.21953125 5.9484375 C 6.24296875 5.98046875 6.28046875 6 6.3203125 6 L 6.90625 6 C 6.95703125 6 6.98671875 5.9421875 6.95703125 5.90078125 L 6.95703125 5.90078125 Z" stroke-linecap="round" />
</g>
<g transform="matrix(0.7656996876 0 0 0.7656996876 84.4827012324 25.5028025804)" id="As9OR5-HHKeO8GLEXchf0"  >
<path style="stroke: none; stroke-width: 1; stroke-dasharray: none; stroke-linecap: butt; stroke-dashoffset: 0; stroke-linejoin: miter; stroke-miterlimit: 4; fill: none; fill-rule: nonzero; opacity: 1;"  transform=" translate(-4, -4)" d="M 0 8 L 0 0 L 8 0 L 8 8 z" stroke-linecap="round" />
</g>
<g transform="matrix(0.7656996876 0 0 0.7656996876 84.45873553 25.5028025804)" id="Or2ovPi-Iqq_9RwRvrF8x"  >
<path style="stroke: none; stroke-width: 1; stroke-dasharray: none; stroke-linecap: butt; stroke-dashoffset: 0; stroke-linejoin: miter; stroke-miterlimit: 4; fill: rgb(0,0,0); fill-opacity: 0.45; fill-rule: evenodd; opacity: 1;"  transform=" translate(-3.9687009114, -4)" d="M 6.87509895 2 L 6.28916145 2 C 6.2493177 2 6.2118177 2.01953125 6.1883802 2.0515625 L 3.96884895 5.1109375 L 1.7493177 2.0515625 C 1.7258802 2.01953125 1.6883802 2 1.64853645 2 L 1.06259895 2 C 1.0118177 2 0.982130198 2.0578125 1.0118177 2.09921875 L 3.7665052 5.896875 C 3.8665052 6.034375 4.0711927 6.034375 4.17041145 5.896875 L 6.92509895 2.09921875 C 6.9555677 2.0578125 6.9258802 2 6.87509895 2 Z" stroke-linecap="round" />
</g>
<g transform="matrix(0.7656996876 0 0 0.7656996876 30.186186013 21.7432171143)" style="" id="0VjqqKrTzvWp0x_0ThE0m"  >
		<text xml:space="preserve" font-family="PingFangSC-Regular, PingFang SC" font-size="14" font-style="normal" font-weight="normal" line-height="1" style="stroke: none; stroke-width: 1; stroke-dasharray: none; stroke-linecap: butt; stroke-dashoffset: 0; stroke-linejoin: miter; stroke-miterlimit: 4; fill: rgb(0,0,0); fill-opacity: 0.88; fill-rule: evenodd; opacity: 1; white-space: pre;" ><tspan x="-29.5415039063" y="4.39796" >Number</tspan></text>
</g>
</svg>