<?xml version="1.0" encoding="UTF-8" standalone="no" ?>
<!DOCTYPE svg PUBLIC "-//W3C//DTD SVG 1.1//EN" "http://www.w3.org/Graphics/SVG/1.1/DTD/svg11.dtd">
<svg xmlns="http://www.w3.org/2000/svg" xmlns:xlink="http://www.w3.org/1999/xlink" version="1.1" width="60" height="40" viewBox="0 0 60 40" xml:space="preserve">
<desc>Created with Fabric.js 5.3.0</desc>
<defs>
</defs>
<g transform="matrix(1.1406953429 0 0 1.1406953429 82.8785230664 21.0471204188)" id="QM0Xmwp2tu0oClcrD97d6"  >
<g style=""   >
		<g transform="matrix(1 0 0 1 -60 0)" id="N2FAhBFSGr3OBn1M8KLtS"  >
<path style="stroke: rgb(22,119,255); stroke-width: 1; stroke-dasharray: none; stroke-linecap: butt; stroke-dashoffset: 0; stroke-linejoin: miter; stroke-miterlimit: 4; fill: rgb(255,255,255); fill-rule: nonzero; opacity: 1;"  transform=" translate(-10.5, -10.5)" d="M 0 21 L 0 0 L 21 0 L 21 21 z" stroke-linecap="round" />
</g>
		<g transform="matrix(1 0 0 1 -56.8392265625 -0.3941333334)" style="" id="KGpnYbnDYnxeDMMX9bc40"  >
		<text xml:space="preserve" font-family="PingFangSC-Regular, PingFang SC" font-size="14" font-style="normal" font-weight="normal" line-height="1" style="stroke: none; stroke-width: 1; stroke-dasharray: none; stroke-linecap: butt; stroke-dashoffset: 0; stroke-linejoin: miter; stroke-miterlimit: 4; fill: rgb(22,119,255); fill-rule: evenodd; opacity: 1; white-space: pre;" ><tspan x="-5.9677734375" y="4.39796" >1</tspan></text>
</g>
		<g transform="matrix(1 0 0 1 -28.2322265625 -0.3941333334)" style="" id="W41Q_wkE05yNnb9dO8efA"  >
		<text xml:space="preserve" font-family="PingFangSC-Regular, PingFang SC" font-size="14" font-style="normal" font-weight="normal" line-height="1" style="stroke: none; stroke-width: 1; stroke-dasharray: none; stroke-linecap: butt; stroke-dashoffset: 0; stroke-linejoin: miter; stroke-miterlimit: 4; fill: rgb(0,0,0); fill-opacity: 0.65; fill-rule: evenodd; opacity: 1; white-space: pre;" ><tspan x="-5.9677734375" y="4.39796" >2</tspan></text>
</g>
		<g transform="matrix(1 0 0 1 1.7677734375 -0.3941333334)" style="" id="2522U4ElFj5QqSgsoFile"  >
		<text xml:space="preserve" font-family="PingFangSC-Regular, PingFang SC" font-size="14" font-style="normal" font-weight="normal" line-height="1" style="stroke: none; stroke-width: 1; stroke-dasharray: none; stroke-linecap: butt; stroke-dashoffset: 0; stroke-linejoin: miter; stroke-miterlimit: 4; fill: rgb(0,0,0); fill-opacity: 0.65; fill-rule: evenodd; opacity: 1; white-space: pre;" ><tspan x="-5.9677734375" y="4.39796" >3</tspan></text>
</g>
		<g transform="matrix(1 0 0 1 31.7677734375 -0.3941333334)" style="" id="JeysMTh-Kv9mRvj5mY5DB"  >
		<text xml:space="preserve" font-family="PingFangSC-Regular, PingFang SC" font-size="14" font-style="normal" font-weight="normal" line-height="1" style="stroke: none; stroke-width: 1; stroke-dasharray: none; stroke-linecap: butt; stroke-dashoffset: 0; stroke-linejoin: miter; stroke-miterlimit: 4; fill: rgb(0,0,0); fill-opacity: 0.65; fill-rule: evenodd; opacity: 1; white-space: pre;" ><tspan x="-5.9677734375" y="4.39796" >4</tspan></text>
</g>
		<g transform="matrix(1 0 0 1 61.7677734375 -0.3941333334)" style="" id="Z3yhN3WIh4yf2iAMvkEfC"  >
		<text xml:space="preserve" font-family="PingFangSC-Regular, PingFang SC" font-size="14" font-style="normal" font-weight="normal" line-height="1" style="stroke: none; stroke-width: 1; stroke-dasharray: none; stroke-linecap: butt; stroke-dashoffset: 0; stroke-linejoin: miter; stroke-miterlimit: 4; fill: rgb(0,0,0); fill-opacity: 0.65; fill-rule: evenodd; opacity: 1; white-space: pre;" ><tspan x="-5.9677734375" y="4.39796" >5</tspan></text>
</g>
		<g transform="matrix(1 0 0 1 -93 0)" id="epV-FPCy1Sa9rb5HSIt9p"  >
<path style="stroke: none; stroke-width: 1; stroke-dasharray: none; stroke-linecap: butt; stroke-dashoffset: 0; stroke-linejoin: miter; stroke-miterlimit: 4; fill: rgb(0,0,0); fill-rule: nonzero; opacity: 0;"  transform=" translate(-8, -8)" d="M 0 16 L 0 0 L 16 0 L 16 16 z" stroke-linecap="round" />
</g>
		<g transform="matrix(1 0 0 1 -93 0)" id="x5RCQoMIVYQ9JoMuWiL19"  >
<path style="stroke: none; stroke-width: 1; stroke-dasharray: none; stroke-linecap: butt; stroke-dashoffset: 0; stroke-linejoin: miter; stroke-miterlimit: 4; fill: rgb(0,0,0); fill-rule: nonzero; opacity: 0;"  transform=" translate(-8, -8)" d="M 0 16 L 0 0 L 16 0 L 16 16 z" stroke-linecap="round" />
</g>
		<g transform="matrix(1 0 0 1 -93.40625 -0.00078125)" id="mLKxhqerkk9Ja0YA-g5FU"  >
<path style="stroke: none; stroke-width: 1; stroke-dasharray: none; stroke-linecap: butt; stroke-dashoffset: 0; stroke-linejoin: miter; stroke-miterlimit: 4; fill: rgb(0,0,0); fill-rule: evenodd; opacity: 0.88;"  transform=" translate(-7.59375, -7.99921875)" d="M 11.3125 3.4109375 L 11.3125 2.203125 C 11.3125 2.0984375 11.1921875 2.040625 11.1109375 2.1046875 L 4.0671875 7.60625 C 3.8109375 7.80625 3.8109375 8.1921875 4.0671875 8.3921875 L 11.1109375 13.89375 C 11.19375 13.9578125 11.3125 13.9 11.3125 13.7953125 L 11.3125 12.5875 C 11.3125 12.5109375 11.2765625 12.4375 11.2171875 12.390625 L 5.5921875 8 L 11.2171875 3.6078125 C 11.2765625 3.5609375 11.3125 3.4875 11.3125 3.4109375 Z" stroke-linecap="round" />
</g>
		<g transform="matrix(1 0 0 1 93 0)" id="aLSNTsyrOf_crwbjPv9tL"  >
<path style="stroke: none; stroke-width: 1; stroke-dasharray: none; stroke-linecap: butt; stroke-dashoffset: 0; stroke-linejoin: miter; stroke-miterlimit: 4; fill: rgb(0,0,0); fill-rule: nonzero; opacity: 0;"  transform=" translate(-8, -8)" d="M 0 16 L 0 0 L 16 0 L 16 16 z" stroke-linecap="round" />
</g>
		<g transform="matrix(1 0 0 1 93.4375 0)" id="xh2sVtE6pUlh7UTzKIMd4"  >
<path style="stroke: none; stroke-width: 1; stroke-dasharray: none; stroke-linecap: butt; stroke-dashoffset: 0; stroke-linejoin: miter; stroke-miterlimit: 4; fill: rgb(0,0,0); fill-rule: evenodd; opacity: 0.88;"  transform=" translate(-8.4375, -8)" d="M 11.9640625 7.60625 L 4.9203125 2.1046875 C 4.8375 2.040625 4.71875 2.0984375 4.71875 2.203125 L 4.71875 3.4109375 C 4.71875 3.4875 4.7546875 3.5609375 4.8140625 3.6078125 L 10.4390625 8 L 4.8140625 12.3921875 C 4.753125 12.4390625 4.71875 12.5125 4.71875 12.5890625 L 4.71875 13.796875 C 4.71875 13.9015625 4.8390625 13.959375 4.9203125 13.8953125 L 11.9640625 8.39375 C 12.2203125 8.19375 12.2203125 7.80625 11.9640625 7.60625 Z" stroke-linecap="round" />
</g>
</g>
</g>
</svg>