<?xml version="1.0" encoding="UTF-8" standalone="no" ?>
<!DOCTYPE svg PUBLIC "-//W3C//DTD SVG 1.1//EN" "http://www.w3.org/Graphics/SVG/1.1/DTD/svg11.dtd">
<svg xmlns="http://www.w3.org/2000/svg" xmlns:xlink="http://www.w3.org/1999/xlink" version="1.1" width="60" height="40" viewBox="0 0 60 40" xml:space="preserve">
<desc>Created with Fabric.js 5.3.0</desc>
<defs>
</defs>
<g transform="matrix(0.4504612723 0 0 0.8641729065 31.0901162791 20)" id="dwBd9RlYz_cIdb_x3h1Ke"  >
<path style="stroke: rgb(0,0,0); stroke-width: 1; stroke-dasharray: none; stroke-linecap: butt; stroke-dashoffset: 0; stroke-linejoin: miter; stroke-miterlimit: 4; fill: none; fill-rule: nonzero; opacity: 0.15;"  transform=" translate(-59.5, -15.5)" d="M 0 31 L 0 0 L 119 0 L 119 31 z" stroke-linecap="round" />
</g>
<g transform="matrix(0.4504612723 0 0 0.8641729065 39.6488804528 19.5679135467)" id="_-naR3NrfqUQUOds-eqSZ"  >
<path style="stroke: none; stroke-width: 1; stroke-dasharray: none; stroke-linecap: butt; stroke-dashoffset: 0; stroke-linejoin: miter; stroke-miterlimit: 4; fill: rgb(0,0,0); fill-opacity: 0.88; fill-rule: nonzero; opacity: 1;"  transform=" translate(-0.5, -7)" d="M 0 14 L 0 0 L 1 0 L 1 14 z" stroke-linecap="round" />
</g>
<g transform="matrix(0.4504612723 0 0 0.8641729065 38.2974966359 19.5679135467)" id="WFi2owtTZ-V8gNLL-e4ne"  >
<path style="stroke: none; stroke-width: 1; stroke-dasharray: none; stroke-linecap: butt; stroke-dashoffset: 0; stroke-linejoin: miter; stroke-miterlimit: 4; fill: rgb(0,0,0); fill-opacity: 0.88; fill-rule: nonzero; opacity: 1;"  transform=" translate(-0.5, -7)" d="M 0 14 L 0 0 L 1 0 L 1 14 z" stroke-linecap="round" />
</g>
<g transform="matrix(0.4504612723 0 0 0.8641729065 36.946112819 19.5679135467)" id="j_PPUlPW_FjbCpugPw6Y4"  >
<path style="stroke: none; stroke-width: 1; stroke-dasharray: none; stroke-linecap: butt; stroke-dashoffset: 0; stroke-linejoin: miter; stroke-miterlimit: 4; fill: rgb(0,0,0); fill-opacity: 0.88; fill-rule: nonzero; opacity: 1;"  transform=" translate(-0.5, -7)" d="M 0 14 L 0 0 L 1 0 L 1 14 z" stroke-linecap="round" />
</g>
<g transform="matrix(0.4504612723 0 0 0.8641729065 35.5947290021 19.5679135467)" id="yeo-ZauKl5zDaiOHwnWgh"  >
<path style="stroke: none; stroke-width: 1; stroke-dasharray: none; stroke-linecap: butt; stroke-dashoffset: 0; stroke-linejoin: miter; stroke-miterlimit: 4; fill: rgb(0,0,0); fill-opacity: 0.88; fill-rule: nonzero; opacity: 1;"  transform=" translate(-0.5, -7)" d="M 0 14 L 0 0 L 1 0 L 1 14 z" stroke-linecap="round" />
</g>
<g transform="matrix(0.4504612723 0 0 0.8641729065 34.2433451852 19.5679135467)" id="6u1OZYnSy9jojsXyf0770"  >
<path style="stroke: none; stroke-width: 1; stroke-dasharray: none; stroke-linecap: butt; stroke-dashoffset: 0; stroke-linejoin: miter; stroke-miterlimit: 4; fill: rgb(0,0,0); fill-opacity: 0.88; fill-rule: nonzero; opacity: 1;"  transform=" translate(-0.5, -7)" d="M 0 14 L 0 0 L 1 0 L 1 14 z" stroke-linecap="round" />
</g>
<g transform="matrix(0.4504612723 0 0 0.8641729065 32.8919613683 19.5679135467)" id="Hj3yo6DvUYltMYRG67CKN"  >
<path style="stroke: none; stroke-width: 1; stroke-dasharray: none; stroke-linecap: butt; stroke-dashoffset: 0; stroke-linejoin: miter; stroke-miterlimit: 4; fill: rgb(0,0,0); fill-opacity: 0.88; fill-rule: nonzero; opacity: 1;"  transform=" translate(-0.5, -7)" d="M 0 14 L 0 0 L 1 0 L 1 14 z" stroke-linecap="round" />
</g>
<g transform="matrix(0.4504612723 0 0 0.8641729065 31.5405775514 19.5679135467)" id="jf2mGx1N_Q-66yDiLhD4x"  >
<path style="stroke: none; stroke-width: 1; stroke-dasharray: none; stroke-linecap: butt; stroke-dashoffset: 0; stroke-linejoin: miter; stroke-miterlimit: 4; fill: rgb(0,0,0); fill-opacity: 0.88; fill-rule: nonzero; opacity: 1;"  transform=" translate(-0.5, -7)" d="M 0 14 L 0 0 L 1 0 L 1 14 z" stroke-linecap="round" />
</g>
<g transform="matrix(0.4504612723 0 0 0.8641729065 30.1891937345 19.5679135467)" id="CLFWqeL0um_zDor4xhWw3"  >
<path style="stroke: none; stroke-width: 1; stroke-dasharray: none; stroke-linecap: butt; stroke-dashoffset: 0; stroke-linejoin: miter; stroke-miterlimit: 4; fill: rgb(0,0,0); fill-opacity: 0.88; fill-rule: nonzero; opacity: 1;"  transform=" translate(0, 0)" d="M -0.5 7 L -0.5 -7 L 0.5 -7 L 0.5 7 z" stroke-linecap="round" />
</g>
<g transform="matrix(0.4504612723 0 0 0.8641729065 28.8378099176 19.5679135467)" id="Ay9wdlO9fGXNtgFLOg0D0"  >
<path style="stroke: none; stroke-width: 1; stroke-dasharray: none; stroke-linecap: butt; stroke-dashoffset: 0; stroke-linejoin: miter; stroke-miterlimit: 4; fill: rgb(0,0,0); fill-opacity: 0.88; fill-rule: nonzero; opacity: 1;"  transform=" translate(-0.5, -7)" d="M 0 14 L 0 0 L 1 0 L 1 14 z" stroke-linecap="round" />
</g>
<g transform="matrix(0.4504612723 0 0 0.8641729065 27.4864261007 19.5679135467)" id="hIL1ilnq9OySyE7OoFEdf"  >
<path style="stroke: none; stroke-width: 1; stroke-dasharray: none; stroke-linecap: butt; stroke-dashoffset: 0; stroke-linejoin: miter; stroke-miterlimit: 4; fill: rgb(0,0,0); fill-opacity: 0.88; fill-rule: nonzero; opacity: 1;"  transform=" translate(-0.5, -7)" d="M 0 14 L 0 0 L 1 0 L 1 14 z" stroke-linecap="round" />
</g>
<g transform="matrix(0.4504612723 0 0 0.8641729065 26.1350422838 19.5679135467)" id="BDvNQ8_eBXRU21EyfolfO"  >
<path style="stroke: none; stroke-width: 1; stroke-dasharray: none; stroke-linecap: butt; stroke-dashoffset: 0; stroke-linejoin: miter; stroke-miterlimit: 4; fill: rgb(0,0,0); fill-opacity: 0.88; fill-rule: nonzero; opacity: 1;"  transform=" translate(-0.5, -7)" d="M 0 14 L 0 0 L 1 0 L 1 14 z" stroke-linecap="round" />
</g>
<g transform="matrix(0.4504612723 0 0 0.8641729065 24.7836584669 19.5679135467)" id="75O9kNU3nf9W_mj6XbvjP"  >
<path style="stroke: none; stroke-width: 1; stroke-dasharray: none; stroke-linecap: butt; stroke-dashoffset: 0; stroke-linejoin: miter; stroke-miterlimit: 4; fill: rgb(0,0,0); fill-opacity: 0.88; fill-rule: nonzero; opacity: 1;"  transform=" translate(-0.5, -7)" d="M 0 14 L 0 0 L 1 0 L 1 14 z" stroke-linecap="round" />
</g>
<g transform="matrix(0.4504612723 0 0 0.8641729065 23.43227465 19.5679135467)" id="1v3hNRQlLiO5s0TrnvZaf"  >
<path style="stroke: none; stroke-width: 1; stroke-dasharray: none; stroke-linecap: butt; stroke-dashoffset: 0; stroke-linejoin: miter; stroke-miterlimit: 4; fill: rgb(0,0,0); fill-opacity: 0.88; fill-rule: nonzero; opacity: 1;"  transform=" translate(-0.5, -7)" d="M 0 14 L 0 0 L 1 0 L 1 14 z" stroke-linecap="round" />
</g>
<g transform="matrix(0.4504612723 0 0 0.8641729065 21.9355419959 19.5679135467)" id="g_WTtYlYjwM_Jy9y44n2Y"  >
<path style="stroke: none; stroke-width: 1; stroke-dasharray: none; stroke-linecap: butt; stroke-dashoffset: 0; stroke-linejoin: miter; stroke-miterlimit: 4; fill: rgb(0,0,0); fill-opacity: 0.88; fill-rule: nonzero; opacity: 1;"  transform=" translate(-0.5, -7)" d="M 0 14 L 0 0 L 1 0 L 1 14 z" stroke-linecap="round" />
</g>
<g transform="matrix(0.4504612723 0 0 0.8641729065 20.584158179 19.5679135467)" id="LUYFE44s819UVOPR5QM92"  >
<path style="stroke: none; stroke-width: 1; stroke-dasharray: none; stroke-linecap: butt; stroke-dashoffset: 0; stroke-linejoin: miter; stroke-miterlimit: 4; fill: rgb(0,0,0); fill-opacity: 0.88; fill-rule: nonzero; opacity: 1;"  transform=" translate(-0.5, -7)" d="M 0 14 L 0 0 L 1 0 L 1 14 z" stroke-linecap="round" />
</g>
<g transform="matrix(0.4504612723 0 0 0.8641729065 19.2327743621 19.5679135467)" id="1S5Y6fGwapo4R8m5WGONM"  >
<path style="stroke: none; stroke-width: 1; stroke-dasharray: none; stroke-linecap: butt; stroke-dashoffset: 0; stroke-linejoin: miter; stroke-miterlimit: 4; fill: rgb(0,0,0); fill-opacity: 0.88; fill-rule: nonzero; opacity: 1;"  transform=" translate(-0.5, -7)" d="M 0 14 L 0 0 L 1 0 L 1 14 z" stroke-linecap="round" />
</g>
<g transform="matrix(0.4504612723 0 0 0.8641729065 17.8813905452 19.5679135467)" id="QTVLtCBmVLRuwriRJILFM"  >
<path style="stroke: none; stroke-width: 1; stroke-dasharray: none; stroke-linecap: butt; stroke-dashoffset: 0; stroke-linejoin: miter; stroke-miterlimit: 4; fill: rgb(0,0,0); fill-opacity: 0.88; fill-rule: nonzero; opacity: 1;"  transform=" translate(-0.5, -7)" d="M 0 14 L 0 0 L 1 0 L 1 14 z" stroke-linecap="round" />
</g>
<g transform="matrix(0.4504612723 0 0 0.8641729065 16.5300067283 19.5679135467)" id="7_hbFAShPRJZahccI4f0L"  >
<path style="stroke: none; stroke-width: 1; stroke-dasharray: none; stroke-linecap: butt; stroke-dashoffset: 0; stroke-linejoin: miter; stroke-miterlimit: 4; fill: rgb(0,0,0); fill-opacity: 0.88; fill-rule: nonzero; opacity: 1;"  transform=" translate(-0.5, -7)" d="M 0 14 L 0 0 L 1 0 L 1 14 z" stroke-linecap="round" />
</g>
<g transform="matrix(0.4504612723 0 0 0.8641729065 15.1786229114 19.5679135467)" id="YoMY7316PWH3Wg1amZKQc"  >
<path style="stroke: none; stroke-width: 1; stroke-dasharray: none; stroke-linecap: butt; stroke-dashoffset: 0; stroke-linejoin: miter; stroke-miterlimit: 4; fill: rgb(0,0,0); fill-opacity: 0.88; fill-rule: nonzero; opacity: 1;"  transform=" translate(-0.5, -7)" d="M 0 14 L 0 0 L 1 0 L 1 14 z" stroke-linecap="round" />
</g>
<g transform="matrix(0.4504612723 0 0 0.8641729065 13.8272390945 19.5679135467)" id="9oyFQH4lO7Y22Cr_eNPPz"  >
<path style="stroke: none; stroke-width: 1; stroke-dasharray: none; stroke-linecap: butt; stroke-dashoffset: 0; stroke-linejoin: miter; stroke-miterlimit: 4; fill: rgb(0,0,0); fill-opacity: 0.88; fill-rule: nonzero; opacity: 1;"  transform=" translate(-0.5, -7)" d="M 0 14 L 0 0 L 1 0 L 1 14 z" stroke-linecap="round" />
</g>
<g transform="matrix(0.4504612723 0 0 0.8641729065 12.4758552776 19.5679135467)" id="flQsSyDTOg41fsN3VHl-5"  >
<path style="stroke: none; stroke-width: 1; stroke-dasharray: none; stroke-linecap: butt; stroke-dashoffset: 0; stroke-linejoin: miter; stroke-miterlimit: 4; fill: rgb(0,0,0); fill-opacity: 0.88; fill-rule: nonzero; opacity: 1;"  transform=" translate(-0.5, -7)" d="M 0 14 L 0 0 L 1 0 L 1 14 z" stroke-linecap="round" />
</g>
<g transform="matrix(0.4504612723 0 0 0.8641729065 11.1244714607 19.5679135467)" id="4hKZjLwWsdFbwW4UTPRU4"  >
<path style="stroke: none; stroke-width: 1; stroke-dasharray: none; stroke-linecap: butt; stroke-dashoffset: 0; stroke-linejoin: miter; stroke-miterlimit: 4; fill: rgb(0,0,0); fill-opacity: 0.88; fill-rule: nonzero; opacity: 1;"  transform=" translate(-0.5, -7)" d="M 0 14 L 0 0 L 1 0 L 1 14 z" stroke-linecap="round" />
</g>
<g transform="matrix(0.4504612723 0 0 0.8641729065 9.7730876438 19.5679135467)" id="aKJGAeih8Ou89HDIPWy2z"  >
<path style="stroke: none; stroke-width: 1; stroke-dasharray: none; stroke-linecap: butt; stroke-dashoffset: 0; stroke-linejoin: miter; stroke-miterlimit: 4; fill: rgb(0,0,0); fill-opacity: 0.88; fill-rule: nonzero; opacity: 1;"  transform=" translate(-0.5, -7)" d="M 0 14 L 0 0 L 1 0 L 1 14 z" stroke-linecap="round" />
</g>
<g transform="matrix(0.70183213 0 0 0.8739139115 49.8401162791 19.9610360014)" id="d6YQ7bPmfBZ7yC02nzngF"  >
<path style="stroke: none; stroke-width: 1; stroke-dasharray: none; stroke-linecap: butt; stroke-dashoffset: 0; stroke-linejoin: miter; stroke-miterlimit: 4; fill: rgb(0,0,0); fill-rule: nonzero; opacity: 0.65;"  transform=" translate(-5.1952266112, -3.500000025)" d="M 10.2814232 0 L 9.25603256 0 C 9.18630596 0 9.12068096 0.03417969 9.07966536 0.09023438 L 5.19548566 5.44414063 L 1.31130597 0.09023438 C 1.27029035 0.03417969 1.20466535 0 1.13493878 0 L 0.10954816 0 C 0.0206809696 0 -0.0312721504 0.10117188 0.0206809696 0.17363281 L 4.8413841 6.8195313 C 5.0163841 7.0601563 5.37458722 7.0601563 5.54822003 6.8195313 L 10.3689232 0.17363281 C 10.4222435 0.10117187 10.3702904 0 10.2814232 0 Z" stroke-linecap="round" />
</g>
</svg>