<?xml version="1.0" encoding="UTF-8" standalone="no" ?>
<!DOCTYPE svg PUBLIC "-//W3C//DTD SVG 1.1//EN" "http://www.w3.org/Graphics/SVG/1.1/DTD/svg11.dtd">
<svg xmlns="http://www.w3.org/2000/svg" xmlns:xlink="http://www.w3.org/1999/xlink" version="1.1" width="60" height="40" viewBox="0 0 60 40" xml:space="preserve">
<desc>Created with Fabric.js 5.3.0</desc>
<defs>
</defs>
<g transform="matrix(0.7984411864 0 0 0.7984411864 44.0756844514 21.5706806283)" id="Cvep5wTKYSQXKQ-JGe3bA"  >
<g style=""   >
		<g transform="matrix(1 0 0 1 -14.4890625 -50.61312)" style="" id="cmGvqtdOF5I0RwWJ7muLB"  >
		<text xml:space="preserve" font-family="PingFangSC-Regular, PingFang SC" font-size="9.6" font-style="normal" font-weight="normal" line-height="1" style="stroke: none; stroke-width: 1; stroke-dasharray: none; stroke-linecap: butt; stroke-dashoffset: 0; stroke-linejoin: miter; stroke-miterlimit: 4; fill: rgb(0,0,0); fill-opacity: 0.88; fill-rule: evenodd; opacity: 1; white-space: pre;" ><tspan x="-20.3109375" y="3.015744" >Finished</tspan></text>
</g>
		<g transform="matrix(1 0 0 1 5.9490234375 -33.83648)" style="" id="A57Xv7hotKGrNQhCts9bG"  >
		<text xml:space="preserve" font-family="PingFangSC-Regular, PingFang SC" font-size="8.4" font-style="normal" font-weight="normal" line-height="1" style="stroke: none; stroke-width: 1; stroke-dasharray: none; stroke-linecap: butt; stroke-dashoffset: 0; stroke-linejoin: miter; stroke-miterlimit: 4; fill: rgb(0,0,0); fill-opacity: 0.45; fill-rule: evenodd; opacity: 1; white-space: pre;" ><tspan x="-40.7490234375" y="2.638776" >This is a description</tspan></text>
</g>
		<g transform="matrix(1 0 0 1 -46.8 -49.8)" id="PFUjnLGtn40W_HgsIeS4_"  >
<path style="stroke: none; stroke-width: 1; stroke-dasharray: none; stroke-linecap: butt; stroke-dashoffset: 0; stroke-linejoin: miter; stroke-miterlimit: 4; fill: rgb(230,244,255); fill-rule: nonzero; opacity: 1;"  transform=" translate(-7.2, -7.2)" d="M 0 7.2 C 0 3.2235500000000004 3.22355 0 7.2 0 C 11.176449999999999 0 14.4 3.22355 14.4 7.2 C 14.4 11.176449999999999 11.17645 14.4 7.2 14.4 C 3.2235500000000004 14.4 0 11.17645 0 7.2 z" stroke-linecap="round" />
</g>
		<g transform="matrix(1 0 0 1 -46.8 -49.8)" id="2Mi4aTkfmOs1_AQr88nid"  >
<path style="stroke: none; stroke-width: 1; stroke-dasharray: none; stroke-linecap: butt; stroke-dashoffset: 0; stroke-linejoin: miter; stroke-miterlimit: 4; fill: rgb(22,119,255); fill-rule: nonzero; opacity: 0;"  transform=" translate(-3.6, -3.6)" d="M 0 7.2 L 0 0 L 7.2 0 L 7.2 7.2 z" stroke-linecap="round" />
</g>
		<g transform="matrix(1 0 0 1 -46.8000000013 -49.8005273425)" id="_WoEA-3AziSwBpmWJXFUa"  >
<path style="stroke: none; stroke-width: 1; stroke-dasharray: none; stroke-linecap: butt; stroke-dashoffset: 0; stroke-linejoin: miter; stroke-miterlimit: 4; fill: rgb(22,119,255); fill-rule: nonzero; opacity: 1;"  transform=" translate(-3.5999999987, -3.5994726575)" d="M 6.4125 1.3359375 L 5.92101562 1.3359375 C 5.85210937 1.3359375 5.78671875 1.36757813 5.74453125 1.42171875 L 2.84554687 5.09414062 L 1.45546875 3.3328125 C 1.41257812 3.27867187 1.34789062 3.24703125 1.27898437 3.24703125 L 0.7875 3.24703125 C 0.740390625 3.24703125 0.714375 3.30117187 0.743203125 3.33773437 L 2.6690625 5.77757812 C 2.7590625 5.89148438 2.93203125 5.89148438 3.02273437 5.77757812 L 6.45679687 1.4259375 C 6.485625 1.39007813 6.45960937 1.3359375 6.4125 1.3359375 Z" stroke-linecap="round" />
</g>
		<g transform="matrix(1 0 0 1 -46.3 -28.27826085)" id="VIj4UwwyLrnrBqVwdxV2w"  >
<path style="stroke: none; stroke-width: 1; stroke-dasharray: none; stroke-linecap: butt; stroke-dashoffset: 0; stroke-linejoin: miter; stroke-miterlimit: 4; fill: rgb(0,0,0); fill-opacity: 0.15; fill-rule: nonzero; opacity: 1;"  transform=" translate(-0.5, -9.52174)" d="M 0 19.04348 L 0 0 L 1 0 L 1 19.04348 z" stroke-linecap="round" />
</g>
		<g transform="matrix(1 0 0 1 -11.330859375 -7.59300204)" style="" id="f0pYrKBxw8b23aKK_T0mh"  >
		<text xml:space="preserve" font-family="PingFangSC-Medium, PingFang SC" font-size="8.4" font-style="normal" font-weight="400" line-height="1" style="stroke: none; stroke-width: 1; stroke-dasharray: none; stroke-linecap: butt; stroke-dashoffset: 0; stroke-linejoin: miter; stroke-miterlimit: 4; fill: rgb(0,0,0); fill-opacity: 0.88; fill-rule: evenodd; opacity: 1; white-space: pre;" ><tspan x="-23.469140625" y="2.638776" >In Progress</tspan></text>
</g>
		<g transform="matrix(1 0 0 1 5.9490234375 8.006998)" style="" id="y9vK8OsQoRfOy6kWJ02Dd"  >
		<text xml:space="preserve" font-family="PingFangSC-Regular, PingFang SC" font-size="8.4" font-style="normal" font-weight="normal" line-height="1" style="stroke: none; stroke-width: 1; stroke-dasharray: none; stroke-linecap: butt; stroke-dashoffset: 0; stroke-linejoin: miter; stroke-miterlimit: 4; fill: rgb(0,0,0); fill-opacity: 0.45; fill-rule: evenodd; opacity: 1; white-space: pre;" ><tspan x="-40.7490234375" y="2.638776" >This is a description</tspan></text>
</g>
		<g transform="matrix(1 0 0 1 -46.3 14.76521715)" id="7SOrP11MPHYn-CPP1uVrT"  >
<path style="stroke: none; stroke-width: 1; stroke-dasharray: none; stroke-linecap: butt; stroke-dashoffset: 0; stroke-linejoin: miter; stroke-miterlimit: 4; fill: rgb(0,0,0); fill-opacity: 0.15; fill-rule: nonzero; opacity: 1;"  transform=" translate(-0.5, -9.52174)" d="M 0 19.04348 L 0 0 L 1 0 L 1 19.04348 z" stroke-linecap="round" />
</g>
		<g transform="matrix(1 0 0 1 -46.8 -6.782609)" id="zk1eMxrUOqJ3q-Mq8OhX-"  >
<path style="stroke: none; stroke-width: 1; stroke-dasharray: none; stroke-linecap: butt; stroke-dashoffset: 0; stroke-linejoin: miter; stroke-miterlimit: 4; fill: rgb(22,119,255); fill-rule: nonzero; opacity: 1;"  transform=" translate(-7.2, -7.2)" d="M 0 7.2 C 0 3.2235500000000004 3.22355 0 7.2 0 C 11.176449999999999 0 14.4 3.22355 14.4 7.2 C 14.4 11.176449999999999 11.17645 14.4 7.2 14.4 C 3.2235500000000004 14.4 0 11.17645 0 7.2 z" stroke-linecap="round" />
</g>
		<g transform="matrix(1 0 0 1 -45.7393359375 -7.019089)" style="" id="-Iw96-82r2VEhHI9huGDG"  >
		<text xml:space="preserve" font-family="PingFangSC-Regular, PingFang SC" font-size="8.4" font-style="normal" font-weight="normal" line-height="1" style="stroke: none; stroke-width: 1; stroke-dasharray: none; stroke-linecap: butt; stroke-dashoffset: 0; stroke-linejoin: miter; stroke-miterlimit: 4; fill: rgb(255,255,255); fill-rule: evenodd; opacity: 1; white-space: pre;" ><tspan x="-3.5806640625" y="2.638776" >2</tspan></text>
</g>
		<g transform="matrix(1 0 0 1 -18.18046875 35.450477)" style="" id="d1LIDUvlgc3VrPTiCUE-r"  >
		<text xml:space="preserve" font-family="PingFangSC-Regular, PingFang SC" font-size="8.4" font-style="normal" font-weight="normal" line-height="1" style="stroke: none; stroke-width: 1; stroke-dasharray: none; stroke-linecap: butt; stroke-dashoffset: 0; stroke-linejoin: miter; stroke-miterlimit: 4; fill: rgb(0,0,0); fill-opacity: 0.45; fill-rule: evenodd; opacity: 1; white-space: pre;" ><tspan x="-16.61953125" y="2.638776" >Waiting</tspan></text>
</g>
		<g transform="matrix(1 0 0 1 5.9490234375 51.050477)" style="" id="6m2SQ9V-lGvDGcVq-GUxt"  >
		<text xml:space="preserve" font-family="PingFangSC-Regular, PingFang SC" font-size="8.4" font-style="normal" font-weight="normal" line-height="1" style="stroke: none; stroke-width: 1; stroke-dasharray: none; stroke-linecap: butt; stroke-dashoffset: 0; stroke-linejoin: miter; stroke-miterlimit: 4; fill: rgb(0,0,0); fill-opacity: 0.45; fill-rule: evenodd; opacity: 1; white-space: pre;" ><tspan x="-40.7490234375" y="2.638776" >This is a description</tspan></text>
</g>
		<g transform="matrix(1 0 0 1 -46.8 36.286957)" id="GicIAmEYir_RaBz3xoAVU"  >
<path style="stroke: none; stroke-width: 1; stroke-dasharray: none; stroke-linecap: butt; stroke-dashoffset: 0; stroke-linejoin: miter; stroke-miterlimit: 4; fill: rgb(0,0,0); fill-opacity: 0.06; fill-rule: nonzero; opacity: 1;"  transform=" translate(-7.2, -7.2)" d="M 0 7.2 C 0 3.2235500000000004 3.22355 0 7.2 0 C 11.176449999999999 0 14.4 3.22355 14.4 7.2 C 14.4 11.176449999999999 11.17645 14.4 7.2 14.4 C 3.2235500000000004 14.4 0 11.17645 0 7.2 z" stroke-linecap="round" />
</g>
		<g transform="matrix(1 0 0 1 -45.0193359375 36.050477)" style="" id="tRv4fkztLtZFNZ3F3rrAW"  >
		<text xml:space="preserve" font-family="PingFangSC-Regular, PingFang SC" font-size="8.4" font-style="normal" font-weight="normal" line-height="1" style="stroke: none; stroke-width: 1; stroke-dasharray: none; stroke-linecap: butt; stroke-dashoffset: 0; stroke-linejoin: miter; stroke-miterlimit: 4; fill: rgb(0,0,0); fill-opacity: 0.45; fill-rule: evenodd; opacity: 1; white-space: pre;" ><tspan x="-3.5806640625" y="2.638776" >3</tspan></text>
</g>
</g>
</g>
</svg>