<?xml version="1.0" encoding="UTF-8"?>
<svg width="141px" height="110px" viewBox="0 0 141 110" version="1.1" xmlns="http://www.w3.org/2000/svg" xmlns:xlink="http://www.w3.org/1999/xlink">
    <title>编组 7</title>
    <g id="组件骨架图更新_202311" stroke="none" stroke-width="1" fill="none" fill-rule="evenodd">
        <g id="🎉-5.0-新版---白" transform="translate(-1277.000000, -2424.000000)">
            <g id="编组-7" transform="translate(1278.000000, 2424.000000)">
                <g id="path-1-link" fill="#FFFFFF" stroke="#1677FF">
                    <rect id="矩形" x="0.5" y="0.5" width="138" height="19" rx="3"></rect>
                </g>
                <text id="Please-Select" fill-opacity="0.25" fill="#000000" fill-rule="nonzero" font-family="PingFangSC-Regular, PingFang SC" font-size="7.9245283" font-weight="normal">
                    <tspan x="6" y="12">Please Select</tspan>
                </text>
                <g id="1.通用/2.Icon图标/Line/Down" transform="translate(127.528302, 9.528302) scale(-1, 1) rotate(-180.000000) translate(-127.528302, -9.528302) translate(123.000000, 5.000000)" fill="#000000" fill-rule="nonzero">
                    <g id="up" opacity="0">
                        <rect id="矩形" x="0" y="0" width="9.05660377" height="9.05660377"></rect>
                    </g>
                    <path d="M7.78313088,2.26415094 L7.11980541,2.26415094 C7.07469928,2.26415094 7.03224645,2.28626179 7.00571343,2.32252358 L4.49303655,5.78596698 L1.98035966,2.32252358 C1.95382664,2.28626179 1.91137381,2.26415094 1.86626768,2.26415094 L1.20294221,2.26415094 C1.145454,2.26415094 1.11184551,2.32959906 1.145454,2.37647406 L4.26396815,6.67570755 C4.3771757,6.83136792 4.60889739,6.83136792 4.72122051,6.67570755 L7.83973466,2.37647406 C7.87422758,2.32959906 7.84061909,2.26415094 7.78313088,2.26415094 Z" id="路径" fill-opacity="0.25"></path>
                </g>
                <g id="path-2-link" transform="translate(0.566038, 21.943396)" fill="#FFFFFF" stroke="#000000" stroke-opacity="0.12" stroke-width="0.6">
                    <rect id="path-2" x="-0.3" y="-0.3" width="138.6" height="87.6" rx="1.13207547"></rect>
                </g>
                <g id="编组-12" transform="translate(5.566038, 31.123000)">
                    <rect id="矩形" x="0" y="0" width="9.11392405" height="6.07594937"></rect>
                    <path d="M7.36230459,4.76344426 L4.61669573,1.58717625 C4.53810644,1.49625892 4.38678025,1.49625892 4.3073549,1.58717625 L1.56174605,4.76344426 C1.45974718,4.88188703 1.55171337,5.05538066 1.71641646,5.05538066 L7.20763417,5.05538066 C7.37233726,5.05538066 7.46430345,4.88188703 7.36230459,4.76344426 Z" id="Path" fill-opacity="0.65" fill="#000000" fill-rule="nonzero" transform="translate(4.462025, 3.287184) scale(-1, 1) rotate(-180.000000) translate(-4.462025, -3.287184) "></path>
                </g>
                <g id="编组备份-66" transform="translate(37.000000, 45.000000)" fill="#000000" fill-opacity="0.88" fill-rule="nonzero">
                    <rect id="矩形备份-11备份-19" x="36.4" y="0" width="1" height="8"></rect>
                    <rect id="矩形备份-11备份-3" x="33.8" y="0" width="1" height="8"></rect>
                    <rect id="矩形备份-10备份" x="31.2" y="0" width="1" height="8"></rect>
                    <rect id="矩形备份-11" x="28.6" y="0" width="1" height="8"></rect>
                    <rect id="矩形备份-10" x="26" y="0" width="1" height="8"></rect>
                    <rect id="矩形备份-9" x="23.4" y="0" width="1" height="8"></rect>
                    <rect id="矩形备份-8" x="20.8" y="0" width="1" height="8"></rect>
                    <rect id="矩形备份-7" x="18.2" y="0" width="1" height="8"></rect>
                    <rect id="矩形备份-6" x="15.6" y="0" width="1" height="8"></rect>
                    <rect id="矩形备份-5" x="13" y="0" width="1" height="8"></rect>
                    <rect id="矩形备份-4" x="10.4" y="0" width="1" height="8"></rect>
                    <rect id="矩形备份-3" x="7.8" y="0" width="1" height="8"></rect>
                    <rect id="矩形备份-2" x="5.2" y="0" width="1" height="8"></rect>
                    <rect id="矩形备份" x="2.6" y="0" width="1" height="8"></rect>
                    <rect id="矩形" x="0" y="0" width="1" height="8"></rect>
                </g>
                <g id="编组备份-76" transform="translate(22.000000, 30.000000)" fill="#000000" fill-opacity="0.88" fill-rule="nonzero">
                    <rect id="矩形备份-11" x="28.6" y="0" width="1" height="8"></rect>
                    <rect id="矩形备份-10" x="26" y="0" width="1" height="8"></rect>
                    <rect id="矩形备份-9" x="23.4" y="0" width="1" height="8"></rect>
                    <rect id="矩形备份-8" x="20.8" y="0" width="1" height="8"></rect>
                    <rect id="矩形备份-7" x="18.2" y="0" width="1" height="8"></rect>
                    <rect id="矩形备份-6" x="15.6" y="0" width="1" height="8"></rect>
                    <rect id="矩形备份-5" x="13" y="0" width="1" height="8"></rect>
                    <rect id="矩形备份-4" x="10.4" y="0" width="1" height="8"></rect>
                    <rect id="矩形备份-3" x="7.8" y="0" width="1" height="8"></rect>
                    <rect id="矩形备份-2" x="5.2" y="0" width="1" height="8"></rect>
                    <rect id="矩形备份" x="2.6" y="0" width="1" height="8"></rect>
                    <rect id="矩形" x="0" y="0" width="1" height="8"></rect>
                </g>
                <g id="编组备份-77" transform="translate(22.000000, 90.000000)" fill="#000000" fill-opacity="0.88" fill-rule="nonzero">
                    <rect id="矩形备份-11" x="28.6" y="0" width="1" height="8"></rect>
                    <rect id="矩形备份-10" x="26" y="0" width="1" height="8"></rect>
                    <rect id="矩形备份-9" x="23.4" y="0" width="1" height="8"></rect>
                    <rect id="矩形备份-8" x="20.8" y="0" width="1" height="8"></rect>
                    <rect id="矩形备份-7" x="18.2" y="0" width="1" height="8"></rect>
                    <rect id="矩形备份-6" x="15.6" y="0" width="1" height="8"></rect>
                    <rect id="矩形备份-5" x="13" y="0" width="1" height="8"></rect>
                    <rect id="矩形备份-4" x="10.4" y="0" width="1" height="8"></rect>
                    <rect id="矩形备份-3" x="7.8" y="0" width="1" height="8"></rect>
                    <rect id="矩形备份-2" x="5.2" y="0" width="1" height="8"></rect>
                    <rect id="矩形备份" x="2.6" y="0" width="1" height="8"></rect>
                    <rect id="矩形" x="0" y="0" width="1" height="8"></rect>
                </g>
                <g id="编组备份-74" transform="translate(37.000000, 60.000000)" fill="#000000" fill-opacity="0.88" fill-rule="nonzero">
                    <rect id="矩形备份-11备份-19" x="36.4" y="0" width="1" height="8"></rect>
                    <rect id="矩形备份-11备份-3" x="33.8" y="0" width="1" height="8"></rect>
                    <rect id="矩形备份-10备份" x="31.2" y="0" width="1" height="8"></rect>
                    <rect id="矩形备份-11" x="28.6" y="0" width="1" height="8"></rect>
                    <rect id="矩形备份-10" x="26" y="0" width="1" height="8"></rect>
                    <rect id="矩形备份-9" x="23.4" y="0" width="1" height="8"></rect>
                    <rect id="矩形备份-8" x="20.8" y="0" width="1" height="8"></rect>
                    <rect id="矩形备份-7" x="18.2" y="0" width="1" height="8"></rect>
                    <rect id="矩形备份-6" x="15.6" y="0" width="1" height="8"></rect>
                    <rect id="矩形备份-5" x="13" y="0" width="1" height="8"></rect>
                    <rect id="矩形备份-4" x="10.4" y="0" width="1" height="8"></rect>
                    <rect id="矩形备份-3" x="7.8" y="0" width="1" height="8"></rect>
                    <rect id="矩形备份-2" x="5.2" y="0" width="1" height="8"></rect>
                    <rect id="矩形备份" x="2.6" y="0" width="1" height="8"></rect>
                    <rect id="矩形" x="0" y="0" width="1" height="8"></rect>
                </g>
                <g id="编组备份-75" transform="translate(37.000000, 75.000000)" fill="#000000" fill-opacity="0.88" fill-rule="nonzero">
                    <rect id="矩形备份-11备份-19" x="36.4" y="0" width="1" height="8"></rect>
                    <rect id="矩形备份-11备份-3" x="33.8" y="0" width="1" height="8"></rect>
                    <rect id="矩形备份-10备份" x="31.2" y="0" width="1" height="8"></rect>
                    <rect id="矩形备份-11" x="28.6" y="0" width="1" height="8"></rect>
                    <rect id="矩形备份-10" x="26" y="0" width="1" height="8"></rect>
                    <rect id="矩形备份-9" x="23.4" y="0" width="1" height="8"></rect>
                    <rect id="矩形备份-8" x="20.8" y="0" width="1" height="8"></rect>
                    <rect id="矩形备份-7" x="18.2" y="0" width="1" height="8"></rect>
                    <rect id="矩形备份-6" x="15.6" y="0" width="1" height="8"></rect>
                    <rect id="矩形备份-5" x="13" y="0" width="1" height="8"></rect>
                    <rect id="矩形备份-4" x="10.4" y="0" width="1" height="8"></rect>
                    <rect id="矩形备份-3" x="7.8" y="0" width="1" height="8"></rect>
                    <rect id="矩形备份-2" x="5.2" y="0" width="1" height="8"></rect>
                    <rect id="矩形备份" x="2.6" y="0" width="1" height="8"></rect>
                    <rect id="矩形" x="0" y="0" width="1" height="8"></rect>
                </g>
            </g>
        </g>
    </g>
</svg>