<?xml version="1.0" encoding="UTF-8" standalone="no" ?>
<!DOCTYPE svg PUBLIC "-//W3C//DTD SVG 1.1//EN" "http://www.w3.org/Graphics/SVG/1.1/DTD/svg11.dtd">
<svg xmlns="http://www.w3.org/2000/svg" xmlns:xlink="http://www.w3.org/1999/xlink" version="1.1" width="60" height="40" viewBox="0 0 60 40" xml:space="preserve">
<desc>Created with Fabric.js 5.3.0</desc>
<defs>
</defs>
<g transform="matrix(0.8042221397 0 0 0.8042221397 44.7129859367 21.1056405031)" id="fXzkObmPAPGpUeJwXwRXA"  >
<g style=""   >
		<g transform="matrix(1 0 0 1 -0.5 -0.5)" id="YSoSFwSzGJyxSBGWEPT2X"  >
<path style="stroke: none; stroke-width: 1; stroke-dasharray: none; stroke-linecap: butt; stroke-dashoffset: 0; stroke-linejoin: miter; stroke-miterlimit: 4; fill: rgb(245,245,245); fill-rule: nonzero; opacity: 1;"  transform=" translate(-68.5, -45)" d="M 0 90 L 0 0 L 137 0 L 137 90 z" stroke-linecap="round" />
</g>
		<g transform="matrix(1 0 0 1 0 -33)" id="FcAJ3yhB6psCXnYtS3-Qc"  >
<path style="stroke: none; stroke-width: 1; stroke-dasharray: none; stroke-linecap: butt; stroke-dashoffset: 0; stroke-linejoin: miter; stroke-miterlimit: 4; fill: rgb(224,224,224); fill-rule: nonzero; opacity: 1;"  transform=" translate(-75, -0.5)" d="M 0 1 L 0 0 L 150 0 L 150 1 z" stroke-linecap="round" />
</g>
		<g transform="matrix(1 0 0 1 -56 0)" id="TaHBxG4Nk9XdUn0Dazop_"  >
<path style="stroke: none; stroke-width: 1; stroke-dasharray: none; stroke-linecap: butt; stroke-dashoffset: 0; stroke-linejoin: miter; stroke-miterlimit: 4; fill: rgb(224,224,224); fill-rule: nonzero; opacity: 1;"  transform=" translate(-52, -0.5)" d="M 0 1 L 0 0 L 104 0 L 104 1 z" stroke-linecap="round" />
</g>
		<g transform="matrix(1 0 0 1 56 0)" id="XE3Z8pcpYIHaCVlNXNWP1"  >
<path style="stroke: none; stroke-width: 1; stroke-dasharray: none; stroke-linecap: butt; stroke-dashoffset: 0; stroke-linejoin: miter; stroke-miterlimit: 4; fill: rgb(224,224,224); fill-rule: nonzero; opacity: 1;"  transform=" translate(-52, -0.5)" d="M 0 1 L 0 0 L 104 0 L 104 1 z" stroke-linecap="round" />
</g>
		<g transform="matrix(1 0 0 1 0 32)" id="jCnCbFzTC0j7aT7DGx1sg"  >
<path style="stroke: none; stroke-width: 1; stroke-dasharray: none; stroke-linecap: butt; stroke-dashoffset: 0; stroke-linejoin: miter; stroke-miterlimit: 4; fill: rgb(224,224,224); fill-rule: nonzero; opacity: 1;"  transform=" translate(-75, -0.5)" d="M 0 1 L 0 0 L 150 0 L 150 1 z" stroke-linecap="round" />
</g>
		<g transform="matrix(1 0 0 1 -14.4609375 2.4343999998)" style="" id="RBgfB7_M20KbG3ITPSISw"  >
		<text xml:space="preserve" font-family="PingFangSC-Regular, PingFang SC" font-size="48" font-style="normal" font-weight="normal" line-height="1" style="stroke: none; stroke-width: 1; stroke-dasharray: none; stroke-linecap: butt; stroke-dashoffset: 0; stroke-linejoin: miter; stroke-miterlimit: 4; fill: rgb(22,119,255); fill-rule: nonzero; opacity: 1; white-space: pre;" ><tspan x="-36.5390625" y="15.07872" >Aa</tspan></text>
</g>
		<g transform="matrix(1 0 0 1 13 -17.5)" id="FDdEqJu1Qd1Lx9ezjvixV"  >
<path style="stroke: none; stroke-width: 1; stroke-dasharray: none; stroke-linecap: butt; stroke-dashoffset: 0; stroke-linejoin: miter; stroke-miterlimit: 4; fill: rgb(245,245,245); fill-rule: nonzero; opacity: 1;"  transform=" translate(-35, -3)" d="M 0 6 L 0 0 L 70 0 L 70 6 z" stroke-linecap="round" />
</g>
		<g transform="matrix(1 0 0 1 30 -6.5)" id="TYXqgU3O5ZHB_a5TbXlqK"  >
<path style="stroke: none; stroke-width: 1; stroke-dasharray: none; stroke-linecap: butt; stroke-dashoffset: 0; stroke-linejoin: miter; stroke-miterlimit: 4; fill: rgb(245,245,245); fill-rule: nonzero; opacity: 1;"  transform=" translate(-18, -3)" d="M 0 6 L 0 0 L 36 0 L 36 6 z" stroke-linecap="round" />
</g>
		<g transform="matrix(1 0 0 1 30 3.5)" id="-PU1CEm0Wtiq_eD_5AoWX"  >
<path style="stroke: none; stroke-width: 1; stroke-dasharray: none; stroke-linecap: butt; stroke-dashoffset: 0; stroke-linejoin: miter; stroke-miterlimit: 4; fill: rgb(245,245,245); fill-rule: nonzero; opacity: 1;"  transform=" translate(-18, -3)" d="M 0 6 L 0 0 L 36 0 L 36 6 z" stroke-linecap="round" />
</g>
		<g transform="matrix(1 0 0 1 30 14.5)" id="saO4GoIItomfqBYF_mZRy"  >
<path style="stroke: none; stroke-width: 1; stroke-dasharray: none; stroke-linecap: butt; stroke-dashoffset: 0; stroke-linejoin: miter; stroke-miterlimit: 4; fill: rgb(245,245,245); fill-rule: nonzero; opacity: 1;"  transform=" translate(-18, -3)" d="M 0 6 L 0 0 L 36 0 L 36 6 z" stroke-linecap="round" />
</g>
</g>
</g>
</svg>