<svg width="32px" height="32px" viewBox="0 0 24 24" fill="none" xmlns="http://www.w3.org/2000/svg"><path fill-rule="evenodd" clip-rule="evenodd" d="M13.243 3.343a4 4 0 00-2.829 1.172l-8.728 8.728a2 2 0 000 2.828l5.657 5.657a2 2 0 002.829 0L18.9 13a4 4 0 001.171-2.828V5.343a2 2 0 00-2-2h-4.828zM13 7.586a2 2 0 102.828 2.828A2 2 0 0013 7.586z" fill="#F82C2C"></path><path d="M14.85 8.4c1.2-1.5 4.85-3.7 6.65-1.9 2.25 2.25-1.5 6-1.5 9.5 0 2.474 2.15 3 2.85 3" stroke="#AAB2BF" stroke-width="1.5" stroke-linecap="round"></path></svg>