<?xml version="1.0" encoding="utf-8"?>
<!-- Generator: Adobe Illustrator 27.3.1, SVG Export Plug-In . SVG Version: 6.00 Build 0)  -->
<svg version="1.1" id="Layer_1" xmlns="http://www.w3.org/2000/svg" xmlns:xlink="http://www.w3.org/1999/xlink" x="0px" y="0px"
	 viewBox="0 0 41.9 43.2" style="enable-background:new 0 0 41.9 43.2;" xml:space="preserve">
<style type="text/css">
	.st0{clip-path:url(#SVGID_00000119115895277680797750000006742575039713974713_);}
	.st1{fill:#A3EDBA;}
	.st2{fill:#6699A1;}
	.st3{fill:#201836;}
	.st4{fill:#8087E8;}
	.st5{fill:#FFFFFF;}
</style>
<g>
	<g>
		<defs>
			<rect id="SVGID_1_" width="41.9" height="43.2"/>
		</defs>
		<clipPath id="SVGID_00000038370838575394597860000002454907669263082123_">
			<use xlink:href="#SVGID_1_"  style="overflow:visible;"/>
		</clipPath>
		<g style="clip-path:url(#SVGID_00000038370838575394597860000002454907669263082123_);">
			<path class="st1" d="M21,43.2c11.6,0,21-9.4,21-21s-9.4-21-21-21s-21,9.4-21,21C0,33.9,9.4,43.2,21,43.2z"/>
			<path class="st1" d="M35.3,15.5l-7,2.9l0,0l-7.2,3l-3-7.2l0,0l0,0l0,0l-3-7.1C9.4,9.4,5.3,15,5.3,21.6c0,8.6,7,15.6,15.6,15.6
				s15.6-7,15.6-15.6C36.6,19.5,36.1,17.4,35.3,15.5z"/>
			<path class="st2" d="M21,33c5.9,0,10.7-4.8,10.7-10.7S26.9,11.6,21,11.6s-10.7,4.8-10.7,10.7S15.1,33,21,33z"/>
			<path class="st3" d="M21,26.8c2.5,0,4.5-2,4.5-4.5s-2-4.5-4.5-4.5s-4.5,2-4.5,4.5S18.5,26.8,21,26.8z"/>
			<path class="st1" d="M16.3,12.4c5.9-2.5,12.6,0.3,15.1,6.2l-10.6,4.5L16.3,12.4z"/>
			<path class="st4" d="M11.8,1.8l4.4,10.6c5.9-2.5,12.6,0.3,15.1,6.2l10.6-4.4C37,2.4,23.5-3.1,11.8,1.8z"/>
			<path class="st5" d="M25.3,21.1c-0.5-1.9-2.3-3.3-4.3-3.3c-0.8,0-1.6,0.2-2.2,0.6l2,4.7L25.3,21.1z"/>
		</g>
	</g>
</g>
</svg>
