<svg class="icon" style="width: 1em;height: 1em;vertical-align: middle;fill: currentColor;overflow: hidden;" viewBox="0 0 1024 1024" version="1.1" xmlns="http://www.w3.org/2000/svg" p-id="9238"><path d="M832 1024H192c-106.046 0-192-85.954-192-192V192C0 85.954 85.954 0 192 0h640c106.046 0 192 85.954 192 192v640c0 106.046-85.954 192-192 192z m0 0" fill="#FFE6E2" p-id="9239"></path><path d="M704 320H320c-35.296 0-64 28.704-64 64v320c0 35.296 28.704 64 64 64h384c35.296 0 64-28.704 64-64V384c0-35.296-28.704-64-64-64z m21.344 384c0 11.774-9.57 21.344-21.344 21.344H320c-11.774 0-21.344-9.57-21.344-21.344V470.18h426.656V704z m0 0" fill="#FC573B" p-id="9240"></path><path d="M384 256h-21.344c-11.774 0-21.344 9.54-21.344 21.344v85.344c0 11.772 9.54 21.344 21.344 21.344H384c11.774 0 21.344-9.54 21.344-21.344v-85.344c0-11.804-9.57-21.344-21.344-21.344z m0 0M661.344 256H640c-11.774 0-21.344 9.54-21.344 21.344v85.344c0 11.772 9.57 21.312 21.344 21.312h21.344c11.774 0 21.344-9.54 21.344-21.344v-85.312c-0.032-11.804-9.57-21.344-21.344-21.344z m0 0" fill="#FD907E" p-id="9241"></path></svg>