<svg viewBox="0 0 2000 1400" xmlns="http://www.w3.org/2000/svg"><mask id="b" x="0" y="0" width="2000" height="1400"><path fill="url(#a)" d="M0 0h2000v1400H0z"/></mask><path fill="none" d="M0 0h2000v1400H0z"/><g style="transform-origin:center center" stroke="#c1e4f3" stroke-width="1.4" mask="url(#b)"><path fill="#c1e4f31c" d="M50 0h50v50H50z"/><path fill="none" d="M100 0h50v50h-50zM150 0h50v50h-50z"/><path fill="#c1e4f390" d="M200 0h50v50h-50z"/><path fill="none" d="M250 0h50v50h-50z"/><path fill="#c1e4f3c5" d="M300 0h50v50h-50z"/><path fill="none" d="M350 0h50v50h-50zM400 0h50v50h-50zM450 0h50v50h-50zM500 0h50v50h-50zM700 0h50v50h-50zM750 0h50v50h-50zM800 0h50v50h-50zM850 0h50v50h-50zM900 0h50v50h-50z"/><path fill="#c1e4f371" d="M950 0h50v50h-50z"/><path fill="none" d="M1150 0h50v50h-50zM1250 0h50v50h-50zM1300 0h50v50h-50zM1350 0h50v50h-50zM1450 0h50v50h-50z"/><path fill="#c1e4f318" d="M1500 0h50v50h-50z"/><path fill="none" d="M1550 0h50v50h-50z"/><path fill="#c1e4f344" d="M1600 0h50v50h-50z"/><path fill="#c1e4f34b" d="M1650 0h50v50h-50z"/><path fill="#c1e4f369" d="M1700 0h50v50h-50z"/><path fill="none" d="M1750 0h50v50h-50z"/><path fill="#c1e4f379" d="M1800 0h50v50h-50z"/><path fill="none" d="M1900 0h50v50h-50z"/><path fill="#c1e4f374" d="M1950 0h50v50h-50z"/><path fill="none" d="M50 50h50v50H50zM100 50h50v50h-50zM200 50h50v50h-50zM250 50h50v50h-50zM300 50h50v50h-50zM350 50h50v50h-50zM450 50h50v50h-50zM550 50h50v50h-50zM600 50h50v50h-50z"/><path fill="#c1e4f35e" d="M650 50h50v50h-50z"/><path fill="none" d="M750 50h50v50h-50zM800 50h50v50h-50zM900 50h50v50h-50zM950 50h50v50h-50zM1050 50h50v50h-50zM1200 50h50v50h-50zM1250 50h50v50h-50zM1300 50h50v50h-50z"/><path fill="#c1e4f30e" d="M1350 50h50v50h-50z"/><path fill="none" d="M1400 50h50v50h-50zM1450 50h50v50h-50z"/><path fill="#c1e4f370" d="M1500 50h50v50h-50z"/><path fill="none" d="M1700 50h50v50h-50z"/><path fill="#c1e4f399" d="M1750 50h50v50h-50z"/><path fill="none" d="M1850 50h50v50h-50z"/><path fill="#c1e4f3f7" d="M1950 50h50v50h-50z"/><path fill="none" d="M0 100h50v50H0zM50 100h50v50H50z"/><path fill="#c1e4f3d1" d="M150 100h50v50h-50z"/><path fill="none" d="M250 100h50v50h-50z"/><path fill="#c1e4f3a4" d="M300 100h50v50h-50z"/><path fill="none" d="M400 100h50v50h-50z"/><path fill="#c1e4f3ab" d="M500 100h50v50h-50z"/><path fill="#c1e4f3e8" d="M550 100h50v50h-50z"/><path fill="#c1e4f303" d="M650 100h50v50h-50z"/><path fill="#c1e4f32f" d="M700 100h50v50h-50z"/><path fill="none" d="M750 100h50v50h-50zM800 100h50v50h-50zM900 100h50v50h-50z"/><path fill="#c1e4f39f" d="M950 100h50v50h-50z"/><path fill="none" d="M1000 100h50v50h-50z"/><path fill="#c1e4f3bb" d="M1050 100h50v50h-50z"/><path fill="none" d="M1100 100h50v50h-50zM1150 100h50v50h-50zM1200 100h50v50h-50zM1350 100h50v50h-50zM1400 100h50v50h-50zM1450 100h50v50h-50zM1600 100h50v50h-50zM1650 100h50v50h-50zM1700 100h50v50h-50zM1750 100h50v50h-50zM1800 100h50v50h-50zM1850 100h50v50h-50zM1900 100h50v50h-50zM1950 100h50v50h-50zM100 150h50v50h-50z"/><path fill="#c1e4f377" d="M150 150h50v50h-50z"/><path fill="none" d="M200 150h50v50h-50zM300 150h50v50h-50zM350 150h50v50h-50zM500 150h50v50h-50zM600 150h50v50h-50z"/><path fill="#c1e4f37e" d="M650 150h50v50h-50z"/><path fill="none" d="M750 150h50v50h-50zM800 150h50v50h-50zM850 150h50v50h-50zM900 150h50v50h-50zM950 150h50v50h-50z"/><path fill="#c1e4f388" d="M1000 150h50v50h-50z"/><path fill="none" d="M1100 150h50v50h-50z"/><path fill="#c1e4f39c" d="M1200 150h50v50h-50z"/><path fill="none" d="M1300 150h50v50h-50z"/><path fill="#c1e4f3a6" d="M1350 150h50v50h-50z"/><path fill="#c1e4f3b0" d="M1450 150h50v50h-50z"/><path fill="none" d="M1500 150h50v50h-50zM1550 150h50v50h-50zM1600 150h50v50h-50z"/><path fill="#c1e4f349" d="M1650 150h50v50h-50z"/><path fill="none" d="M1700 150h50v50h-50z"/><path fill="#c1e4f303" d="M1750 150h50v50h-50z"/><path fill="#c1e4f3e1" d="M1800 150h50v50h-50z"/><path fill="none" d="M1900 150h50v50h-50zM1950 150h50v50h-50zM50 200h50v50H50zM100 200h50v50h-50z"/><path fill="#c1e4f325" d="M150 200h50v50h-50z"/><path fill="none" d="M200 200h50v50h-50zM250 200h50v50h-50z"/><path fill="#c1e4f3fd" d="M350 200h50v50h-50z"/><path fill="#c1e4f38c" d="M400 200h50v50h-50z"/><path fill="#c1e4f314" d="M500 200h50v50h-50z"/><path fill="none" d="M550 200h50v50h-50zM600 200h50v50h-50zM650 200h50v50h-50zM700 200h50v50h-50zM750 200h50v50h-50z"/><path fill="#c1e4f3bc" d="M850 200h50v50h-50z"/><path fill="#c1e4f3e1" d="M950 200h50v50h-50z"/><path fill="none" d="M1050 200h50v50h-50zM1100 200h50v50h-50zM1150 200h50v50h-50z"/><path fill="#c1e4f3b8" d="M1200 200h50v50h-50z"/><path fill="none" d="M1250 200h50v50h-50z"/><path fill="#c1e4f34f" d="M1300 200h50v50h-50z"/><path fill="none" d="M1350 200h50v50h-50z"/><path fill="#c1e4f309" d="M1400 200h50v50h-50z"/><path fill="#c1e4f389" d="M1500 200h50v50h-50z"/><path fill="none" d="M1550 200h50v50h-50z"/><path fill="#c1e4f345" d="M1600 200h50v50h-50z"/><path fill="#c1e4f3c1" d="M1650 200h50v50h-50z"/><path fill="none" d="M1700 200h50v50h-50z"/><path fill="#c1e4f3ab" d="M1800 200h50v50h-50z"/><path fill="none" d="M1850 200h50v50h-50zM1900 200h50v50h-50zM1950 200h50v50h-50z"/><path fill="#c1e4f330" d="M0 250h50v50H0z"/><path fill="#c1e4f378" d="M50 250h50v50H50z"/><path fill="#c1e4f3a3" d="M100 250h50v50h-50z"/><path fill="none" d="M150 250h50v50h-50zM200 250h50v50h-50zM300 250h50v50h-50zM350 250h50v50h-50zM400 250h50v50h-50zM450 250h50v50h-50zM500 250h50v50h-50z"/><path fill="#c1e4f37d" d="M550 250h50v50h-50z"/><path fill="none" d="M600 250h50v50h-50zM650 250h50v50h-50zM700 250h50v50h-50zM750 250h50v50h-50zM800 250h50v50h-50zM850 250h50v50h-50zM900 250h50v50h-50zM950 250h50v50h-50zM1000 250h50v50h-50zM1050 250h50v50h-50z"/><path fill="#c1e4f35d" d="M1100 250h50v50h-50z"/><path fill="#c1e4f37f" d="M1150 250h50v50h-50z"/><path fill="none" d="M1200 250h50v50h-50z"/><path fill="#c1e4f3a4" d="M1350 250h50v50h-50z"/><path fill="#c1e4f368" d="M1400 250h50v50h-50z"/><path fill="none" d="M1450 250h50v50h-50zM1500 250h50v50h-50zM1550 250h50v50h-50zM1650 250h50v50h-50zM1750 250h50v50h-50zM1800 250h50v50h-50zM1850 250h50v50h-50zM1900 250h50v50h-50z"/><path fill="#c1e4f37f" d="M1950 250h50v50h-50z"/><path fill="none" d="M0 300h50v50H0zM50 300h50v50H50z"/><path fill="#c1e4f38b" d="M100 300h50v50h-50z"/><path fill="none" d="M200 300h50v50h-50zM250 300h50v50h-50zM350 300h50v50h-50zM450 300h50v50h-50zM500 300h50v50h-50zM550 300h50v50h-50zM600 300h50v50h-50z"/><path fill="#c1e4f3d4" d="M650 300h50v50h-50z"/><path fill="none" d="M750 300h50v50h-50zM800 300h50v50h-50zM850 300h50v50h-50z"/><path fill="#c1e4f3d4" d="M900 300h50v50h-50z"/><path fill="#c1e4f38e" d="M950 300h50v50h-50z"/><path fill="none" d="M1000 300h50v50h-50zM1050 300h50v50h-50zM1100 300h50v50h-50z"/><path fill="#c1e4f3d4" d="M1150 300h50v50h-50z"/><path fill="none" d="M1200 300h50v50h-50z"/><path fill="#c1e4f376" d="M1250 300h50v50h-50z"/><path fill="none" d="M1300 300h50v50h-50zM1350 300h50v50h-50zM1450 300h50v50h-50zM1550 300h50v50h-50zM1600 300h50v50h-50z"/><path fill="#c1e4f30b" d="M1650 300h50v50h-50z"/><path fill="#c1e4f33d" d="M1700 300h50v50h-50z"/><path fill="none" d="M1800 300h50v50h-50zM1850 300h50v50h-50zM1900 300h50v50h-50z"/><path fill="#c1e4f31f" d="M1950 300h50v50h-50z"/><path fill="#c1e4f376" d="M0 350h50v50H0z"/><path fill="none" d="M50 350h50v50H50z"/><path fill="#c1e4f3dc" d="M100 350h50v50h-50z"/><path fill="none" d="M150 350h50v50h-50zM200 350h50v50h-50zM250 350h50v50h-50zM300 350h50v50h-50zM350 350h50v50h-50zM400 350h50v50h-50zM450 350h50v50h-50zM550 350h50v50h-50zM600 350h50v50h-50zM700 350h50v50h-50zM750 350h50v50h-50zM800 350h50v50h-50zM850 350h50v50h-50zM900 350h50v50h-50zM950 350h50v50h-50zM1000 350h50v50h-50zM1050 350h50v50h-50zM1100 350h50v50h-50zM1200 350h50v50h-50zM1300 350h50v50h-50z"/><path fill="#c1e4f3c9" d="M1350 350h50v50h-50z"/><path fill="#c1e4f30b" d="M1400 350h50v50h-50z"/><path fill="none" d="M1450 350h50v50h-50zM1500 350h50v50h-50zM1600 350h50v50h-50zM1650 350h50v50h-50zM1700 350h50v50h-50zM1800 350h50v50h-50z"/><path fill="#c1e4f363" d="M1900 350h50v50h-50z"/><path fill="#c1e4f350" d="M1950 350h50v50h-50z"/><path fill="none" d="M0 400h50v50H0zM50 400h50v50H50zM100 400h50v50h-50z"/><path fill="#c1e4f3fc" d="M200 400h50v50h-50z"/><path fill="none" d="M250 400h50v50h-50zM300 400h50v50h-50zM350 400h50v50h-50z"/><path fill="#c1e4f39e" d="M400 400h50v50h-50z"/><path fill="none" d="M450 400h50v50h-50z"/><path fill="#c1e4f33e" d="M500 400h50v50h-50z"/><path fill="none" d="M700 400h50v50h-50z"/><path fill="#c1e4f352" d="M750 400h50v50h-50z"/><path fill="none" d="M800 400h50v50h-50zM950 400h50v50h-50zM1050 400h50v50h-50z"/><path fill="#c1e4f3e3" d="M1100 400h50v50h-50z"/><path fill="none" d="M1150 400h50v50h-50zM1200 400h50v50h-50zM1250 400h50v50h-50zM1300 400h50v50h-50zM1350 400h50v50h-50z"/><path fill="#c1e4f31b" d="M1400 400h50v50h-50z"/><path fill="#c1e4f3eb" d="M1450 400h50v50h-50z"/><path fill="none" d="M1500 400h50v50h-50zM1550 400h50v50h-50zM1600 400h50v50h-50zM1650 400h50v50h-50z"/><path fill="#c1e4f373" d="M1700 400h50v50h-50z"/><path fill="none" d="M1750 400h50v50h-50zM1800 400h50v50h-50zM1850 400h50v50h-50z"/><path fill="#c1e4f36e" d="M1900 400h50v50h-50zM1950 400h50v50h-50z"/><path fill="none" d="M0 450h50v50H0zM100 450h50v50h-50zM200 450h50v50h-50zM250 450h50v50h-50z"/><path fill="#c1e4f304" d="M300 450h50v50h-50z"/><path fill="none" d="M400 450h50v50h-50zM450 450h50v50h-50z"/><path fill="#c1e4f333" d="M500 450h50v50h-50z"/><path fill="none" d="M550 450h50v50h-50z"/><path fill="#c1e4f3ac" d="M700 450h50v50h-50z"/><path fill="none" d="M750 450h50v50h-50zM800 450h50v50h-50zM850 450h50v50h-50zM900 450h50v50h-50zM950 450h50v50h-50zM1000 450h50v50h-50zM1050 450h50v50h-50zM1100 450h50v50h-50zM1150 450h50v50h-50zM1200 450h50v50h-50z"/><path fill="#c1e4f3b6" d="M1350 450h50v50h-50z"/><path fill="#c1e4f3dc" d="M1400 450h50v50h-50z"/><path fill="#c1e4f321" d="M1450 450h50v50h-50z"/><path fill="none" d="M1500 450h50v50h-50zM1550 450h50v50h-50zM1600 450h50v50h-50zM1650 450h50v50h-50zM1700 450h50v50h-50zM1750 450h50v50h-50zM1800 450h50v50h-50zM1850 450h50v50h-50z"/><path fill="#c1e4f3ce" d="M0 500h50v50H0z"/><path fill="none" d="M50 500h50v50H50zM250 500h50v50h-50zM350 500h50v50h-50zM400 500h50v50h-50zM450 500h50v50h-50zM500 500h50v50h-50z"/><path fill="#c1e4f30b" d="M550 500h50v50h-50z"/><path fill="none" d="M600 500h50v50h-50z"/><path fill="#c1e4f381" d="M650 500h50v50h-50z"/><path fill="#c1e4f324" d="M700 500h50v50h-50z"/><path fill="none" d="M800 500h50v50h-50zM850 500h50v50h-50zM900 500h50v50h-50z"/><path fill="#c1e4f334" d="M1000 500h50v50h-50z"/><path fill="none" d="M1050 500h50v50h-50zM1100 500h50v50h-50zM1150 500h50v50h-50z"/><path fill="#c1e4f381" d="M1200 500h50v50h-50z"/><path fill="none" d="M1250 500h50v50h-50zM1300 500h50v50h-50zM1400 500h50v50h-50z"/><path fill="#c1e4f3e8" d="M1450 500h50v50h-50z"/><path fill="#c1e4f3c6" d="M1500 500h50v50h-50z"/><path fill="#c1e4f38b" d="M1550 500h50v50h-50z"/><path fill="none" d="M1650 500h50v50h-50zM1700 500h50v50h-50zM1800 500h50v50h-50zM1900 500h50v50h-50zM0 550h50v50H0zM50 550h50v50H50z"/><path fill="#c1e4f372" d="M100 550h50v50h-50z"/><path fill="#c1e4f3c8" d="M150 550h50v50h-50z"/><path fill="#c1e4f3cc" d="M250 550h50v50h-50z"/><path fill="none" d="M300 550h50v50h-50zM350 550h50v50h-50z"/><path fill="#c1e4f30d" d="M400 550h50v50h-50z"/><path fill="#c1e4f3f2" d="M450 550h50v50h-50z"/><path fill="none" d="M500 550h50v50h-50z"/><path fill="#c1e4f36c" d="M550 550h50v50h-50z"/><path fill="#c1e4f391" d="M600 550h50v50h-50z"/><path fill="none" d="M650 550h50v50h-50z"/><path fill="#c1e4f367" d="M700 550h50v50h-50z"/><path fill="none" d="M800 550h50v50h-50z"/><path fill="#c1e4f3ca" d="M850 550h50v50h-50z"/><path fill="#c1e4f3c3" d="M900 550h50v50h-50z"/><path fill="#c1e4f37e" d="M950 550h50v50h-50z"/><path fill="none" d="M1000 550h50v50h-50zM1100 550h50v50h-50z"/><path fill="#c1e4f372" d="M1150 550h50v50h-50z"/><path fill="none" d="M1200 550h50v50h-50z"/><path fill="#c1e4f3f6" d="M1300 550h50v50h-50z"/><path fill="#c1e4f321" d="M1450 550h50v50h-50z"/><path fill="#c1e4f39d" d="M1550 550h50v50h-50z"/><path fill="none" d="M1600 550h50v50h-50z"/><path fill="#c1e4f361" d="M1750 550h50v50h-50z"/><path fill="none" d="M1800 550h50v50h-50z"/><path fill="#c1e4f3fa" d="M1850 550h50v50h-50z"/><path fill="#c1e4f388" d="M1900 550h50v50h-50z"/><path fill="none" d="M0 600h50v50H0zM100 600h50v50h-50zM150 600h50v50h-50z"/><path fill="#c1e4f3cd" d="M200 600h50v50h-50z"/><path fill="none" d="M250 600h50v50h-50z"/><path fill="#c1e4f394" d="M350 600h50v50h-50z"/><path fill="none" d="M400 600h50v50h-50zM450 600h50v50h-50zM500 600h50v50h-50zM550 600h50v50h-50z"/><path fill="#c1e4f383" d="M600 600h50v50h-50z"/><path fill="none" d="M650 600h50v50h-50z"/><path fill="#c1e4f399" d="M700 600h50v50h-50z"/><path fill="none" d="M850 600h50v50h-50zM900 600h50v50h-50zM950 600h50v50h-50z"/><path fill="#c1e4f3a8" d="M1000 600h50v50h-50z"/><path fill="none" d="M1050 600h50v50h-50zM1150 600h50v50h-50zM1200 600h50v50h-50z"/><path fill="#c1e4f323" d="M1300 600h50v50h-50z"/><path fill="#c1e4f357" d="M1350 600h50v50h-50z"/><path fill="none" d="M1450 600h50v50h-50z"/><path fill="#c1e4f341" d="M1500 600h50v50h-50z"/><path fill="none" d="M1550 600h50v50h-50zM1650 600h50v50h-50zM1700 600h50v50h-50zM1800 600h50v50h-50zM1850 600h50v50h-50zM1900 600h50v50h-50z"/><path fill="#c1e4f3d8" d="M1950 600h50v50h-50z"/><path fill="none" d="M50 650h50v50H50z"/><path fill="#c1e4f323" d="M150 650h50v50h-50z"/><path fill="none" d="M250 650h50v50h-50zM300 650h50v50h-50z"/><path fill="#c1e4f390" d="M350 650h50v50h-50z"/><path fill="#c1e4f3d6" d="M400 650h50v50h-50z"/><path fill="none" d="M450 650h50v50h-50zM500 650h50v50h-50zM550 650h50v50h-50zM600 650h50v50h-50zM700 650h50v50h-50z"/><path fill="#c1e4f3c0" d="M800 650h50v50h-50z"/><path fill="none" d="M850 650h50v50h-50zM900 650h50v50h-50zM950 650h50v50h-50zM1050 650h50v50h-50z"/><path fill="#c1e4f35f" d="M1100 650h50v50h-50z"/><path fill="none" d="M1150 650h50v50h-50zM1200 650h50v50h-50z"/><path fill="#c1e4f3ee" d="M1250 650h50v50h-50z"/><path fill="none" d="M1300 650h50v50h-50zM1400 650h50v50h-50z"/><path fill="#c1e4f32e" d="M1450 650h50v50h-50z"/><path fill="none" d="M1500 650h50v50h-50z"/><path fill="#c1e4f39d" d="M1550 650h50v50h-50z"/><path fill="none" d="M1600 650h50v50h-50zM1650 650h50v50h-50zM1700 650h50v50h-50zM1750 650h50v50h-50z"/><path fill="#c1e4f33a" d="M1800 650h50v50h-50z"/><path fill="#c1e4f3de" d="M1950 650h50v50h-50z"/><path fill="none" d="M50 700h50v50H50zM100 700h50v50h-50zM150 700h50v50h-50zM200 700h50v50h-50zM250 700h50v50h-50zM350 700h50v50h-50zM400 700h50v50h-50zM450 700h50v50h-50zM500 700h50v50h-50zM550 700h50v50h-50z"/><path fill="#c1e4f3ef" d="M600 700h50v50h-50z"/><path fill="none" d="M650 700h50v50h-50zM700 700h50v50h-50zM800 700h50v50h-50zM850 700h50v50h-50zM900 700h50v50h-50zM950 700h50v50h-50zM1000 700h50v50h-50zM1050 700h50v50h-50z"/><path fill="#c1e4f3ad" d="M1100 700h50v50h-50z"/><path fill="none" d="M1200 700h50v50h-50zM1250 700h50v50h-50zM1300 700h50v50h-50zM1450 700h50v50h-50zM1500 700h50v50h-50zM1550 700h50v50h-50z"/><path fill="#c1e4f375" d="M1600 700h50v50h-50z"/><path fill="none" d="M1650 700h50v50h-50z"/><path fill="#c1e4f3a0" d="M1700 700h50v50h-50z"/><path fill="none" d="M1750 700h50v50h-50zM1800 700h50v50h-50zM1900 700h50v50h-50zM1950 700h50v50h-50zM0 750h50v50H0zM100 750h50v50h-50zM150 750h50v50h-50z"/><path fill="#c1e4f369" d="M200 750h50v50h-50z"/><path fill="none" d="M250 750h50v50h-50zM300 750h50v50h-50zM400 750h50v50h-50zM450 750h50v50h-50zM500 750h50v50h-50z"/><path fill="#c1e4f3e8" d="M650 750h50v50h-50z"/><path fill="#c1e4f30c" d="M750 750h50v50h-50z"/><path fill="none" d="M800 750h50v50h-50zM900 750h50v50h-50zM1000 750h50v50h-50z"/><path fill="#c1e4f330" d="M1150 750h50v50h-50z"/><path fill="#c1e4f35f" d="M1250 750h50v50h-50z"/><path fill="#c1e4f398" d="M1350 750h50v50h-50z"/><path fill="none" d="M1400 750h50v50h-50z"/><path fill="#c1e4f35f" d="M1500 750h50v50h-50z"/><path fill="none" d="M1550 750h50v50h-50z"/><path fill="#c1e4f345" d="M1650 750h50v50h-50z"/><path fill="#c1e4f302" d="M1700 750h50v50h-50z"/><path fill="none" d="M1750 750h50v50h-50zM1850 750h50v50h-50z"/><path fill="#c1e4f375" d="M1900 750h50v50h-50z"/><path fill="#c1e4f356" d="M1950 750h50v50h-50z"/><path fill="none" d="M0 800h50v50H0zM50 800h50v50H50zM150 800h50v50h-50zM200 800h50v50h-50zM250 800h50v50h-50zM300 800h50v50h-50z"/><path fill="#c1e4f306" d="M400 800h50v50h-50z"/><path fill="none" d="M450 800h50v50h-50z"/><path fill="#c1e4f31e" d="M600 800h50v50h-50z"/><path fill="none" d="M650 800h50v50h-50zM750 800h50v50h-50z"/><path fill="#c1e4f3a3" d="M800 800h50v50h-50z"/><path fill="none" d="M850 800h50v50h-50zM950 800h50v50h-50zM1000 800h50v50h-50zM1050 800h50v50h-50zM1100 800h50v50h-50zM1150 800h50v50h-50zM1200 800h50v50h-50z"/><path fill="#c1e4f384" d="M1250 800h50v50h-50z"/><path fill="#c1e4f30d" d="M1350 800h50v50h-50z"/><path fill="none" d="M1400 800h50v50h-50zM1500 800h50v50h-50z"/><path fill="#c1e4f327" d="M1600 800h50v50h-50z"/><path fill="#c1e4f304" d="M1750 800h50v50h-50z"/><path fill="none" d="M1800 800h50v50h-50zM1850 800h50v50h-50zM1900 800h50v50h-50z"/><path fill="#c1e4f3fc" d="M100 850h50v50h-50z"/><path fill="none" d="M150 850h50v50h-50zM200 850h50v50h-50zM250 850h50v50h-50zM400 850h50v50h-50zM450 850h50v50h-50zM550 850h50v50h-50zM600 850h50v50h-50zM650 850h50v50h-50zM750 850h50v50h-50zM800 850h50v50h-50zM850 850h50v50h-50zM900 850h50v50h-50zM950 850h50v50h-50zM1000 850h50v50h-50zM1050 850h50v50h-50zM1100 850h50v50h-50zM1150 850h50v50h-50zM1200 850h50v50h-50z"/><path fill="#c1e4f336" d="M1250 850h50v50h-50z"/><path fill="none" d="M1300 850h50v50h-50zM1400 850h50v50h-50zM1450 850h50v50h-50zM1500 850h50v50h-50zM1550 850h50v50h-50z"/><path fill="#c1e4f321" d="M1600 850h50v50h-50z"/><path fill="none" d="M1650 850h50v50h-50z"/><path fill="#c1e4f3e1" d="M1700 850h50v50h-50z"/><path fill="none" d="M1750 850h50v50h-50zM1800 850h50v50h-50zM1850 850h50v50h-50zM50 900h50v50H50zM100 900h50v50h-50z"/><path fill="#c1e4f3b0" d="M200 900h50v50h-50z"/><path fill="none" d="M250 900h50v50h-50zM300 900h50v50h-50zM450 900h50v50h-50z"/><path fill="#c1e4f37a" d="M650 900h50v50h-50z"/><path fill="none" d="M700 900h50v50h-50z"/><path fill="#c1e4f3e5" d="M750 900h50v50h-50z"/><path fill="#c1e4f348" d="M800 900h50v50h-50z"/><path fill="none" d="M1000 900h50v50h-50zM1050 900h50v50h-50zM1100 900h50v50h-50zM1150 900h50v50h-50zM1250 900h50v50h-50z"/><path fill="#c1e4f39c" d="M1300 900h50v50h-50z"/><path fill="none" d="M1400 900h50v50h-50z"/><path fill="#c1e4f368" d="M1450 900h50v50h-50z"/><path fill="none" d="M1500 900h50v50h-50zM1550 900h50v50h-50zM1600 900h50v50h-50z"/><path fill="#c1e4f351" d="M1650 900h50v50h-50z"/><path fill="none" d="M1700 900h50v50h-50z"/><path fill="#c1e4f380" d="M1750 900h50v50h-50z"/><path fill="none" d="M1800 900h50v50h-50zM1850 900h50v50h-50zM1950 900h50v50h-50zM0 950h50v50H0zM150 950h50v50h-50zM200 950h50v50h-50z"/><path fill="#c1e4f379" d="M250 950h50v50h-50z"/><path fill="none" d="M300 950h50v50h-50zM350 950h50v50h-50zM400 950h50v50h-50zM500 950h50v50h-50zM550 950h50v50h-50zM650 950h50v50h-50z"/><path fill="#c1e4f31d" d="M700 950h50v50h-50z"/><path fill="#c1e4f3e0" d="M750 950h50v50h-50z"/><path fill="#c1e4f353" d="M800 950h50v50h-50z"/><path fill="none" d="M850 950h50v50h-50zM950 950h50v50h-50zM1050 950h50v50h-50zM1100 950h50v50h-50z"/><path fill="#c1e4f35c" d="M1200 950h50v50h-50z"/><path fill="#c1e4f35a" d="M1250 950h50v50h-50z"/><path fill="none" d="M1300 950h50v50h-50zM1450 950h50v50h-50zM1600 950h50v50h-50zM1700 950h50v50h-50zM1750 950h50v50h-50zM1800 950h50v50h-50zM1850 950h50v50h-50z"/><path fill="#c1e4f302" d="M1900 950h50v50h-50z"/><path fill="#c1e4f3c1" d="M1950 950h50v50h-50z"/><path fill="none" d="M0 1000h50v50H0z"/><path fill="#c1e4f3dc" d="M100 1000h50v50h-50z"/><path fill="none" d="M200 1000h50v50h-50z"/><path fill="#c1e4f31e" d="M250 1000h50v50h-50z"/><path fill="none" d="M300 1000h50v50h-50zM350 1000h50v50h-50zM400 1000h50v50h-50z"/><path fill="#c1e4f3a8" d="M450 1000h50v50h-50z"/><path fill="none" d="M550 1000h50v50h-50zM600 1000h50v50h-50z"/><path fill="#c1e4f38b" d="M650 1000h50v50h-50z"/><path fill="none" d="M750 1000h50v50h-50zM800 1000h50v50h-50z"/><path fill="#c1e4f317" d="M850 1000h50v50h-50z"/><path fill="#c1e4f3ed" d="M950 1000h50v50h-50z"/><path fill="#c1e4f339" d="M1000 1000h50v50h-50z"/><path fill="none" d="M1050 1000h50v50h-50zM1150 1000h50v50h-50zM1200 1000h50v50h-50zM1250 1000h50v50h-50zM1300 1000h50v50h-50z"/><path fill="#c1e4f3d6" d="M1400 1000h50v50h-50z"/><path fill="none" d="M1500 1000h50v50h-50zM1550 1000h50v50h-50zM1600 1000h50v50h-50zM1700 1000h50v50h-50z"/><path fill="#c1e4f36c" d="M1750 1000h50v50h-50z"/><path fill="none" d="M1850 1000h50v50h-50zM1900 1000h50v50h-50zM1950 1000h50v50h-50z"/><path fill="#c1e4f3e9" d="M0 1050h50v50H0z"/><path fill="none" d="M200 1050h50v50h-50zM250 1050h50v50h-50zM300 1050h50v50h-50zM350 1050h50v50h-50zM400 1050h50v50h-50zM500 1050h50v50h-50zM600 1050h50v50h-50z"/><path fill="#c1e4f31d" d="M650 1050h50v50h-50z"/><path fill="none" d="M750 1050h50v50h-50z"/><path fill="#c1e4f3f7" d="M850 1050h50v50h-50z"/><path fill="none" d="M900 1050h50v50h-50z"/><path fill="#c1e4f3f7" d="M950 1050h50v50h-50z"/><path fill="#c1e4f334" d="M1000 1050h50v50h-50z"/><path fill="#c1e4f33d" d="M1050 1050h50v50h-50z"/><path fill="none" d="M1100 1050h50v50h-50zM1150 1050h50v50h-50z"/><path fill="#c1e4f356" d="M1250 1050h50v50h-50z"/><path fill="none" d="M1350 1050h50v50h-50z"/><path fill="#c1e4f345" d="M1400 1050h50v50h-50z"/><path fill="none" d="M1500 1050h50v50h-50zM1600 1050h50v50h-50z"/><path fill="#c1e4f3e1" d="M1700 1050h50v50h-50z"/><path fill="none" d="M1850 1050h50v50h-50z"/><path fill="#c1e4f3ee" d="M1900 1050h50v50h-50z"/><path fill="none" d="M1950 1050h50v50h-50z"/><path fill="#c1e4f330" d="M0 1100h50v50H0z"/><path fill="none" d="M50 1100h50v50H50zM100 1100h50v50h-50z"/><path fill="#c1e4f3ba" d="M150 1100h50v50h-50z"/><path fill="none" d="M250 1100h50v50h-50z"/><path fill="#c1e4f3e2" d="M350 1100h50v50h-50z"/><path fill="none" d="M400 1100h50v50h-50zM450 1100h50v50h-50zM500 1100h50v50h-50z"/><path fill="#c1e4f338" d="M550 1100h50v50h-50z"/><path fill="none" d="M650 1100h50v50h-50z"/><path fill="#c1e4f326" d="M700 1100h50v50h-50z"/><path fill="none" d="M750 1100h50v50h-50zM800 1100h50v50h-50z"/><path fill="#c1e4f3b4" d="M900 1100h50v50h-50z"/><path fill="none" d="M950 1100h50v50h-50zM1000 1100h50v50h-50z"/><path fill="#c1e4f357" d="M1050 1100h50v50h-50z"/><path fill="none" d="M1100 1100h50v50h-50zM1150 1100h50v50h-50zM1200 1100h50v50h-50zM1250 1100h50v50h-50zM1300 1100h50v50h-50zM1350 1100h50v50h-50z"/><path fill="#c1e4f36a" d="M1400 1100h50v50h-50z"/><path fill="#c1e4f3bb" d="M1450 1100h50v50h-50z"/><path fill="none" d="M1500 1100h50v50h-50zM1550 1100h50v50h-50zM1600 1100h50v50h-50zM1650 1100h50v50h-50z"/><path fill="#c1e4f3eb" d="M1750 1100h50v50h-50z"/><path fill="none" d="M1850 1100h50v50h-50z"/><path fill="#c1e4f3dc" d="M1900 1100h50v50h-50z"/><path fill="none" d="M1950 1100h50v50h-50zM100 1150h50v50h-50zM150 1150h50v50h-50zM200 1150h50v50h-50zM250 1150h50v50h-50zM300 1150h50v50h-50zM350 1150h50v50h-50zM400 1150h50v50h-50zM450 1150h50v50h-50z"/><path fill="#c1e4f34a" d="M500 1150h50v50h-50z"/><path fill="none" d="M550 1150h50v50h-50zM600 1150h50v50h-50zM650 1150h50v50h-50z"/><path fill="#c1e4f391" d="M700 1150h50v50h-50z"/><path fill="#c1e4f303" d="M750 1150h50v50h-50z"/><path fill="#c1e4f3a2" d="M800 1150h50v50h-50z"/><path fill="#c1e4f381" d="M850 1150h50v50h-50z"/><path fill="none" d="M900 1150h50v50h-50zM950 1150h50v50h-50zM1000 1150h50v50h-50zM1050 1150h50v50h-50zM1100 1150h50v50h-50zM1150 1150h50v50h-50zM1250 1150h50v50h-50zM1300 1150h50v50h-50zM1400 1150h50v50h-50zM1550 1150h50v50h-50zM1700 1150h50v50h-50zM1750 1150h50v50h-50zM1800 1150h50v50h-50zM1850 1150h50v50h-50z"/><path fill="#c1e4f37b" d="M1950 1150h50v50h-50z"/><path fill="none" d="M0 1200h50v50H0zM50 1200h50v50H50zM200 1200h50v50h-50zM250 1200h50v50h-50zM350 1200h50v50h-50z"/><path fill="#c1e4f3ad" d="M400 1200h50v50h-50z"/><path fill="none" d="M450 1200h50v50h-50z"/><path fill="#c1e4f3de" d="M500 1200h50v50h-50z"/><path fill="none" d="M600 1200h50v50h-50zM650 1200h50v50h-50zM800 1200h50v50h-50zM850 1200h50v50h-50z"/><path fill="#c1e4f339" d="M900 1200h50v50h-50z"/><path fill="#c1e4f38a" d="M950 1200h50v50h-50z"/><path fill="none" d="M1000 1200h50v50h-50z"/><path fill="#c1e4f36a" d="M1050 1200h50v50h-50z"/><path fill="none" d="M1100 1200h50v50h-50zM1150 1200h50v50h-50zM1200 1200h50v50h-50z"/><path fill="#c1e4f314" d="M1250 1200h50v50h-50z"/><path fill="none" d="M1300 1200h50v50h-50zM1350 1200h50v50h-50zM1400 1200h50v50h-50z"/><path fill="#c1e4f372" d="M1500 1200h50v50h-50z"/><path fill="#c1e4f313" d="M1550 1200h50v50h-50z"/><path fill="none" d="M1600 1200h50v50h-50zM1700 1200h50v50h-50z"/><path fill="#c1e4f314" d="M1800 1200h50v50h-50z"/><path fill="none" d="M1900 1200h50v50h-50zM1950 1200h50v50h-50z"/><path fill="#c1e4f337" d="M50 1250h50v50H50z"/><path fill="none" d="M100 1250h50v50h-50zM300 1250h50v50h-50z"/><path fill="#c1e4f3e2" d="M350 1250h50v50h-50z"/><path fill="none" d="M450 1250h50v50h-50zM500 1250h50v50h-50zM550 1250h50v50h-50zM600 1250h50v50h-50zM700 1250h50v50h-50z"/><path fill="#c1e4f360" d="M750 1250h50v50h-50z"/><path fill="none" d="M850 1250h50v50h-50zM900 1250h50v50h-50z"/><path fill="#c1e4f36b" d="M950 1250h50v50h-50z"/><path fill="#c1e4f3af" d="M1000 1250h50v50h-50z"/><path fill="none" d="M1100 1250h50v50h-50zM1150 1250h50v50h-50zM1200 1250h50v50h-50zM1250 1250h50v50h-50z"/><path fill="#c1e4f34c" d="M1400 1250h50v50h-50z"/><path fill="none" d="M1450 1250h50v50h-50zM1500 1250h50v50h-50zM1550 1250h50v50h-50zM1600 1250h50v50h-50zM1650 1250h50v50h-50zM1750 1250h50v50h-50zM1800 1250h50v50h-50zM1850 1250h50v50h-50zM1900 1250h50v50h-50zM1950 1250h50v50h-50zM0 1300h50v50H0zM50 1300h50v50H50zM100 1300h50v50h-50zM150 1300h50v50h-50zM200 1300h50v50h-50z"/><path fill="#c1e4f353" d="M250 1300h50v50h-50z"/><path fill="none" d="M300 1300h50v50h-50zM350 1300h50v50h-50z"/><path fill="#c1e4f313" d="M400 1300h50v50h-50z"/><path fill="none" d="M500 1300h50v50h-50z"/><path fill="#c1e4f3a6" d="M550 1300h50v50h-50z"/><path fill="#c1e4f38c" d="M700 1300h50v50h-50z"/><path fill="none" d="M800 1300h50v50h-50zM850 1300h50v50h-50zM900 1300h50v50h-50zM950 1300h50v50h-50zM1050 1300h50v50h-50zM1100 1300h50v50h-50zM1300 1300h50v50h-50z"/><path fill="#c1e4f3aa" d="M1350 1300h50v50h-50z"/><path fill="#c1e4f366" d="M1400 1300h50v50h-50z"/><path fill="none" d="M1550 1300h50v50h-50zM1600 1300h50v50h-50zM1650 1300h50v50h-50z"/><path fill="#c1e4f393" d="M1700 1300h50v50h-50z"/><path fill="none" d="M1750 1300h50v50h-50zM1800 1300h50v50h-50zM1850 1300h50v50h-50zM1900 1300h50v50h-50zM1950 1300h50v50h-50zM50 1350h50v50H50zM100 1350h50v50h-50zM200 1350h50v50h-50zM250 1350h50v50h-50zM350 1350h50v50h-50zM400 1350h50v50h-50z"/><path fill="#c1e4f356" d="M450 1350h50v50h-50z"/><path fill="#c1e4f3b3" d="M500 1350h50v50h-50z"/><path fill="#c1e4f3ae" d="M550 1350h50v50h-50z"/><path fill="#c1e4f33b" d="M600 1350h50v50h-50z"/><path fill="none" d="M650 1350h50v50h-50zM700 1350h50v50h-50z"/><path fill="#c1e4f329" d="M750 1350h50v50h-50z"/><path fill="none" d="M800 1350h50v50h-50zM900 1350h50v50h-50zM1000 1350h50v50h-50z"/><path fill="#c1e4f3ca" d="M1100 1350h50v50h-50z"/><path fill="none" d="M1150 1350h50v50h-50z"/><path fill="#c1e4f3b2" d="M1200 1350h50v50h-50z"/><path fill="none" d="M1250 1350h50v50h-50zM1300 1350h50v50h-50zM1350 1350h50v50h-50zM1400 1350h50v50h-50zM1450 1350h50v50h-50zM1550 1350h50v50h-50zM1600 1350h50v50h-50zM1650 1350h50v50h-50zM1700 1350h50v50h-50zM1750 1350h50v50h-50zM1850 1350h50v50h-50zM1900 1350h50v50h-50z"/></g><defs><radialGradient id="a"><stop offset="40.8%" stop-color="#fff" stop-opacity="0"/><stop offset="100%" stop-color="#fff" stop-opacity=".592"/></radialGradient></defs></svg>