<svg width="40" height="40" viewBox="0 0 40 40" fill="none" xmlns="http://www.w3.org/2000/svg">
<path d="M30.0857 27.0959C29.7686 27.4277 29.2613 27.5121 28.8481 27.3018L14.8138 20.1583C14.507 20.0021 14.1398 20.0055 13.8362 20.1673L4 25.4082V28.4082C4 28.9604 4.46214 29.4082 5.03226 29.4082H34.9677C35.5378 29.4082 36 28.9604 36 28.4082V20.9082L30.0857 27.0959Z" fill="#E1E6EC"/>
<path d="M14.3337 17.5434C14.9166 17.5434 15.4977 17.6823 16.0141 17.9451L28.9982 24.554L34.1064 19.2096L35.4839 17.7685V16.5479C35.4839 16.1579 35.2497 15.8034 34.884 15.64L22.4758 10.092C22.2137 9.97483 21.9128 9.96933 21.6462 10.0769L10.2833 14.6635C9.9135 14.8128 9.4881 14.7414 9.19174 14.4804L5.72655 11.4287C5.06343 10.8447 4 11.3005 4 12.1687V22.5549L12.5925 17.9766C13.1244 17.6933 13.7266 17.5434 14.3337 17.5434Z" fill="#ADB1F0"/>
</svg>
