<svg width="28" height="32" viewBox="0 0 28 32" fill="none" xmlns="http://www.w3.org/2000/svg">
<path d="M25.8801 4.77051H6.1875C5.08293 4.77051 4.1875 5.66594 4.1875 6.77051V18.8879C4.1875 19.9925 5.08293 20.8879 6.1875 20.8879H25.8801C26.9847 20.8879 27.8801 19.9925 27.8801 18.8879V6.77051C27.8801 5.66594 26.9847 4.77051 25.8801 4.77051Z" fill="#ADB1F0"/>
<path d="M2.00001 2C1.4478 2 1 2.40036 1 2.8941C1 3.20447 1.17727 3.47756 1.4459 3.63787V27H2.55412V3.63787C2.82274 3.47756 3 3.20447 3 2.8941C3 2.40036 2.55222 2 2.00001 2Z" fill="#ADB1F0"/>
<circle cx="2" cy="3" r="2" fill="#ADB1F0"/>
</svg>
