<svg width="40" height="40" viewBox="0 0 40 40" fill="none" xmlns="http://www.w3.org/2000/svg">
<g clip-path="url(#clip0_188_33918)">
<path d="M33.59 16.8979C32.9259 16.8979 32.4044 15.5709 31.6843 13.5471C30.8053 11.0755 29.711 8 27.2596 8C23.6529 8 22.2172 14.8402 20.9503 20.8756C20.4441 23.2854 19.6074 27.2714 18.9818 28.0003C18.3607 27.882 17.8549 26.5869 17.1688 24.6585C16.2893 22.187 15.1947 19.1115 12.7428 19.1115C10.2908 19.1115 9.19657 22.187 8.3172 24.6578C7.59696 26.6824 7.07516 28.0093 6.41001 28.0093C5.63112 28.0093 5 28.9024 5 30.0047C5 31.1069 5.63112 32 6.41001 32C8.86193 32 9.95667 28.9245 10.836 26.4531C11.5563 24.4291 12.0781 23.1022 12.7428 23.1022C13.4078 23.1022 13.9297 24.4291 14.6498 26.4537C15.5292 28.9245 16.624 32 19.0754 32C21.5567 32 22.5283 27.3715 23.6533 22.0116C24.491 18.0209 25.7569 11.9907 27.2596 11.9907C27.9238 11.9907 28.4452 13.3177 29.1654 15.3417C30.0443 17.8131 31.1385 20.8886 33.59 20.8886C34.3689 20.8886 35 19.9955 35 18.8932C35 17.791 34.3689 16.8979 33.59 16.8979Z" fill="#ADB1F0"/>
</g>
<defs>
<clipPath id="clip0_188_33918">
<rect width="32" height="32" fill="white" transform="translate(4 4)"/>
</clipPath>
</defs>
</svg>
