<svg width="40" height="40" viewBox="0 0 40 40" fill="none" xmlns="http://www.w3.org/2000/svg">
<g clip-path="url(#clip0_958_37905)">
<path d="M12.3322 28.8093L10.1179 18.4751C10.0855 18.3231 9.96964 18.2024 9.81898 18.1637L4.51319 16.7988C4.19963 16.7181 3.92053 17.0151 4.02073 17.3229L8.96872 32.5512C9.07212 32.8697 9.49327 32.9367 9.69038 32.6661L12.2627 29.1369C12.3314 29.0426 12.3566 28.9234 12.3322 28.8093ZM21.32 8.62191L29.0986 16.4003C29.2002 16.5017 29.3473 16.5428 29.4865 16.5087L34.7417 15.2207C35.0809 15.1375 35.1678 14.6955 34.8851 14.4902L21.8104 4.9907C21.5368 4.79219 21.1542 4.99045 21.1588 5.3283L21.2001 8.33731C21.2015 8.44424 21.2445 8.54632 21.32 8.62191ZM5.69285 14.9834L10.8264 16.3041C10.967 16.3403 11.1161 16.2995 11.2186 16.1968L19.0245 8.39139C19.1028 8.31302 19.1463 8.20634 19.1447 8.09563L19.1052 5.20816C19.1006 4.87548 18.7229 4.68624 18.4537 4.8818L5.55399 14.2541C5.27309 14.4581 5.35663 14.8969 5.69285 14.9834ZM24.7476 28.2265C24.6541 28.0873 24.4852 28.0189 24.3211 28.0541L14.1281 30.2381C14.0294 30.2593 13.942 30.3161 13.8825 30.3977L10.4615 35.0916C10.6385 35.1561 10.825 35.1974 11.0209 35.1974H28.6589C28.9873 35.1974 29.1826 34.8309 28.9995 34.5583L24.7476 28.2265ZM35.4913 17.1488L30.094 18.4717C29.9718 18.5016 29.8702 18.5859 29.8181 18.7005L26.2817 26.4809C26.2228 26.6105 26.2352 26.7613 26.3146 26.8794L30.3418 32.877C30.5328 33.1611 30.9671 33.1005 31.0727 32.775L35.9794 17.6741C36.0786 17.3684 35.8038 17.0723 35.4913 17.1488Z" fill="#ADB1F0"/>
<path d="M14.0574 17.1352L18.7668 18.3469C19.0287 18.4143 19.2829 18.2143 19.2793 17.9439L19.1994 12.1026C19.1944 11.7397 18.7556 11.5614 18.499 11.818L13.8695 16.4478C13.6449 16.6724 13.7499 17.0561 14.0574 17.1352ZM18.0264 20.275L12.9276 18.9634C12.6325 18.8874 12.3605 19.1487 12.4244 19.4467L13.8 25.8664C13.8743 26.2132 14.3239 26.3087 14.5329 26.0221L18.2557 20.9141C18.4264 20.6799 18.307 20.3473 18.0264 20.275ZM21.8398 18.3828L26.2241 17.3082C26.5346 17.2321 26.6426 16.8457 26.4163 16.6195L21.9566 12.1596C21.6963 11.8992 21.2512 12.0871 21.2562 12.4553L21.3319 17.9898C21.3355 18.2536 21.5836 18.4455 21.8398 18.3828ZM20.6231 22.0842C20.4644 21.8477 20.1188 21.8411 19.9509 22.0712L16.42 26.9161C16.1982 27.2205 16.4692 27.6379 16.8374 27.559L22.7684 26.288C23.0521 26.2271 23.1848 25.8989 23.023 25.6581L20.6231 22.0842ZM26.5432 19.3419L22.5711 20.3154C22.294 20.3833 22.169 20.706 22.328 20.9427L24.433 24.0773C24.612 24.3439 25.0141 24.3107 25.1472 24.0183L27.0144 19.9103C27.1563 19.5984 26.876 19.2603 26.5432 19.3419Z" fill="#E1E6EC"/>
</g>
<defs>
<clipPath id="clip0_958_37905">
<rect width="32" height="30.3946" fill="white" transform="translate(4 4.80273)"/>
</clipPath>
</defs>
</svg>
