<svg width="40" height="40" viewBox="0 0 40 40" fill="none" xmlns="http://www.w3.org/2000/svg">
<g clip-path="url(#clip0_206_41007)">
<path d="M28.7323 33.1057L18.1037 22.477C18.0191 22.3925 17.9716 22.2779 17.9716 22.1582V4.4557C17.9716 4.17662 17.7182 3.95703 17.4432 4.00454C8.2305 5.59779 1.6754 14.9466 4.78042 25.0899C6.27884 29.9851 10.0234 33.7657 14.8938 35.3427C19.9808 36.9899 24.8326 36.163 28.6554 33.8134C28.9028 33.6612 28.9376 33.311 28.7323 33.1057Z" fill="#ADB1F0"/>
<path d="M20.7029 3.79649C20.4445 3.78188 20.2252 3.99417 20.2252 4.25296V21.0386C20.2252 21.1581 20.2727 21.2728 20.3573 21.3572L30.5113 31.5112C30.6864 31.6865 30.9746 31.6918 31.1511 31.5179C34.1365 28.5768 36 24.5012 36 19.9792C36 11.331 29.2301 4.27911 20.7029 3.79649Z" fill="#E1E6EC"/>
</g>
<defs>
<clipPath id="clip0_206_41007">
<rect width="32" height="32.4083" fill="white" transform="translate(4 3.79578)"/>
</clipPath>
</defs>
</svg>
