<svg width="40" height="40" viewBox="0 0 40 40" fill="none" xmlns="http://www.w3.org/2000/svg">
<path d="M25.4758 27.011V31.5336L21.8325 24.7332V20.2107L25.4758 27.011Z" fill="#ADB1F0"/>
<path d="M4.26392 14.9271V19.4497L14.762 20.7053V16.1827L4.26392 14.9271Z" fill="#BBBAC5"/>
<path d="M20.0044 5.95605V10.4786L20.0068 17.7147V13.1921L20.0044 5.95605Z" fill="#BBBAC5"/>
<path d="M25.4757 27.011V31.5336L21.8325 24.7332V20.2107L25.4757 27.011Z" fill="#BBBAC5"/>
<path d="M4.26392 14.9267C5.62572 9.68008 12.1565 5.95817 20.0045 5.95605V10.4786C12.1565 10.4807 5.62572 14.2026 4.26392 19.4493V14.9267Z" fill="#BBBAC5"/>
<path d="M14.7615 16.1824C15.2154 14.4334 17.3924 13.1928 20.0084 13.1921V17.7147C17.3924 17.7154 15.2154 18.956 14.7615 20.7049V16.1824Z" fill="#9A92CE"/>
<path d="M20.0074 5.95605V10.4786L20.0087 17.7147V13.1921L20.0074 5.95605Z" fill="#ADB1F0"/>
<path d="M4.26392 14.9271V19.4497L14.762 20.7052V16.1826L4.26392 14.9271Z" fill="#BBBAC5"/>
<path d="M35.9998 16.8103C35.9998 21.4738 31.9312 25.4169 25.475 27.0108V31.5333C31.9313 29.9394 35.9998 25.9963 35.9998 21.3328V16.8103Z" fill="#796DBD"/>
<path d="M20.01 13.1921C22.9536 13.1917 25.3403 14.8112 25.341 16.8094C25.3414 18.3641 23.9851 19.679 21.8327 20.2103V24.7328C24.5991 24.0499 26.0261 21.9739 25.02 20.0961C24.2372 18.6349 22.3004 17.7143 20.01 17.7146V13.1921Z" fill="#9A92CE"/>
<path d="M25.4752 27.0111C17.1762 29.0599 8.00181 26.1537 4.98369 20.5201C4.3135 19.2691 4.02087 18.1416 4.02087 16.8105V21.333C4.02087 20.6675 4.09332 20.1051 4.26342 19.4497V14.9271C4.09332 15.5826 4.02087 16.1449 4.02087 16.8105V21.333C4.02087 27.3276 11.1796 32.1871 20.0104 32.1871C21.9714 32.1871 23.6324 31.9884 25.4752 31.5335V27.011V27.0111Z" fill="#BBBAC5"/>
<path d="M21.8318 20.2105C19.0655 20.8934 16.0074 19.9248 15.0013 18.0468C14.6663 17.4214 14.5911 16.838 14.7612 16.1825V20.705C14.2504 22.6729 16.1864 24.5492 19.0853 24.8959C20.0509 25.0115 20.9103 24.9605 21.8317 24.733V20.2104L21.8318 20.2105Z" fill="#BBBAC5"/>
<path d="M20.007 5.95616C28.8379 5.95495 35.9981 10.8135 35.9999 16.808C36.0012 21.4722 31.9324 25.4166 25.4751 27.0107L21.8319 20.2104C24.5982 19.5275 26.0252 17.4515 25.0191 15.5737C24.2364 14.1125 22.2995 13.1918 20.0091 13.1921L20.0069 5.95605L20.007 5.95616Z" fill="#ADB1F0"/>
<path d="M25.4755 27.011C17.1765 29.0598 8.0021 26.1536 4.98398 20.52C3.97875 18.6436 3.75332 16.8935 4.26371 14.9271L14.7618 16.1826C14.251 18.1505 16.187 20.0268 19.0859 20.3736C20.0515 20.4891 20.9109 20.4381 21.8323 20.2106L25.4755 27.0109V27.011Z" fill="#E1E6EC"/>
<path d="M4.26392 14.9267C5.62572 9.68008 12.1565 5.95817 20.0045 5.95605L20.0088 13.1921C17.3929 13.1928 15.2159 14.4334 14.762 16.1824L4.26392 14.9267Z" fill="#ADB1F0"/>
</svg>
