<svg width="40" height="40" viewBox="6 6 28 28" fill="none" xmlns="http://www.w3.org/2000/svg">
<g clip-path="url(#clip0_1947_33862)">
<g clip-path="url(#clip1_1947_33862)">
<path d="M19.9922 31.6944C26.2475 31.6944 31.3184 26.6235 31.3184 20.3682C31.3184 14.1129 26.2475 9.04199 19.9922 9.04199C13.7369 9.04199 8.66602 14.1129 8.66602 20.3682C8.66602 26.6235 13.7369 31.6944 19.9922 31.6944Z" fill="#A3EDBA"/>
<path d="M27.7349 16.7226L23.9501 18.3106L23.9502 18.311L20.0649 19.9411L18.4347 16.0558C18.4384 16.0543 18.442 16.053 18.4457 16.0515L18.4455 16.0512C18.4419 16.0527 18.4382 16.054 18.4346 16.0555L16.8357 12.2446C13.7444 13.4945 11.5625 16.5223 11.5625 20.0616C11.5625 24.7175 15.337 28.4919 19.9929 28.4919C24.6489 28.4919 28.4234 24.7175 28.4234 20.0616C28.4234 18.8752 28.1772 17.7466 27.7349 16.7226Z" fill="#A3EDBA"/>
<path d="M19.9924 26.1669C23.1951 26.1669 25.7914 23.5706 25.7914 20.3679C25.7914 17.1652 23.1951 14.5688 19.9924 14.5688C16.7897 14.5688 14.1934 17.1652 14.1934 20.3679C14.1934 23.5706 16.7897 26.1669 19.9924 26.1669Z" fill="#6699A1"/>
<path d="M19.9931 22.8065C21.3398 22.8065 22.4315 21.7148 22.4315 20.3681C22.4315 19.0214 21.3398 17.9297 19.9931 17.9297C18.6464 17.9297 17.5547 19.0214 17.5547 20.3681C17.5547 21.7148 18.6464 22.8065 19.9931 22.8065Z" fill="#201836"/>
<path d="M17.4473 15.0167C20.6173 13.6866 24.2651 15.1781 25.5952 18.3481L19.8555 20.7563L17.4473 15.0167Z" fill="#A3EDBA"/>
<path d="M15.0508 9.30383L17.4475 15.0161C20.6175 13.6861 24.2655 15.1781 25.5954 18.3476L31.3076 15.9509C28.654 9.62629 21.3753 6.65023 15.0508 9.30383Z" fill="#8087E8"/>
<path d="M22.3398 19.714C22.0537 18.6855 21.1126 17.9297 19.9928 17.9297C19.5595 17.9297 19.1534 18.0439 18.8008 18.242L19.8557 20.7563L22.3398 19.714Z" fill="white"/>
</g>
</g>
<defs>
<clipPath id="clip0_1947_33862">
<rect width="40" height="40" fill="white"/>
</clipPath>
<clipPath id="clip1_1947_33862">
<rect width="22.6524" height="23.3608" fill="white" transform="translate(8.66602 8.3335)"/>
</clipPath>
</defs>
</svg>
