<svg width="27" height="26" viewBox="0 0 27 26" fill="none" xmlns="http://www.w3.org/2000/svg">
<path d="M12.1348 10.127L6.72168 22.7813L12.1348 10.127Z" stroke="currentColor" stroke-linejoin="round"/>
<path d="M25.9997 14.6387V14.6505L19.3164 17.4639L25.9997 14.6505V14.6387Z" stroke="currentColor" stroke-linejoin="round"/>
<path d="M19.3169 17.4625L26.0001 14.6491L18.3672 12.1562L19.3169 17.4625Z" stroke="currentColor" stroke-linejoin="round"/>
<path d="M25.9997 14.6382L16.2656 0.5L18.3668 12.1572L25.9997 14.6382Z" stroke="currentColor" stroke-linejoin="round"/>
<path d="M18.3652 12.1602L25.9959 14.6446L18.3652 12.1602Z" stroke="currentColor" stroke-linejoin="round"/>
<path d="M19.3166 17.4629L6.72168 22.781L19.3166 17.4629Z" stroke="currentColor" stroke-linejoin="round"/>
<path d="M26 14.6505V14.6387V14.6505Z" stroke="currentColor" stroke-linejoin="round"/>
<path d="M19.3166 17.4631L18.367 12.1569L12.1348 10.127L6.72168 22.7813L19.3166 17.4631Z" stroke="currentColor" stroke-linejoin="round"/>
<path d="M18.3672 12.1562L26.0001 14.6373L18.3672 12.1562Z" stroke="currentColor" stroke-linejoin="round"/>
<path d="M1 6.50586L6.72175 22.7808L12.1349 10.1265L1 6.50586Z" stroke="currentColor" stroke-linejoin="round"/>
<path d="M19.3164 17.4638L20.5391 24.242L25.9997 14.6504L19.3164 17.4638Z" stroke="currentColor" stroke-linejoin="round"/>
<path d="M12.1348 10.1273L18.367 12.1572L16.2658 0.5L12.1348 10.1273Z" stroke="currentColor" stroke-linejoin="round"/>
<path d="M12.1572 10.1738L18.3301 12.1325" stroke="currentColor" stroke-linejoin="round"/>
</svg>
