<svg width="40" height="40" viewBox="0 0 40 40" fill="none" xmlns="http://www.w3.org/2000/svg">
<g clip-path="url(#clip0_206_41082)">
<path d="M32.2353 24.0784C34.3145 24.0784 36 22.3928 36 20.3137C36 18.2345 34.3145 16.549 32.2353 16.549C30.1561 16.549 28.4706 18.2345 28.4706 20.3137C28.4706 22.3928 30.1561 24.0784 32.2353 24.0784Z" fill="#ADB1F0"/>
<path d="M19.6863 26.5883C21.7655 26.5883 23.451 24.9027 23.451 22.8235C23.451 20.7444 21.7655 19.0588 19.6863 19.0588C17.6071 19.0588 15.9216 20.7444 15.9216 22.8235C15.9216 24.9027 17.6071 26.5883 19.6863 26.5883Z" fill="#ADB1F0"/>
<path d="M7.76471 33.4901C9.8439 33.4901 11.5294 31.8046 11.5294 29.7254C11.5294 27.6462 9.8439 25.9607 7.76471 25.9607C5.68552 25.9607 4 27.6462 4 29.7254C4 31.8046 5.68552 33.4901 7.76471 33.4901Z" fill="#ADB1F0"/>
<path d="M8.39215 21.5686C10.4713 21.5686 12.1569 19.8831 12.1569 17.8039C12.1569 15.7247 10.4713 14.0392 8.39215 14.0392C6.31296 14.0392 4.62744 15.7247 4.62744 17.8039C4.62744 19.8831 6.31296 21.5686 8.39215 21.5686Z" fill="#ADB1F0"/>
<path d="M20.9412 14.0392C23.0204 14.0392 24.7059 12.3537 24.7059 10.2745C24.7059 8.19528 23.0204 6.50977 20.9412 6.50977C18.862 6.50977 17.1765 8.19528 17.1765 10.2745C17.1765 12.3537 18.862 14.0392 20.9412 14.0392Z" fill="#E1E6EC"/>
</g>
<defs>
<clipPath id="clip0_206_41082">
<rect width="32" height="26.9804" fill="white" transform="translate(4 6.50977)"/>
</clipPath>
</defs>
</svg>
