<svg width="32px" height="32px" viewBox="0 0 24 24" fill="none" xmlns="http://www.w3.org/2000/svg"><rect x="9" y="16" width="13" height="5" rx="0.5" fill="#6A6F7F"></rect><rect x="9" y="9" width="13" height="5" rx="0.5" fill="#6A6F7F"></rect><path fill-rule="evenodd" clip-rule="evenodd" d="M5 6a1 1 0 011 1v11h1a1 1 0 110 2H5a1 1 0 01-1-1V7a1 1 0 011-1z" fill="#AAB2BF"></path><path fill-rule="evenodd" clip-rule="evenodd" d="M5 12a1 1 0 011-1h1a1 1 0 110 2H6a1 1 0 01-1-1z" fill="#AAB2BF"></path><rect x="2" y="2" width="15" height="5" rx="0.5" fill="#4CC3FA"></rect></svg>